<svg viewBox="0 0 330 200" xmlns="http://www.w3.org/2000/svg"><g><g><g><g><g><line x1="50" y1="177" x2="45" y2="177" style="visibility: inherit;" fill="rgb(0, 0, 0)" stroke="rgb(204, 204, 204)" stroke-width="1px"></line><line x1="50" y1="160.9090909090909" x2="45" y2="160.9090909090909" style="visibility: inherit;" fill="rgb(0, 0, 0)" stroke="rgb(204, 204, 204)" stroke-width="1px"></line><line x1="50" y1="144.81818181818187" x2="45" y2="144.81818181818187" style="visibility: inherit;" fill="rgb(0, 0, 0)" stroke="rgb(204, 204, 204)" stroke-width="1px"></line><line x1="50" y1="128.72727272727275" x2="45" y2="128.72727272727275" style="visibility: inherit;" fill="rgb(0, 0, 0)" stroke="rgb(204, 204, 204)" stroke-width="1px"></line><line x1="50" y1="112.63636363636365" x2="45" y2="112.63636363636365" style="visibility: inherit;" fill="rgb(0, 0, 0)" stroke="rgb(204, 204, 204)" stroke-width="1px"></line><line x1="50" y1="96.54545454545455" x2="45" y2="96.54545454545455" style="visibility: inherit;" fill="rgb(0, 0, 0)" stroke="rgb(204, 204, 204)" stroke-width="1px"></line><line x1="50" y1="80.45454545454544" x2="45" y2="80.45454545454544" style="visibility: inherit;" fill="rgb(0, 0, 0)" stroke="rgb(204, 204, 204)" stroke-width="1px"></line><line x1="50" y1="64.36363636363643" x2="45" y2="64.36363636363643" style="visibility: inherit;" fill="rgb(0, 0, 0)" stroke="rgb(204, 204, 204)" stroke-width="1px"></line><line x1="50" y1="48.27272727272731" x2="45" y2="48.27272727272731" style="visibility: inherit;" fill="rgb(0, 0, 0)" stroke="rgb(204, 204, 204)" stroke-width="1px"></line><line x1="50" y1="32.181818181818215" x2="45" y2="32.181818181818215" style="visibility: inherit;" fill="rgb(0, 0, 0)" stroke="rgb(204, 204, 204)" stroke-width="1px"></line><line x1="50" y1="16.090909090909093" x2="45" y2="16.090909090909093" style="visibility: inherit;" fill="rgb(0, 0, 0)" stroke="rgb(204, 204, 204)" stroke-width="1px"></line><line x1="50" y1="0" x2="45" y2="0" style="visibility: inherit;" fill="rgb(0, 0, 0)" stroke="rgb(204, 204, 204)" stroke-width="1px"></line></g><g transform="translate(40, 0)"><text x="0" y="177" dx="0em" dy="0.3em" style="text-anchor: end; visibility: hidden; font-family: &quot;Helvetica Neue&quot;, sans-serif; font-size: 12px; font-weight: 200;" fill="rgb(50, 49, 63)" stroke="none" stroke-width="1px">-6.8</text><text x="0" y="160.9090909090909" dx="0em" dy="0.3em" style="text-anchor: end; visibility: inherit; font-family: &quot;Helvetica Neue&quot;, sans-serif; font-size: 12px; font-weight: 200;" fill="rgb(50, 49, 63)" stroke="none" stroke-width="1px">-6.6</text><text x="0" y="144.81818181818187" dx="0em" dy="0.3em" style="text-anchor: end; visibility: hidden; font-family: &quot;Helvetica Neue&quot;, sans-serif; font-size: 12px; font-weight: 200;" fill="rgb(50, 49, 63)" stroke="none" stroke-width="1px">-6.4</text><text x="0" y="128.72727272727275" dx="0em" dy="0.3em" style="text-anchor: end; visibility: inherit; font-family: &quot;Helvetica Neue&quot;, sans-serif; font-size: 12px; font-weight: 200;" fill="rgb(50, 49, 63)" stroke="none" stroke-width="1px">-6.2</text><text x="0" y="112.63636363636365" dx="0em" dy="0.3em" style="text-anchor: end; visibility: hidden; font-family: &quot;Helvetica Neue&quot;, sans-serif; font-size: 12px; font-weight: 200;" fill="rgb(50, 49, 63)" stroke="none" stroke-width="1px">-6</text><text x="0" y="96.54545454545455" dx="0em" dy="0.3em" style="text-anchor: end; visibility: inherit; font-family: &quot;Helvetica Neue&quot;, sans-serif; font-size: 12px; font-weight: 200;" fill="rgb(50, 49, 63)" stroke="none" stroke-width="1px">-5.8</text><text x="0" y="80.45454545454544" dx="0em" dy="0.3em" style="text-anchor: end; visibility: hidden; font-family: &quot;Helvetica Neue&quot;, sans-serif; font-size: 12px; font-weight: 200;" fill="rgb(50, 49, 63)" stroke="none" stroke-width="1px">-5.6</text><text x="0" y="64.36363636363643" dx="0em" dy="0.3em" style="text-anchor: end; visibility: inherit; font-family: &quot;Helvetica Neue&quot;, sans-serif; font-size: 12px; font-weight: 200;" fill="rgb(50, 49, 63)" stroke="none" stroke-width="1px">-5.4</text><text x="0" y="48.27272727272731" dx="0em" dy="0.3em" style="text-anchor: end; visibility: hidden; font-family: &quot;Helvetica Neue&quot;, sans-serif; font-size: 12px; font-weight: 200;" fill="rgb(50, 49, 63)" stroke="none" stroke-width="1px">-5.2</text><text x="0" y="32.181818181818215" dx="0em" dy="0.3em" style="text-anchor: end; visibility: inherit; font-family: &quot;Helvetica Neue&quot;, sans-serif; font-size: 12px; font-weight: 200;" fill="rgb(50, 49, 63)" stroke="none" stroke-width="1px">-5</text><text x="0" y="16.090909090909093" dx="0em" dy="0.3em" style="text-anchor: end; visibility: hidden; font-family: &quot;Helvetica Neue&quot;, sans-serif; font-size: 12px; font-weight: 200;" fill="rgb(50, 49, 63)" stroke="none" stroke-width="1px">-4.8</text><text x="0" y="0" dx="0em" dy="0.3em" style="text-anchor: end; visibility: hidden; font-family: &quot;Helvetica Neue&quot;, sans-serif; font-size: 12px; font-weight: 200;" fill="rgb(50, 49, 63)" stroke="none" stroke-width="1px">-4.6</text></g><line x1="50" y1="0" x2="50" y2="177" fill="rgb(0, 0, 0)" stroke="rgb(204, 204, 204)" stroke-width="1px"></line></g></g><g transform="translate(50, 0)" clip-path="url(#clip_0)"><clipPath id="clip_0"><rect width="280" height="177"></rect></clipPath><g><g><g><line x1="0" y1="0" x2="0" y2="177" fill="rgb(0, 0, 0)" stroke="rgb(60, 60, 60)" stroke-width="1px" opacity="0.25"></line><line x1="21.53846153846154" y1="0" x2="21.53846153846154" y2="177" fill="rgb(0, 0, 0)" stroke="rgb(60, 60, 60)" stroke-width="1px" opacity="0.25"></line><line x1="43.07692307692308" y1="0" x2="43.07692307692308" y2="177" fill="rgb(0, 0, 0)" stroke="rgb(60, 60, 60)" stroke-width="1px" opacity="0.25"></line><line x1="64.61538461538461" y1="0" x2="64.61538461538461" y2="177" fill="rgb(0, 0, 0)" stroke="rgb(60, 60, 60)" stroke-width="1px" opacity="0.25"></line><line x1="86.15384615384616" y1="0" x2="86.15384615384616" y2="177" fill="rgb(0, 0, 0)" stroke="rgb(60, 60, 60)" stroke-width="1px" opacity="0.25"></line><line x1="107.6923076923077" y1="0" x2="107.6923076923077" y2="177" fill="rgb(0, 0, 0)" stroke="rgb(60, 60, 60)" stroke-width="1px" opacity="0.25"></line><line x1="129.23076923076923" y1="0" x2="129.23076923076923" y2="177" fill="rgb(0, 0, 0)" stroke="rgb(60, 60, 60)" stroke-width="1px" opacity="0.25"></line><line x1="150.76923076923077" y1="0" x2="150.76923076923077" y2="177" fill="rgb(0, 0, 0)" stroke="rgb(60, 60, 60)" stroke-width="1px" opacity="0.25"></line><line x1="172.30769230769232" y1="0" x2="172.30769230769232" y2="177" fill="rgb(0, 0, 0)" stroke="rgb(60, 60, 60)" stroke-width="1px" opacity="0.25"></line><line x1="193.84615384615384" y1="0" x2="193.84615384615384" y2="177" fill="rgb(0, 0, 0)" stroke="rgb(60, 60, 60)" stroke-width="1px" opacity="0.25"></line><line x1="215.3846153846154" y1="0" x2="215.3846153846154" y2="177" fill="rgb(0, 0, 0)" stroke="rgb(60, 60, 60)" stroke-width="1px" opacity="0.25"></line><line x1="236.92307692307693" y1="0" x2="236.92307692307693" y2="177" fill="rgb(0, 0, 0)" stroke="rgb(60, 60, 60)" stroke-width="1px" opacity="0.25"></line><line x1="258.46153846153845" y1="0" x2="258.46153846153845" y2="177" fill="rgb(0, 0, 0)" stroke="rgb(60, 60, 60)" stroke-width="1px" opacity="0.25"></line><line x1="280" y1="0" x2="280" y2="177" fill="rgb(0, 0, 0)" stroke="rgb(60, 60, 60)" stroke-width="1px" opacity="0.25"></line></g><g><line x1="0" y1="177" x2="280" y2="177" fill="rgb(0, 0, 0)" stroke="rgb(60, 60, 60)" stroke-width="1px" opacity="0.25"></line><line x1="0" y1="160.9090909090909" x2="280" y2="160.9090909090909" fill="rgb(0, 0, 0)" stroke="rgb(60, 60, 60)" stroke-width="1px" opacity="0.25"></line><line x1="0" y1="144.81818181818187" x2="280" y2="144.81818181818187" fill="rgb(0, 0, 0)" stroke="rgb(60, 60, 60)" stroke-width="1px" opacity="0.25"></line><line x1="0" y1="128.72727272727275" x2="280" y2="128.72727272727275" fill="rgb(0, 0, 0)" stroke="rgb(60, 60, 60)" stroke-width="1px" opacity="0.25"></line><line x1="0" y1="112.63636363636365" x2="280" y2="112.63636363636365" fill="rgb(0, 0, 0)" stroke="rgb(60, 60, 60)" stroke-width="1px" opacity="0.25"></line><line x1="0" y1="96.54545454545455" x2="280" y2="96.54545454545455" fill="rgb(0, 0, 0)" stroke="rgb(60, 60, 60)" stroke-width="1px" opacity="0.25"></line><line x1="0" y1="80.45454545454544" x2="280" y2="80.45454545454544" fill="rgb(0, 0, 0)" stroke="rgb(60, 60, 60)" stroke-width="1px" opacity="0.25"></line><line x1="0" y1="64.36363636363643" x2="280" y2="64.36363636363643" fill="rgb(0, 0, 0)" stroke="rgb(60, 60, 60)" stroke-width="1px" opacity="0.25"></line><line x1="0" y1="48.27272727272731" x2="280" y2="48.27272727272731" fill="rgb(0, 0, 0)" stroke="rgb(60, 60, 60)" stroke-width="1px" opacity="0.25"></line><line x1="0" y1="32.181818181818215" x2="280" y2="32.181818181818215" fill="rgb(0, 0, 0)" stroke="rgb(60, 60, 60)" stroke-width="1px" opacity="0.25"></line><line x1="0" y1="16.090909090909093" x2="280" y2="16.090909090909093" fill="rgb(0, 0, 0)" stroke="rgb(60, 60, 60)" stroke-width="1px" opacity="0.25"></line><line x1="0" y1="0" x2="280" y2="0" fill="rgb(0, 0, 0)" stroke="rgb(60, 60, 60)" stroke-width="1px" opacity="0.25"></line></g></g></g><g><g><line x1="0" y1="-370.090909090909" x2="280" y2="-370.090909090909" fill="rgb(0, 0, 0)" stroke="rgb(153, 153, 153)" stroke-width="1.5px"></line></g></g><g><g><line x1="21.53846153846154" y1="0" x2="21.53846153846154" y2="177" fill="rgb(0, 0, 0)" stroke="rgb(153, 153, 153)" stroke-width="1.5px"></line></g></g><g><g><g><g><g><path stroke="rgb(0, 119, 187)" stroke-width="2px" d="M28.984307692307695,-3.16939626702964L29.08166153846154,5.023593269528504L29.983261538461537,3.3998310004964196L30.164615384615384,10.783999423809348L30.370092307692307,22.917060121935407L30.386461538461536,17.638303623699898L30.505784615384616,9.316163132621966L30.602707692307693,19.11110957196439L30.629846153846152,21.432574193195336L30.70523076923077,24.595539514356716L31.139876923076923,31.343612733668493L31.15193846153846,42.83394354409933L31.550830769230767,44.19468227960331L31.58313846153846,33.35547642212845L31.611569230769234,34.836347761672044L31.716246153846154,30.404927917582086L31.7296,20.943529163167597L31.92129230769231,27.39303112346309L31.996676923076922,24.647308316823256L32.170707692307694,25.998643612698316L32.259446153846156,26.836099900668415L32.396861538461536,29.962237575733838L33.060676923076926,47.86746267026123L33.995015384615385,49.04468166557248L34.00621538461539,49.5333373335277L34.364184615384616,39.32154761260168L34.70104615384615,38.39776003770376L34.74153846153846,33.98770377014745L35.05815384615384,44.238707602415076L35.27009230769231,40.08998699320057L35.485046153846156,38.263925182093175L35.80553846153846,49.777260211378874L36.04461538461538,43.51711492213201L36.04978461538462,52.213015535310504L36.0652923076923,60.08598496302645L36.08855384615385,72.34443129389477L36.104492307692304,65.14323074718982L36.12043076923077,60.677096586935846L36.31341538461538,55.400652826734316L36.38363076923077,64.41770659305755L36.4155076923077,55.56214522589288L36.79544615384615,62.564973289294386L36.997476923076924,59.705137499882795L37.03366153846154,66.00286403221726L37.28824615384616,60.414614853073886L37.30116923076923,60.353318285124246L37.38301538461538,64.36027558841187L37.65784615384615,69.47667267657232L37.77630769230769,61.76820934366428L37.82412307692308,60.40165337761087L38.187261538461534,54.71680152266583L38.23895384615385,66.2631056321442L38.434953846153846,55.74939202905017L38.60941538461539,54.60545724307596L39.07852307692308,53.55866157923296L39.284,60.32790674895355L39.655323076923075,59.14206466427359L39.79876923076923,66.54161591468079L40.30233846153846,75.85674590767302L40.33335384615385,69.40171915396218L40.4544,61.673763380888275L40.54356923076923,57.98244069981979L40.56553846153846,58.194873417861075L40.58836923076923,69.33293461257307L40.80849230769231,82.5065592689921L40.87181538461539,81.0125748623485L41.047569230769234,99.24361218647427L41.10529230769231,96.87929351871607L41.170338461538456,84.73316360235184L41.46110769230769,61.41081777048096L41.49513846153847,57.80081110171395L42.06720000000001,48.95537709251923L42.16455384615385,59.76922569579142L42.25501538461538,66.90620392721827L42.72412307692308,58.40270012496886L43.06141538461539,74.08714914574875L43.38966153846154,78.04189955256271L43.52492307692307,86.33355006395732L43.56498461538461,81.70226567929905L43.810523076923076,82.40626067974634L44.28695384615385,82.85851999718663L44.366646153846155,74.354942639625L44.528615384615385,78.81079401533793L44.697907692307695,78.47603700462847L45.761907692307695,82.06769707904216L45.84116923076923,85.75744128778065L45.96953846153846,74.30772781269079L46.78627692307692,80.0053469565021L46.79790769230769,91.87725602546377L46.805230769230775,97.98494457361345L47.41390769230769,83.65636069489055L47.4164923076923,85.22848027621501L47.541415384615384,88.53053748088685L48.25692307692307,87.61966930208081L48.91556923076923,80.70260768920309L49.28086153846154,84.48993114974901L49.76332307692307,79.63841319507625L50.25526153846153,81.66807394715278L50.35606153846153,75.12627157970637L50.536123076923076,76.8365592866854L51.286523076923075,66.28379490054128L51.4024,84.20704379018943L51.51612307692308,84.53275278140462L51.600123076923076,82.03549027455014L51.83532307692308,82.43363543864481L51.886153846153846,88.53006362139111L51.91889230769231,86.78592556574571L52.06492307692308,84.6760311931073L52.25058461538462,88.7765033510961L52.45649230769231,86.17408039214403L52.47803076923077,96.22161009011707L52.48750769230769,85.40405207063854L52.50172307692308,89.72893957714986L52.80756923076923,95.49923692217108L52.93076923076923,91.59621086487826L53.99606153846154,80.13833211252162L54.310523076923076,82.04397011143503L54.60603076923077,89.77575349144934L55.16603076923077,91.44030040863468L55.47230769230769,91.20399309613299L55.49513846153846,106.30971450350388L55.50849230769231,105.7776605336009L56.10424615384615,104.50597982693544L56.19987692307692,109.67859032369593L56.36486153846154,98.09664858730615L56.373046153846154,97.67806233214887L57.34141538461538,97.30561985195935L57.83206153846154,119.77854356214883L57.914769230769224,108.66486365768058L58.124553846153844,102.18192177626231L58.522584615384616,100.17289950074944L58.85169230769231,92.06995072464736L58.8883076923077,90.1377883301575L58.9499076923077,102.44674888421397L59.115323076923076,93.16163243752302L59.43538461538461,98.63421831180693L59.66627692307693,101.59344297438888L59.95532307692308,106.73260104422694L59.962215384615384,103.98198736007328L60.224553846153846,106.78402005068195L60.33827692307692,112.91125684366935L60.79532307692308,111.81100926575309L60.934461538461534,106.05241482666926L60.94436923076923,106.68965394568978L61.1476923076923,102.42351188659556L61.62196923076923,98.36309943112396L61.7288,100.93580297157942L61.9136,103.60486309245691L62.293107692307686,105.40882889881463L62.41070769230769,120.59414035894766L62.548123076923076,108.11930676536196L62.59249230769231,104.75233728159596L62.945292307692306,100.66700602399244L63.66984615384616,113.32168956729295L63.879630769230765,119.50497070088053L64.12947692307692,105.01425604737601L64.48615384615384,102.80998602990934L64.90486153846153,93.26083134864183L64.99704615384616,95.30536211609761L65.10990769230769,105.64975497065849L65.36276923076923,109.39462166608877L65.37138461538461,109.30536012941953L65.77415384615385,110.15819972647205L65.7875076923077,98.21251408664901L65.8112,108.96987418504943L65.82627692307692,107.27465518924122L65.83058461538461,111.71410265333964L66.23292307692307,102.46399560107024L66.37464615384616,103.40485741868102L66.39963076923077,93.89374276070127L66.64129230769231,92.28982795192526L66.65335384615385,109.01781754821593L66.87261538461539,110.27843537353958L67.01864615384615,95.28438263733733L67.23058461538461,98.36042955008156L67.35938461538461,91.94819092498969L67.9056,94.88393652071424L68.22781538461538,94.61020404638408L68.93212307692308,101.34891692939513L69.01526153846153,97.00687965565068L69.11132307692307,104.93111646443313L69.40467692307692,99.9961806291704L69.56578461538462,99.76536536269847L70.08356923076923,101.15594653681634L70.26406153846155,109.97396885717612L70.44412307692308,115.81964435848955L71.02695384615384,108.88021058679001L71.20313846153846,107.80067090080225L71.20830769230768,116.10751430486903L71.36295384615384,98.09260280525031L71.70498461538462,97.03345693433758L71.72135384615385,104.48275443972739L71.75236923076923,96.04346397989312L71.86566153846154,98.57701050921273L72.11852307692307,109.93928859478987L72.20036923076923,96.98057375404743L72.35716923076923,98.80543530994578L73.64775384615385,93.91162259316073L73.64818461538462,103.11800377384745L73.70806153846154,96.05864078401171L73.73864615384616,84.82376234779852L73.92430769230769,93.42853685051259L74.0836923076923,96.87077350731907L74.26289230769231,111.00810300029325L74.26806153846154,114.203412735401L74.94006153846153,102.96126057902913L75.41003076923076,96.4143710831075L76.3784,100.07729672351729L77.14172307692307,113.1626442500417L77.17963076923077,112.30373915386804L77.22098461538462,124.14499633739139L77.46566153846153,113.29669743317208L78.15747692307693,121.55859306775238L78.2419076923077,123.25556644772931L79.09483076923077,110.65464635043246L79.31667692307693,119.21638490332143L79.32227692307693,114.71704549860021L79.35889230769232,109.96743828382367L79.53206153846153,112.63678567495619L79.84953846153846,107.19320442554806L80.10498461538461,114.26428193669538L80.30443076923076,106.83792877144774L80.30658461538461,115.50075863893402L80.46855384615384,117.06261969807542L80.68781538461539,114.73911196818719L81.27883076923078,115.48539581902381L81.41581538461539,113.2538441468819L81.47827692307692,114.46912337295026L81.4980923076923,116.87487740650495L81.72424615384615,111.6846447146383L81.74147692307692,108.2397177876176L81.7587076923077,99.03595939155358L81.79101538461538,105.06027773273824L82.05723076923077,91.27796665309837L82.16018461538462,95.65524063666774L82.26012307692308,109.97903988565167L82.54701538461538,104.81707269487421L82.9179076923077,109.48905143733134L82.9782153846154,110.13788580111391L83.55199999999999,104.16398085644519L83.57741538461538,117.26315898700062L83.62867692307692,112.4639283359259L84.44886153846154,109.47602011801061L84.61384615384615,116.28173503791956L84.95587692307691,120.94155581684132L85.43446153846155,113.3863803943739L85.46418461538461,110.0237367955566L85.4659076923077,115.72284347406801L85.8984,115.59584273452627L85.98541538461538,112.51146652758433L86.36061538461539,112.92951756123168L86.40584615384614,103.31347643431647L86.48252307692307,104.26410076079736L86.50406153846154,114.48224424429245L86.52172307692307,120.85113883353503L86.56221538461539,118.673970861711L86.58332307692308,112.15356525281655L86.69790769230768,114.73413543131971L87.11963076923077,120.76240824271184L87.22387692307692,118.79564036493868L88.26590769230769,116.69969960842297L88.43563076923077,120.20387037706995L88.49421538461539,126.42688155241382L88.50067692307692,117.30040310553164L88.89483076923078,122.46260591097632L89.1003076923077,124.43494996224075L89.22953846153847,122.14686969450204L89.31224615384615,116.53569017260838L90.07987692307691,118.89745265489557L90.23926153846155,129.92885656178163L90.42104615384615,121.25708763882345L90.44258461538462,118.5863385048417L90.51667692307691,116.22866089515242L90.83286153846153,120.60232588653986L90.84492307692307,121.35290233387599L90.92073846153846,108.46878751030545L91.17273846153846,109.89193214016656L91.28301538461538,116.8768012303724L91.44498461538461,124.07186258470338L91.53372307692308,115.24041065898189L91.75169230769231,115.94573740449448L92.3216,105.93845266816611L92.68344615384616,106.99056578868822L92.74073846153846,105.1211638348407L92.82818461538461,111.16021782521862L93.44461538461537,116.82613450289267L93.5144,126.30398576585026L93.62123076923078,130.61650818716575L93.7900923076923,118.44764814780078L94.34320000000001,119.23809934858036L94.44227692307693,118.89577533832411L94.57969230769231,124.44272870494208L94.61803076923076,119.08154955636701L94.71495384615385,121.33492495712571L94.84676923076923,124.77751189094576L95.33052307692309,112.78750359244768L95.34732307692309,116.16847250001204L95.35163076923077,119.42805344435422L95.91206153846154,127.19004313311864L95.96418461538462,133.11704528211504L95.99864615384615,126.18116900415234L96.1632,129.208742895994L96.24418461538463,125.58884164810226L96.63230769230769,135.83835116750575L97.46455384615385,126.8683636432303L97.97803076923077,129.090489475833L98.15636923076923,137.93332443334694L98.35796923076923,134.94703027263466L98.37519999999999,126.79586923946414L98.58800000000001,122.18553466207561L98.91926153846154,128.3885407256401L99.06916923076923,123.61310334357606L99.38492307692307,127.12195711833941L99.41033846153846,120.78274010990407L99.63735384615384,123.56362065896005L99.83120000000001,120.75344592304161L100.15298461538461,121.14573380388045L100.19950769230769,128.17921853466987L100.20166153846155,129.5607319292403L100.34036923076923,124.22698456908759L100.4808,124.87532284233814L100.97403076923077,131.36358899751158L101.10843076923078,131.19802039735282L101.51593846153845,129.824635547183L101.6132923076923,140.88628258161128L101.98246153846154,121.15656343393766L102.004,118.9345822205466L102.2336,111.0974391253078L102.34904615384616,111.64386216653541L102.36886153846154,119.71197949668752L102.91507692307692,132.92565436310704L102.94221538461538,124.57432346919367L103.20455384615384,128.13971848226197L103.37901538461539,130.3206031410817L103.42338461538462,132.99383876203495L104.18584615384614,134.84870953357705L105.22055384615385,130.01803342264427L105.51132307692308,134.22148832265734L105.55526153846154,125.68136817239966L105.64959999999999,124.24242264696453L106.1256,125.76544731820354L106.14713846153846,120.03804237496419L106.7596923076923,130.9544326366984L107.03926153846155,125.12345137445514L107.04098461538462,126.72063839475254L107.22664615384616,129.2422106853612L107.38775384615384,135.793000624973L107.62381538461538,138.12117559207476L108.13556923076924,148.4431077260446L108.30098461538462,140.10746708244295L108.35870769230769,134.0085427945486L110.1606153846154,134.38116882303592L110.56467692307692,127.83024914191617L110.80504615384616,131.29655953666887L111.29483076923077,125.4458596146294L111.37452307692307,136.84201477764992L111.82769230769232,131.53171418081007L111.91513846153846,132.7768960615034L112.36658461538461,130.26841414419295L112.56215384615385,128.09685515973905L113.16566153846153,127.82539735043775L113.19839999999999,136.35129070490706L113.49563076923077,136.59692115908928L113.60461538461539,135.3769091457599L114.12455384615384,140.4824171618722L114.39249230769231,143.36280376974628L114.42264615384616,142.63268876070475L114.43513846153846,143.706104161491L115.21569230769231,144.77790884449536L115.36732307692307,129.82661647743478L115.37723076923078,130.2251814336189L115.92387692307693,127.078354106365L116.04233846153846,132.4969037969655L116.07292307692308,129.63770632417206L116.24652307692308,127.24687900607329L116.49249230769232,122.63440904135594L116.67858461538462,132.64121610699243L117.01156923076924,133.08690418035306L117.65341538461539,138.7333397960315L118.21600000000001,122.68238258064957L118.37021538461538,128.2340190002663L118.81864615384616,125.87676652281272L118.86086153846153,134.98263622635966L118.86603076923076,126.75770766868267L119.31920000000001,133.29735358014693L119.55741538461538,129.0252394296933L119.55827692307693,126.03909536166788L119.64615384615385,133.76727317658435L119.8232,139.132614775008L119.82449230769231,145.08965405759847L120.00196923076922,141.68198807581663L120.12732307692308,136.58362128246281L120.19323076923077,146.92965113736992L120.2488,147.99174320469973L120.53698461538463,153.75264162663848L120.87212307692307,145.44416429741085L121.3184,139.0884190253626L121.36707692307692,144.78851377733363L121.37483076923077,142.12640230950765L121.4795076923077,144.46910449161732L121.9244923076923,150.37673866057432L121.93095384615386,149.4528054997837L121.99427692307692,149.9826349315897L122.0700923076923,150.6682104526672L122.12523076923077,143.26426817528682L122.34923076923077,145.66941193292092L122.54652307692308,139.75321708107268L122.6076923076923,143.30230698467767L122.6748923076923,133.81891039084104L122.71538461538461,135.56707537920784L123.40203076923076,133.82734648762323L123.89224615384614,126.82622240465335L124.13649230769231,127.81210763199545L124.22221538461538,137.67446112002975L124.4475076923077,141.77016444695346L124.77273846153847,149.217785272065L125.39046153846154,157.42741863097356L125.43267692307693,148.00414040837597L125.61963076923078,144.84419870522515L125.73895384615385,143.64306197687495L126.26750769230769,152.16835794848183L126.83913846153845,143.969284845494L127.18892307692307,146.12380345540325L127.33366153846154,142.91152473723233L127.71575384615385,145.05293658472658L127.96000000000001,147.24014434926795L128.04055384615384,139.68136589464487L128.29772307692306,145.53460969930686L128.58461538461538,143.4680572284698L128.89261538461537,141.4726520888796L129.04209230769231,147.4064566874542L129.136,142.6475060724368L129.40566153846154,145.3917038103378L129.59907692307692,143.33569410640973L129.7606153846154,150.99446024200523L129.80412307692308,152.80087720194368L129.80972307692306,144.78641898806958L129.92043076923076,150.84663005370268L130.0376,146.32578649557837L130.14356923076923,142.77445001971145L130.40763076923076,153.52458831141516L130.51058461538463,150.0886483718977L130.87803076923078,149.02317529716427L130.93316923076924,143.60644245135876L131.01027692307693,143.3575656196578L131.0486153846154,137.95934647642557L131.3803076923077,139.98074042231L131.60947692307693,140.96316430662537L131.92566153846153,144.16600106338973L132.0182769230769,145.38457291558848L132.49815384615385,142.8851841610075L132.56061538461537,146.17756277612887L132.62221538461537,146.44097071843396L132.71612307692308,141.19493353232878L132.88412307692306,147.57948255675302L132.9496,146.34270258031646L132.95433846153847,148.87718757505087L133.21796923076923,151.04703869693037L133.34676923076924,152.5664409534488L133.42258461538464,148.98682663386464L133.56,148.7541287492619L133.74135384615386,150.85258787577786L134.3315076923077,152.51676885581006L134.41163076923078,158.62991282466106L134.44867692307693,154.5858941600288L134.55852307692308,153.05367981835505L135.02892307692306,162.1091017321496L135.14264615384616,159.73358912225873L135.46443076923077,159.46043604532122L135.5984,159.3604888423528L135.74012307692308,160.0125357592469L135.77975384615385,147.56684993358104L136.6878153846154,153.30155965261469L136.68867692307694,154.77414266537588L136.72701538461538,157.2288708226142L137.0668923076923,150.0885161990406L137.0793846153846,138.04565602638124L137.31846153846152,140.1009056411417L137.7780923076923,140.72040474124685L138.1016,117.02832471716799L138.21704615384616,111.52154834772908L138.2988923076923,114.79377551770393L138.35618461538462,114.77734454049741L138.516,107.1416537432859L138.73827692307694,108.40590294252142L138.85458461538462,110.56386877870203L139.0294769230769,107.342333427089L139.11003076923078,110.1543748216842L140.16929230769233,105.16143306714385L140.17058461538463,105.3295697769484L140.2227076923077,111.07898735789044L140.75643076923075,100.75656996947173L141.04547692307693,97.82196382533314L141.60763076923078,91.60490148412035L141.6644923076923,92.05322476983899L141.73729230769231,87.59599297500156L141.9195076923077,95.31541293199581L141.9233846153846,98.12765796330461L141.93200000000002,98.18907393586407L142.09913846153847,99.26868003351551L142.34123076923075,96.6806943607188L142.41230769230768,100.26692231628262L142.53507692307693,96.7959653342109L142.69575384615385,90.99339963440326L142.80689230769232,105.40485119380001L142.8784,90.53375091722441L143.1049846153846,96.63469054930816L143.2859076923077,85.34739985301685L143.73993846153846,85.1989815086563L143.99667692307693,77.03077726773158L144.24738461538462,73.87173626711643L144.52738461538462,81.8811941844753L145.0288,94.0000675446763L145.21446153846156,90.25181288717401L145.21790769230768,81.4430788447534L145.32215384615384,84.66655786357589L145.91316923076923,85.34889857701006L145.9889846153846,89.66684451105756L146.12467692307692,92.2323687458191L146.17292307692307,90.53521271741226L146.43956923076922,92.15493103274116L146.7971076923077,96.53000734095814L147.7435076923077,95.99982156336065L148.09113846153846,97.18558314159642L148.16652307692308,90.73640630779828L148.7713230769231,88.98649556177307L148.84240000000003,86.00315589585732L149.40498461538462,89.81549773631697L150.03692307692307,85.24411478378568L150.06363076923077,76.58418809398741L150.38843076923075,79.98937739094389L150.52455384615385,79.93816963150462L151.0531076923077,86.57228142589761L151.10393846153846,92.90548783663994L151.17286153846155,96.04274752972609L151.18793846153847,92.48485208187266L151.53255384615383,99.13560545605495L151.7910153846154,94.756521600909L151.81815384615385,98.27105631409431L152.0641230769231,99.32805886364079L152.47593846153845,98.88936534331982L152.5857846153846,97.932164939357L153.02646153846152,94.92016809383549L153.5433846153846,89.96186635992457L153.87206153846154,96.98164635306965L154.3622769230769,87.85342186335549L154.55353846153844,86.35569464189467L154.61944615384616,85.53963237309956L154.93692307692308,89.6578303479875L154.94424615384617,86.05066271338123L155.00972307692308,80.60284230104672L155.02178461538463,85.6019760472707L155.1721230769231,92.15083668413195L155.7502153846154,98.77609421101845L156.15815384615385,100.70340886883517L156.2300923076923,91.75491741727618L156.65224615384616,90.99235351613386L156.72504615384614,102.17956897835484L156.89089230769233,95.15343693463704L157.26824615384615,84.22304842648494L157.44873846153845,102.41151500157524L157.7097846153846,97.1048451491551L158.35507692307692,95.79693640856266L158.4881846153846,88.16271781784383L158.66135384615384,86.11155254975394L158.8414153846154,85.43229345445732L158.96332307692307,85.45014558034265L159.10246153846154,90.984940513572L159.32,89.96852306835274L159.35101538461538,89.85832164907279L159.46646153846154,100.29469795035341L159.51341538461537,102.69490872354788L159.66504615384616,101.47687463101812L159.71415384615383,90.28133761097506L159.74387692307693,86.75722704112785L159.75593846153845,90.052796699558L159.93987692307692,90.54154955460257L160.37236923076924,89.5509671570225L160.63858461538462,98.33903244958682L160.65624615384615,102.31746447416329L161.196,100.22959561329216L161.36141538461538,97.66251801306139L161.5220923076923,88.21468076022938L162.21606153846156,93.99490845530535L162.80147692307693,90.20857364027192L163.01858461538464,91.20494709609495L163.0190153846154,83.84168611016274L163.23655384615384,88.34875667231212L163.52043076923076,90.19477197338576L163.66516923076924,81.909853747164L163.7875076923077,88.1544280050789L164.0619076923077,80.20370701001207L164.34923076923076,83.51738423949337L164.48319999999998,84.92941358701988L164.4948307692308,92.2904373652191L164.55987692307693,95.50281456118803L164.6158769230769,90.16274112845866L164.81446153846153,101.3689837988071L165.04535384615386,99.93075657483868L165.07464615384615,93.68749310242384L165.2633230769231,89.54141679803884L165.55495384615384,85.0850064502L165.55753846153846,99.74150894990962L165.57003076923075,101.23669797942067L166.06412307692307,91.21132361803015L166.3897846153846,91.71030415353407L166.39366153846154,89.59158136727028L166.53624615384615,93.74342735956898L167.38916923076923,94.25429196566819L167.40123076923078,93.13470861126905L167.46756923076924,99.14662396090094L168.70215384615383,98.64712143103942L168.72196923076922,101.61013126469057L168.72756923076923,98.4450024350451L169.2625846153846,94.29297750334106L169.29876923076924,95.62687063896749L169.88116923076922,87.09378992835234L169.8940923076923,92.1922248951495L169.97464615384615,96.39831497165778L170.2145846153846,100.9263964939255L170.26326153846153,84.43760149332354L171.00246153846155,90.04027371795452L171.4638153846154,92.938826990727L171.61716923076924,90.79048680168047L171.78215384615385,91.66949305313184L171.96695384615384,99.78697403081486L173.3454153846154,94.17143117183481L173.37470769230768,94.31794061158698L173.37686153846155,88.45136775149037L173.62283076923077,90.1152061794587L175.12276923076922,89.32918207601128L175.65175384615384,96.83048404363585L175.72024615384615,98.36088539480396L175.75384615384615,100.17062225694632L175.7684923076923,109.48069384006313L175.93476923076923,116.92875814946356L176.03126153846154,101.08733865002638L176.27852307692308,93.17801858738243L176.45384615384617,89.18054971874133L176.68732307692306,92.88855931302855L176.73729230769231,87.5020803801312L176.87729230769233,82.75985952568618L177.02633846153844,98.28962714882233L177.3377846153846,92.1409251047952L177.3731076923077,103.07389643458683L177.55833846153845,112.01895099843074L177.86030769230769,107.09160207488851L178.4078153846154,88.65626164055193L178.59519999999998,92.2826370551042L178.60726153846153,87.91746393167095L178.85193846153848,82.61359042717892L179.49723076923078,89.45630400328889L180.12012307692308,92.63593944334957L180.29415384615385,89.32430634317814L180.71716923076923,85.82142257668656L180.84467692307692,88.45764203492021L181.20393846153846,86.60641952853598L181.32756923076923,81.09851353033743L181.38227692307692,91.30069854872221L181.4094153846154,91.51215571120912L181.58646153846152,97.76358256205154L182.48978461538462,106.33651234892636L182.73015384615385,106.18702872019678L182.93175384615384,103.16194642329131L183.01575384615387,107.55704672346504L183.10449230769228,98.36043481355898L183.22984615384615,96.57917041322636L183.83895384615386,95.59781966542737L183.90141538461538,100.84193614032647L183.9750769230769,106.28046930485132L184.0134153846154,108.17489455135568L184.25163076923076,103.33897884645839L184.3830153846154,101.6491244010202L185.0296,109.71335615403434L185.06966153846153,93.12339615743636L185.30744615384614,90.85281329108048L185.42203076923076,95.10901404526044L185.8540923076923,91.72346335116744L186.0931692307692,88.86442807159688L186.2766769230769,99.42327860878851L186.39556923076924,100.12392569604589L186.48516923076923,97.24965329346537L186.78843076923076,88.50842742765622L186.79316923076922,91.00154617216987L187.26055384615384,101.13675764617861L187.51169230769233,104.97425160711079L187.61766153846153,98.83249492913797L187.7748923076923,101.38054744881578L187.84036923076923,105.87943653480795L187.91963076923076,103.43388865123146L188.43138461538462,106.65842714257109L188.4585230769231,101.50820039717598L188.5756923076923,108.4673632432606L188.62480000000002,102.14762221328478L188.79452307692307,90.4009841854316L188.944,85.43148616402989L189.0883076923077,90.91382073811302L189.27784615384616,102.72966496400818L189.96836923076924,101.37729699545594L190.40775384615387,97.39715596896329L190.9083076923077,98.90240548170756L191.31753846153848,105.52549329415703L191.55618461538464,103.79458456319739L191.85384615384615,104.74533615107093L192.04036923076922,94.82766867201023L192.39273846153847,92.97233357306251L192.67273846153847,104.83239113907122L192.7843076923077,105.55687700175217L192.85538461538462,106.57956153430321L192.96738461538462,105.29904813606936L192.9716923076923,98.07854605665716L193.4343384615385,100.75145950017192L193.8284923076923,106.17477594022107L193.95901538461538,98.31636228141227L195.08030769230768,99.63776820017392L195.15827692307693,110.83158316408962L195.20867692307692,110.47381759781678L195.24184615384615,104.29086879605028L195.5494153846154,103.5769068159047L195.79753846153847,99.62184521356072L196.21926153846155,109.81033212314271L196.25716923076922,113.24752432978829L196.97526153846152,112.8926339299264L197.16092307692307,111.5077495231336L197.41938461538462,103.26728130359628L198.0297846153846,99.8913551518977L198.5505846153846,95.41735032605183L198.58332307692308,95.60591411020411L198.9356923076923,110.82831068563823L199.19630769230767,100.45373724645485L199.3953230769231,94.97654856888126L199.5952,89.90174957520549L200.19956923076924,93.25538570689864L200.25126153846153,97.60901244178947L200.4662153846154,89.56225943817384L200.66781538461538,87.64716465407636L201.12227692307692,100.41477624203635L201.29544615384617,112.88721212250793L201.3966769230769,102.62320392214754L201.40012307692305,105.01838864939779L201.61636923076924,103.07393733947444L201.99329230769231,102.35727295180808L202.2857846153846,100.7383520440119L202.56793846153846,116.93792394613372L202.98621538461538,118.35802989979585L203.00086153846155,112.81662660922787L203.3092923076923,102.88757820289133L203.42043076923076,93.1591185596687L203.83353846153847,97.43755744228643L203.95587692307694,98.22095346755805L204.50596923076924,108.44168214980976L204.50812307692306,112.75512674441467L204.75840000000002,115.30461494754438L205.13661538461537,107.05312532020561L205.16978461538463,100.98417472631414L205.37655384615385,101.39203329828516L205.56135384615385,98.07648810225108L205.85643076923077,105.65390570231526L205.8939076923077,112.95942873952103L206.02916923076924,108.10015590579421L206.6753230769231,102.17563382251814L206.69858461538462,99.0974439719055L206.72615384615386,102.16354109225527L206.85236923076926,98.30908771382491L206.9566153846154,106.42144882261425L207.44812307692308,101.56591906080266L207.53341538461538,103.06619336888238L207.61827692307693,101.91267146497181L208.19507692307693,103.91482680934192L208.64996923076924,105.21624931686182L208.7537846153846,114.63349671522255L209.01655384615384,113.37667277777965L209.06264615384617,106.16073206369042L209.08073846153846,108.58994915503996L209.3124923076923,107.49021542863741L210.2145230769231,97.0799603444683L210.4368,103.11633487076017L211.40603076923077,103.66053015038915L211.75452307692308,99.75824550417396L211.9096,108.23777537340504L211.9264,110.2683654290657L212.0328,107.89707251616187L212.07544615384617,114.79409792559066L212.0832,112.20552699127187L212.25550769230767,110.9152986547851L212.56953846153846,113.88863693018683L212.5928,111.75352534908555L213.03821538461537,101.22703282932993L213.24283076923075,106.79641627935177L213.2721230769231,111.25634869464074L213.5211076923077,104.58070715005083L214.16812307692308,114.0204238745753L214.55150769230767,106.53783681167809L214.65704615384615,99.6509205644294L214.81083076923076,97.76958542734172L214.9068923076923,101.471789094734L214.99735384615386,102.60465592157873L215.4276923076923,103.83105898235733L215.4419076923077,96.44062159477552L216.06996923076923,98.03705871875052L216.2104,91.1110237319494L216.3374769230769,100.85411697881592L216.5632,104.08752657545092L216.63255384615385,114.97824179546257L216.78246153846152,107.73159518977643L216.96984615384613,112.42642633619478L217.13310769230768,112.6988131423041L217.6819076923077,108.1622755874921L218.43058461538462,106.62737248944708L218.66363076923076,109.59618926085237L218.87470769230768,104.36545123642642L218.89753846153846,112.23137971804658L219.32744615384615,115.98498445397472L219.53335384615386,104.37328265694299L219.6992,101.08844180999169L219.97316923076923,89.73932723407184L220.1097230769231,98.40633429085483L220.2566153846154,106.05254772736157L220.6038153846154,110.26458758319987L220.96695384615387,111.93921625411582L220.9747076923077,123.07229091566083L221.48646153846155,118.48679906902211L222.2377230769231,117.40064272585374L222.5022153846154,112.1260596613079L222.5340923076923,102.76455675417668L222.5776,104.2854853973602L222.92996923076922,106.31240113845716L223.23021538461538,106.42298499182341L223.23926153846153,108.42766976887L223.4201846153846,108.833942455527L223.5804307692308,112.48598470618751L223.81261538461536,116.69184228162045L224.0857230769231,114.62599745673523L224.67286153846152,115.14698618114454L224.7702153846154,121.0160420504836L224.9128,107.27203827253207L224.98,102.92523109298592L225.02566153846155,103.06853117357501L225.07304615384618,96.03526421889339L226.1982153846154,102.32653278088107L226.56092307692307,100.28768696228526L226.61003076923075,105.20809853740087L226.70609230769233,101.6090349432247L226.8068923076923,103.15867765622026L226.90381538461537,115.52126522424193L226.9081230769231,108.7295262202274L227.08172307692308,112.96516875587358L227.49095384615384,105.43187394889215L227.5982153846154,100.63188796838425L227.60898461538463,103.60280821410268L227.72787692307693,106.56705491248148L227.78086153846152,108.11752296227604L228.0531076923077,121.80800567980371L228.31587692307693,118.61019443169144L228.4998153846154,106.28349269175749L228.63335384615385,104.69500179084132L228.69710769230767,115.51676008967479L228.70313846153846,117.21766509172441L228.73673846153847,109.95340999100877L230.26510769230768,105.59462674827854L230.2776,100.2979324883148L230.3249846153846,97.21335460102112L230.94701538461538,104.1159036803847L231.10812307692308,111.12515165120179L231.7672,114.97895118692136L231.94123076923077,115.2825220411934L232.55723076923076,109.91730179269263L232.63993846153846,106.59704288605704L232.66233846153847,109.24903029983825L232.92553846153845,106.20665303069975L233.4988923076923,113.30613105903157L234.2484307692308,107.57842267616827L234.28289230769232,117.22057183856671L234.48492307692308,103.01534181238522L235.21033846153847,112.60461989067596L235.7302769230769,117.98007394468166L236.16664615384616,116.75667442925908L236.2596923076923,121.48111642194309L236.36135384615383,112.62129309216289L237.0324923076923,112.90866546350752L237.31464615384616,112.94086182859722L237.33747692307693,112.93086976800123L237.45163076923077,109.70190799070018L237.86172307692306,108.15778971268853L237.99526153846153,113.00920140856793L238.2632,113.83850987892652L238.51175384615385,117.52461088438156L239.35218461538463,120.92606845559453L240.17366153846154,116.67790217273867L240.20036923076924,115.00366445552645L240.49501538461539,116.5644268414567L240.70953846153847,108.01729674790708L240.94,115.46904921975923L240.94043076923077,113.88738037289221L241.22603076923076,103.67002733650614L241.25273846153846,106.40536305315433L241.41298461538463,97.9621704616756L241.55169230769232,108.83019501396049L241.81747692307692,114.90576044792931L242.27107692307692,110.34714163044636L242.87673846153845,113.77029830959441L242.95815384615383,108.8200211190186L243.4070153846154,114.19902722344088L243.4169230769231,104.638975414015L243.4836923076923,107.04693224409218L243.84683076923076,104.62300171969645L243.8886153846154,108.69983202311208L244.02344615384615,112.99226847725618L244.6553846153846,113.71427177180624L244.82553846153846,114.24326027669015L244.84104615384615,118.25397443425254L244.85827692307694,117.50684402431546L244.91298461538463,115.87440060404238L244.94227692307692,115.34581564290971L245.66726153846153,112.52979026201645L246.80061538461538,116.47526794216635L246.8648,115.53353051974435L246.8678153846154,112.43899941605582L247.03193846153846,106.60225997067843L247.53033846153846,112.09112163168247L247.5777230769231,116.24610305352792L247.77932307692308,99.27684076361311L248.78603076923076,102.46750932447308L249.15175384615384,115.2554307919384L249.20775384615385,120.7288531691272L249.33655384615383,115.46412008531982L249.3873846153846,116.10184572437083L249.452,122.13838758321535L249.48000000000002,119.67289622305267L249.8142769230769,111.86697948437538L249.86812307692307,107.4096679519944L250.23815384615384,104.53623472422176L250.42381538461538,116.25506668874777L250.7865230769231,112.49595669263094L250.84726153846154,116.2996868203382L250.88947692307693,123.83706355427236L251.01052307692305,118.8945314904126L251.11476923076924,116.0045120467966L251.38572307692306,114.54094923871472L251.46886153846154,116.6177231326509L251.65796923076923,121.80771566739351L252.31876923076925,120.9106157944513L252.42086153846154,118.18102036598071L252.49495384615383,126.32304921882275L252.63323076923078,118.90405578098849L252.8051076923077,118.13517755026365L252.8344,120.23180513994386L253.4926153846154,123.0552822132443L253.85704615384617,113.25173183557595L253.90529230769232,115.9277028295394L253.91132307692308,110.91328848807896L254.0539076923077,112.7491333156812L254.3227076923077,112.88358298415416L254.6475076923077,121.36308319905635L255.02356923076923,116.92947659651344L255.2492923076923,118.38380591834618L255.56375384615387,114.78910214273247L256.14916923076925,110.20048059563705L256.46147692307693,111.89203582511685L256.89784615384616,112.31292982609152L257.0550769230769,123.06622933952474L257.1787076923077,117.64578960358722L257.56941538461535,120.95568556038671L258.00836923076923,121.9300486493812L258.1220923076923,118.77018359539596L258.4611076923077,120.52401978081713" style="fill: none;" fill="none"></path></g></g></g></g><g opacity="0.2"><g><g><g><path stroke="rgb(0, 119, 187)" stroke-width="2px" d="M26.497046153846156,-14.409381346269043L26.684861538461536,13.660621339624612L27.07556923076923,-10.01711940765378L27.89316923076923,-18.13472843170163L28.468246153846152,12.64114392887464L28.786584615384612,-3.583639188246252L28.984307692307695,-3.2999011386524444L29.08166153846154,17.313077363100945L29.983261538461537,0.9641876220703409L30.164615384615384,21.86025199023163L30.370092307692307,41.1166511015459L30.386461538461536,9.720168893987505L30.505784615384616,-3.167047587307991L30.602707692307693,33.803529219193905L30.629846153846152,24.914771123365966L30.70523076923077,29.339987494728803L31.139876923076923,41.4657225608826L31.15193846153846,60.069439757954015L31.550830769230767,46.23579038273206L31.58313846153846,17.096667636524558L31.611569230769234,37.05765477093786L31.716246153846154,23.757798151536434L31.7296,6.751431031660644L31.92129230769231,37.06728406385943L31.996676923076922,20.52872410687536L32.170707692307694,28.025646556507468L32.259446153846156,28.0922843326222L32.396861538461536,34.65144408832899L33.060676923076926,74.72530031204225L33.995015384615385,50.81051015853883L34.00621538461539,50.266320835460334L34.364184615384616,24.003863031213967L34.70104615384615,37.012078675356804L34.74153846153846,27.372619368813275L35.05815384615384,59.615213350816234L35.27009230769231,33.86690607937902L35.485046153846156,35.52483246543193L35.80553846153846,67.04726275530732L36.04461538461538,34.12689698826185L36.04978461538462,65.25686645507814L36.0652923076923,71.89543910460041L36.08855384615385,90.73210079019722L36.104492307692304,54.34142992713237L36.12043076923077,53.977895346554874L36.31341538461538,47.48598718643191L36.38363076923077,77.94328724254264L36.4155076923077,42.27880317514595L36.79544615384615,73.06921538439667L36.997476923076924,55.415383815765395L37.03366153846154,75.44945383071901L37.28824615384616,52.03224108435893L37.30116923076923,60.26137343319981L37.38301538461538,70.3707115433433L37.65784615384615,77.15126830881294L37.77630769230769,50.20551434430213L37.82412307692308,58.35181942853062L38.187261538461534,46.18952374024829L38.23895384615385,83.58256179636177L38.434953846153846,39.97882162440908L38.60941538461539,52.88955506411469L39.07852307692308,51.98846808346839L39.284,70.48177450353452L39.655323076923075,57.36330153725366L39.79876923076923,77.64094279029155L40.30233846153846,89.82944089716133L40.33335384615385,59.71917902339591L40.4544,50.081829721277444L40.54356923076923,52.44545667821714L40.56553846153846,58.51352249492301L40.58836923076923,86.04002640464091L40.80849230769231,102.26699625362052L40.87181538461539,78.77159825238316L41.047569230769234,126.59016817266293L41.10529230769231,93.33281551707877L41.170338461538456,66.51396872780542L41.46110769230769,26.42729902267459L41.49513846153847,52.385801098563476L42.06720000000001,35.687226078727036L42.16455384615385,75.9899986006997L42.25501538461538,77.6116712743586L42.72412307692308,45.64744442159483L43.06141538461539,97.61382267691874L43.38966153846154,83.97402516278355L43.52492307692307,98.77102583104916L43.56498461538461,74.7553391023116L43.810523076923076,83.46225318041718L44.28695384615385,83.53690897334708L44.366646153846155,61.5995766032826L44.528615384615385,85.49457107890738L44.697907692307695,77.97390148856425L45.761907692307695,87.45518719066276L45.84116923076923,91.29205760088837L45.96953846153846,57.133157600056066L46.78627692307692,88.55177567221904L46.79790769230769,109.68511962890626L46.805230769230775,107.14647739583798L47.41390769230769,62.16348487680611L47.4164923076923,87.5866596482017L47.541415384615384,93.48362328789453L48.25692307692307,86.25336703387177L48.91556923076923,70.32701526988639L49.28086153846154,90.17091634056787L49.76332307692307,72.3611362630671L50.25526153846153,84.71256507526746L50.35606153846153,65.31356802853672L50.536123076923076,79.40199084715412L51.286523076923075,50.45464832132515L51.4024,111.09191712466155L51.51612307692308,85.02131626822734L51.600123076923076,78.28959651426838L51.83532307692308,83.03085318478672L51.886153846153846,97.67470589551061L51.91889230769231,84.16971848227763L52.06492307692308,81.51118963414976L52.25058461538462,94.9272115880793L52.45649230769231,82.27044595371595L52.47803076923077,111.29290463707666L52.48750769230769,69.1777150414207L52.50172307692308,96.21627083691686L52.80756923076923,104.15468293970284L52.93076923076923,85.74167177893901L53.99606153846154,62.951513983986615L54.310523076923076,84.90242710980503L54.60603076923077,101.37342856147075L55.16603076923077,93.93712078441276L55.47230769230769,90.84953212738039L55.49513846153846,128.96829661456024L55.50849230769231,104.97957957874647L56.10424615384615,102.59845876693727L56.19987692307692,117.43750606883658L56.36486153846154,80.72373598272154L56.373046153846154,97.05018294941297L57.34141538461538,96.74695613167505L57.83206153846154,153.4879291274331L57.914769230769224,91.99434380097824L58.124553846153844,92.45750895413488L58.522584615384616,97.15936608748004L58.85169230769231,79.91552756049418L58.8883076923077,87.23954473842277L58.9499076923077,120.91018971529876L59.115323076923076,79.23395776748659L59.43538461538461,106.84309712323278L59.66627692307693,106.03227996826173L59.95532307692308,114.44133814898406L59.962215384615384,99.8560668338429L60.224553846153846,110.98706908659503L60.33827692307692,122.10211203315043L60.79532307692308,110.16063789887863L60.934461538461534,97.41452316804367L60.94436923076923,107.64551262422043L61.1476923076923,96.02429879795423L61.62196923076923,92.2724807479165L61.7288,104.79485828226265L61.9136,107.60845327377321L62.293107692307686,108.11477760835129L62.41070769230769,143.3721075491472L62.548123076923076,89.40705637498337L62.59249230769231,99.70188305594706L62.945292307692306,94.53900913758713L63.66984615384616,132.30371488224378L63.879630769230765,128.77989240126178L64.12947692307692,83.27818406711927L64.48615384615384,99.50358100370929L64.90486153846153,78.93709932674064L64.99704615384616,98.37215826728129L65.10990769230769,121.16634425249968L65.36276923076923,115.01192170923409L65.37138461538461,109.17146782441574L65.77415384615385,111.43745912205091L65.7875076923077,80.2939856269143L65.8112,125.10591433264995L65.82627692307692,104.73182669552892L65.83058461538461,118.37327384948733L66.23292307692307,88.58883502266626L66.37464615384616,104.81615014509723L66.39963076923077,79.6270707737316L66.64129230769231,89.88395573876123L66.65335384615385,134.10980194265193L66.87261538461539,112.16936211152512L67.01864615384615,72.79330353303392L67.23058461538461,102.9744999191978L67.35938461538461,82.32983298735188L67.9056,99.28755491430111L68.22781538461538,94.19960533488883L68.93212307692308,111.45698625391182L69.01526153846153,90.49382374503398L69.11132307692307,116.81747167760678L69.40467692307692,92.59377687627621L69.56578461538462,99.41914246299052L70.08356923076923,103.24181829799308L70.26406153846155,123.20100233771586L70.44412307692308,124.58815761045977L71.02695384615384,98.47105992924085L71.20313846153846,106.18136137182064L71.20830769230768,128.56777941096914L71.36295384615384,71.07023555582222L71.70498461538462,95.44473812796855L71.72135384615385,115.65670069781218L71.75236923076923,83.38452829014173L71.86566153846154,102.37733030319215L72.11852307692307,126.98270572315565L72.20036923076923,77.54250149293381L72.35716923076923,101.5427276437933L73.64775384615385,86.5709035179832L73.64818461538462,116.9275755448775L73.70806153846154,85.46959629925816L73.73864615384616,67.9714446934787L73.92430769230769,106.33569860458375L74.0836923076923,102.03412849252877L74.26289230769231,132.21409723975444L74.26806153846154,118.99637733806266L74.94006153846153,86.09803234447135L75.41003076923076,86.5940368392251L76.3784,105.571685184132L77.14172307692307,132.79066553982824L77.17963076923077,111.01538150960751L77.22098461538462,141.90688211267647L77.46566153846153,97.02424907684328L78.15747692307693,133.95143651962283L78.2419076923077,125.80102651769467L79.09483076923077,91.75326620448722L79.31667692307693,132.05899273265493L79.32227692307693,107.96803639151835L79.35889230769232,102.84302746165885L79.53206153846153,116.64080676165496L79.84953846153846,99.027832551436L80.10498461538461,124.87089820341632L80.30443076923076,95.69839902357623L80.30658461538461,128.49500344016337L80.46855384615384,119.40541128678757L80.68781538461539,111.25385037335485L81.27883076923078,116.60482159527866L81.41581538461539,109.90651663866912L81.47827692307692,116.29204221205279L81.4980923076923,120.48350845683707L81.72424615384615,103.89929567683829L81.74147692307692,103.07232739708643L81.7587076923077,85.23032179745762L81.79101538461538,114.09675524451518L82.05723076923077,70.60450003363871L82.16018461538462,102.22115161202173L82.26012307692308,131.46473875912756L82.54701538461538,97.07412190870807L82.9179076923077,116.49701955101708L82.9782153846154,111.1111373467879L83.55199999999999,95.20312343944205L83.57741538461538,136.9119261828336L83.62867692307692,105.26508235931398L84.44886153846154,104.99415779113771L84.61384615384615,126.49030741778289L84.95587692307691,127.93128698522396L85.43446153846155,102.05361726067285L85.46418461538461,104.97977139733057L85.4659076923077,124.27150349183518L85.8984,115.40534162521365L85.98541538461538,107.88490221717143L86.36061538461539,113.55659411170268L86.40584615384614,88.88941474394366L86.48252307692307,105.69003725051881L86.50406153846154,129.80945946953514L86.52172307692307,130.4044807173989L86.56221538461539,115.40821890397507L86.58332307692308,102.3729568394748L86.69790769230768,118.6049906990745L87.11963076923077,129.80481745980003L87.22387692307692,115.84548854827884L88.26590769230769,113.55578847364947L88.43563076923077,125.46012653004041L88.49421538461539,135.76139831542972L88.50067692307692,103.61068543520844L88.89483076923078,130.20591011914343L89.1003076923077,127.39346603913742L89.22953846153847,118.71474929289386L89.31224615384615,108.11892088976775L90.07987692307691,122.44009637832644L90.23926153846155,146.47596242211083L90.42104615384615,108.24943425438623L90.44258461538462,114.5802148038691L90.51667692307691,112.69214448061858L90.83286153846153,127.16282337362118L90.84492307692307,122.47876700488005L90.92073846153846,89.14261527494952L91.17273846153846,112.02664908495818L91.28301538461538,127.35410486568107L91.44498461538461,134.86445461619985L91.53372307692308,101.99323277039963L91.75169230769231,117.00372752276336L92.3216,90.92752556367356L92.68344615384616,108.56873546947135L92.74073846153846,102.3170609040694L92.82818461538461,120.21879881078549L93.44461538461537,125.32500951940365L93.5144,140.52076266028666L93.62123076923078,137.08529181913897L93.7900923076923,100.19435808875346L94.34320000000001,120.42377614974978L94.44227692307693,118.3822893229398L94.57969230769231,132.76315875486895L94.61803076923076,111.03978083350444L94.71495384615385,124.71498805826363L94.84676923076923,129.94139229167592L95.33052307692309,94.8024911447005L95.34732307692309,121.23992586135867L95.35163076923077,124.3174248608676L95.91206153846154,138.83302766626534L95.96418461538462,142.0075485056097L95.99864615384615,115.77735458720817L96.1632,133.75010373375633L96.24418461538463,120.15898977626456L96.63230769230769,151.2126154466109L97.46455384615385,113.4133823568171L97.97803076923077,132.42367822473702L98.15636923076923,151.19757686961782L98.35796923076923,130.4675890315663L98.37519999999999,114.56912768970838L98.58800000000001,115.27003279599279L98.91926153846154,137.6930498209867L99.06916923076923,116.44994727048008L99.38492307692307,132.38523778048432L99.41033846153846,111.27391459725122L99.63735384615384,127.73494148254397L99.83120000000001,116.53818381916395L100.15298461538461,121.73416562513873L100.19950769230769,138.72944563085383L100.20166153846155,131.633002021096L100.34036923076923,116.22636352885856L100.4808,125.84783025221392L100.97403076923077,141.0959882302718L101.10843076923078,130.94966749711472L101.51593846153845,127.76455827192828L101.6132923076923,157.47875313325363L101.98246153846154,91.56198471242733L102.004,115.60161040046L102.2336,99.34172448244965L102.34904615384616,112.46349672837692L102.36886153846154,131.81415549191564L102.91507692307692,152.74616666273639L102.94221538461538,112.04732712832366L103.20455384615384,133.48781100186437L103.37901538461539,133.59193012931132L103.42338461538462,137.00369219346481L104.18584615384614,137.63101569089025L105.22055384615385,122.77201925624503L105.51132307692308,140.5266706726768L105.55526153846154,112.87118794701318L105.64959999999999,122.08400435881182L106.1256,128.04998432506216L106.14713846153846,111.44693496010522L106.7596923076923,147.32901802929968L107.03926153846155,116.37697948109022L107.04098461538462,129.11641892519867L107.22664615384616,133.0245691212741L107.38775384615384,145.61918553439057L107.62381538461538,141.6134380427274L108.13556923076924,163.92600592699918L108.30098461538462,127.60400611704048L108.35870769230769,124.86015636270699L110.1606153846154,134.94010786576706L110.56467692307692,118.0038696202365L110.80504615384616,136.49602512879807L111.29483076923077,116.66980973157017L111.37452307692307,153.93624752218074L111.82769230769232,123.56626328555022L111.91513846153846,134.6446688825434L112.36658461538461,126.50569126822734L112.56215384615385,124.83951668305832L113.16566153846153,127.41821063648572L113.19839999999999,149.14013073661113L113.49563076923077,136.96536684036258L113.60461538461539,133.54689112576574L114.12455384615384,148.14067918604073L114.39249230769231,147.68338368155742L114.42264615384616,141.53751624714246L114.43513846153846,145.31622726267037L115.21569230769231,146.38561586900192L115.36732307692307,107.39967792684384L115.37723076923078,130.82302886789498L115.92387692307693,122.35811311548409L116.04233846153846,140.62472833286634L116.07292307692308,125.34891011498192L116.24652307692308,123.66063802892513L116.49249230769232,115.71570409427991L116.67858461538462,147.65142670544714L117.01156923076924,133.7554362903942L117.65341538461539,147.20299321954903L118.21600000000001,98.6059467575767L118.37021538461538,136.5614736296914L118.81864615384616,122.34088780663231L118.86086153846153,148.64144078168005L118.86603076923076,114.42031483216721L119.31920000000001,143.10682244734332L119.55741538461538,122.6170682040128L119.55827692307693,121.5598792596297L119.64615384615385,145.3595398989591L119.8232,147.1806271726435L119.82449230769231,154.02521298148417L120.00196923076922,136.57048910314387L120.12732307692308,128.9360710924322L120.19323076923077,162.44869591973045L120.2488,149.58488130569458L120.53698461538463,162.39398925954646L120.87212307692307,132.98144830356946L121.3184,129.55480111729017L121.36707692307692,153.3386559052901L121.37483076923077,138.13323510776868L121.4795076923077,147.98315776478162L121.9244923076923,159.2381899140098L121.93095384615386,148.06690575859764L121.99427692307692,150.77737907929856L122.0700923076923,151.69657373428345L122.12523076923077,132.15835475921634L122.34923076923077,149.27712756937203L122.54652307692308,130.87892480330035L122.6076923076923,148.62594184008515L122.6748923076923,119.59381550008602L122.71538461538461,138.18932286175817L123.40203076923076,131.21775315024638L123.89224615384614,116.32453628019854L124.13649230769231,129.2909354730086L124.22221538461538,152.4679913520813L124.4475076923077,147.9137194373391L124.77273846153847,160.38921650973236L125.39046153846154,169.7418686693365L125.43267692307693,133.86922307447955L125.61963076923078,140.10428615049884L125.73895384615385,141.8413568843495L126.26750769230769,164.95630190589213L126.83913846153845,131.67067519101232L127.18892307692307,149.35558137026703L127.33366153846154,138.09310665997594L127.71575384615385,148.26505435596815L127.96000000000001,150.5209559960799L128.04055384615384,128.34319821271032L128.29772307692306,154.31447540629995L128.58461538461538,140.36822852221405L128.89261538461537,138.47954437949443L129.04209230769231,156.30716358531606L129.136,135.5090801499107L129.40566153846154,149.50800041718918L129.59907692307692,140.2516795505177L129.7606153846154,162.4826094453985L129.80412307692308,155.51050264185128L129.80972307692306,132.76473166725853L129.92043076923076,159.93694665215233L130.0376,139.5445211583918L130.14356923076923,137.447445305911L130.40763076923076,169.64979574897075L130.51058461538463,144.93473846262154L130.87803076923078,147.42496568506417L130.93316923076924,135.4813431826505L131.01027692307693,142.9842503721064L131.0486153846154,129.86201776157728L131.3803076923077,143.0128313411366L131.60947692307693,142.43680013309827L131.92566153846153,148.97025619853628L132.0182769230769,147.21243069388652L132.49815384615385,139.13610102913597L132.56061538461537,151.11613069881093L132.62221538461537,146.83608263189143L132.71612307692308,133.32587775317108L132.88412307692306,157.15630609338936L132.9496,144.48753261566162L132.95433846153847,152.67891506715256L133.21796923076923,154.30181537974966L133.34676923076924,154.84554433822632L133.42258461538464,143.61740515448832L133.56,148.40508192235774L133.74135384615386,154.00027656555176L134.3315076923077,155.01304032585838L134.41163076923078,167.79962877793747L134.44867692307693,148.5198661630804L134.55852307692308,150.75535830584442L135.02892307692306,175.69223460284147L135.14264615384616,156.17032020742244L135.46443076923077,159.050706429915L135.5984,159.2105680379001L135.74012307692308,160.9906061345881L135.77975384615385,128.89832119508225L136.6878153846154,161.9036242311651L136.68867692307694,156.98301718451762L136.72701538461538,160.91096305847168L137.0668923076923,139.37798426368022L137.0793846153846,119.98136576739226L137.31846153846152,143.18378006328237L137.7780923076923,141.6496533914046L138.1016,81.49020468104972L138.21704615384616,103.2613837935708L138.2988923076923,119.70211627266625L138.35618461538462,114.75269807468763L138.516,95.68811754746872L138.73827692307694,110.30227674137464L138.85458461538462,113.80081753297287L139.0294769230769,102.51003039966932L139.11003076923078,114.37243691357702L140.16929230769233,97.67202043533327L140.17058461538463,105.5817748416554L140.2227076923077,119.70311372930355L140.75643076923075,85.2729438868436L141.04547692307693,93.42005460912533L141.60763076923078,82.27930797230115L141.6644923076923,92.72570969841699L141.73729230769231,80.91014528274538L141.9195076923077,106.89454286748715L141.9233846153846,102.3460255102678L141.93200000000002,98.28119789470328L142.09913846153847,100.88808917999269L142.34123076923075,92.79871585152368L142.41230769230768,105.64626424962826L142.53507692307693,91.58952986110343L142.69575384615385,82.28955108469185L142.80689230769232,127.02202853289519L142.8784,68.22710050236097L143.1049846153846,105.78609999743377L143.2859076923077,68.4164638085799L143.73993846153846,84.97635399211539L143.99667692307693,64.77847090634434L144.24738461538462,69.13317476619376L144.52738461538462,93.89538106051361L145.0288,112.1783775849776L145.21446153846156,84.62943090092054L145.21790769230768,68.22997778112241L145.32215384615384,89.50177639180966L145.91316923076923,86.37240964716133L145.9889846153846,96.14376341212882L146.12467692307692,96.08065509796144L146.17292307692307,87.98947867480194L146.43956923076922,94.58450850573456L146.7971076923077,103.0926218032837L147.7435076923077,95.20454289696436L148.09113846153846,98.96422550895L148.16652307692308,81.06264105710117L148.7713230769231,86.36162944273518L148.84240000000003,81.52814639698377L149.40498461538462,95.53401049700653L150.03692307692307,78.38704035498881L150.06363076923077,63.59429805929014L150.38843076923075,85.09716133637863L150.52455384615385,79.86135799234566L151.0531076923077,96.52344911748715L151.10393846153846,102.40529745275326L151.17286153846155,100.74863706935538L151.18793846153847,87.14800891009247L151.53255384615383,109.11173551732846L151.7910153846154,88.18789581819016L151.81815384615385,103.54285838387231L152.0641230769231,100.91356268796056L152.47593846153845,98.2313250628385L152.5857846153846,96.49636433341288L153.02646153846152,90.40217282555322L153.5433846153846,82.5244137590582L153.87206153846154,107.51131634278732L154.3622769230769,74.1610851287842L154.55353846153844,84.1091038097035L154.61944615384616,84.31553896990692L154.93692307692308,95.8351273103194L154.94424615384617,80.63991126147187L155.00972307692308,72.43111168254508L155.02178461538463,93.10067666660657L155.1721230769231,101.97412763942374L155.7502153846154,108.71398050134835L156.15815384615385,103.59438085556032L156.2300923076923,78.33218023993754L156.65224615384616,89.84850766442041L156.72504615384614,118.96039217168637L156.89089230769233,84.61423886906019L157.26824615384615,67.82746566425672L157.44873846153845,129.69421486421066L157.7097846153846,89.14484037052503L158.35507692307692,93.83507329767403L158.4881846153846,76.71138993176548L158.66135384615384,83.0348046476191L158.8414153846154,84.41340481151236L158.96332307692307,85.47692376917061L159.10246153846154,99.2871329134161L159.32,88.44389690052381L159.35101538461538,89.69301952015272L159.46646153846154,115.9492624022744L159.51341538461537,106.29522488333964L159.66504615384616,99.64982349222359L159.71415384615383,73.48803208091044L159.74387692307693,81.471061186357L159.75593846153845,94.99615118720317L159.93987692307692,91.27467883716932L160.37236923076924,88.06509356065231L160.63858461538462,111.5211303884333L160.65624615384615,108.28511251102796L161.196,97.09779232198544L161.36141538461538,93.8119016127153L161.5220923076923,74.04292488098146L162.21606153846156,102.66524999791928L162.80147692307693,84.52907141772187L163.01858461538464,92.69950727982956L163.0190153846154,72.79679463126445L163.23655384615384,95.10936251553625L163.52043076923076,92.96379492499614L163.66516923076924,69.4824764078314L163.7875076923077,97.52128939195114L164.0619076923077,68.27762551741169L164.34923076923076,88.48790008371529L164.48319999999998,87.04745760830967L164.4948307692308,103.33197303251788L164.55987692307693,100.3213803551414L164.6158769230769,82.1526309793646L164.81446153846153,118.17834780432963L165.04535384615386,97.77341573888607L165.07464615384615,84.32259789380161L165.2633230769231,83.3223023414612L165.55495384615384,78.40039092844185L165.55753846153846,121.726262699474L165.57003076923075,103.47948152368721L166.06412307692307,76.17326207594441L166.3897846153846,92.45877495678991L166.39366153846154,86.41349718787455L166.53624615384615,99.97119634801693L167.38916923076923,95.02058887481691L167.40123076923078,91.45533357967032L167.46756923076924,108.1644969853488L168.70215384615383,97.89786763624713L168.72196923076922,106.05464601516725L168.72756923076923,93.69730919057675L169.2625846153846,88.06494010578504L169.29876923076924,97.62771034240724L169.88116923076922,74.29416886242954L169.8940923076923,99.83987734534526L169.97464615384615,102.70745008642025L170.2145846153846,107.71851877732712L170.26326153846153,59.70440899242057L171.00246153846155,98.44428205490114L171.4638153846154,97.28665689988571L171.61716923076924,87.56797651811081L171.78215384615385,92.98800243030897L171.96695384615384,111.96319549733944L173.3454153846154,85.7481168833646L173.37470769230768,94.53770477121529L173.37686153846155,79.65150846134534L173.62283076923077,92.61096382141115L175.12276923076922,88.15014592084019L175.65175384615384,108.08243699507281L175.72024615384615,100.65648742155597L175.75384615384615,102.88522755015983L175.7684923076923,123.44580121473834L175.93476923076923,128.10085461356425L176.03126153846154,77.3252094008706L176.27852307692308,81.31403849341655L176.45384615384617,83.18434641577983L176.68732307692306,98.45057370445947L176.73729230769231,79.42236198078504L176.87729230769233,75.64652824401857L177.02633846153844,121.58427858352664L177.3377846153846,82.91787203875458L177.3731076923077,119.47335342927414L177.55833846153845,125.43653284419669L177.86030769230769,99.70057868957521L178.4078153846154,61.003250989046975L178.59519999999998,97.72220017693262L178.60726153846153,81.36970424652101L178.85193846153848,74.65778017044069L179.49723076923078,99.72037436745386L180.12012307692308,97.40539260344073L180.29415384615385,84.35685669292106L180.71716923076923,80.56709692694926L180.84467692307692,92.41197122227064L181.20393846153846,83.82958576895976L181.32756923076923,72.83665453303946L181.38227692307692,106.60397607629952L181.4094153846154,91.82934145493942L181.58646153846152,107.14072283831511L182.48978461538462,119.19590702923863L182.73015384615385,105.96280327710241L182.93175384615384,98.62432297793305L183.01575384615387,114.1496971737255L183.10449230769228,84.56551694869997L183.22984615384615,93.90727381272751L183.83895384615386,94.12579354372895L183.90141538461538,108.70811085267502L183.9750769230769,114.43826905163854L184.0134153846154,111.01653242111207L184.25163076923076,96.08510528911246L184.3830153846154,99.11434273286301L185.0296,121.80970378355548L185.06966153846153,68.2384561625394L185.30744615384614,87.44693899154665L185.42203076923076,101.49331517653033L185.8540923076923,86.64513731002809L186.0931692307692,84.57587515224112L186.2766769230769,115.26155441457577L186.39556923076924,101.17489632693207L186.48516923076923,92.93824468959464L186.78843076923076,75.39658862894234L186.79316923076922,94.74122428894044L187.26055384615384,116.33957485719162L187.51169230769233,110.73049254850909L187.61766153846153,89.61985991217875L187.7748923076923,105.20262622833253L187.84036923076923,112.62777016379619L187.91963076923076,99.76556682586671L188.43138461538462,111.49523487958044L188.4585230769231,93.78286027908327L188.5756923076923,118.90610751238738L188.62480000000002,92.6680106683211L188.79452307692307,72.78102714365181L188.944,77.9772391319275L189.0883076923077,99.13732259923763L189.27784615384616,120.45343130285092L189.96836923076924,99.34874504262753L190.40775384615387,91.4269444292242L190.9083076923077,101.16027975082399L191.31753846153848,115.46012501283127L191.55618461538464,101.19822146675806L191.85384615384615,106.17146353288132L192.04036923076922,79.9511674534191L192.39273846153847,90.18933092464103L192.67273846153847,122.62247748808429L192.7843076923077,106.64360579577361L192.85538461538462,108.1135883331299L192.96738461538462,103.3782780387185L192.9716923076923,87.24779293753886L193.4343384615385,104.76082966544413L193.8284923076923,114.30975060029465L193.95901538461538,86.52874179319905L195.08030769230768,101.61987707831645L195.15827692307693,127.62230560996318L195.20867692307692,109.93716924840756L195.24184615384615,95.01644559340045L195.5494153846154,102.5059638456865L195.79753846153847,93.68925281004474L196.21926153846155,125.09306248751555L196.25716923076922,118.40331263975665L196.97526153846152,112.36029833013363L197.16092307692307,109.43042291294446L197.41938461538462,90.90657897429034L198.0297846153846,94.82746592434972L198.5505846153846,88.70634308728307L198.58332307692308,95.88875978643246L198.9356923076923,133.6619055487893L199.19630769230767,84.89187708767979L199.3953230769231,86.76076555252077L199.5952,82.28955108469185L200.19956923076924,98.28583990443839L200.25126153846153,104.13945254412567L200.4662153846154,77.49212993275037L200.66781538461538,84.77452247793028L201.12227692307692,119.56619362397629L201.29544615384617,131.59586594321513L201.3966769230769,87.22719162160703L201.40012307692305,108.61116574027324L201.61636923076924,100.15726037458941L201.99329230769231,101.28227637030864L202.2857846153846,98.30997068231758L202.56793846153846,141.2372817993164L202.98621538461538,120.48818883028899L203.00086153846155,104.50452167337593L203.3092923076923,87.99400559338658L203.42043076923076,78.56642909483479L203.83353846153847,103.85521576621318L203.95587692307694,99.39604750546545L204.50596923076924,123.77277517318728L204.50812307692306,119.22529363632205L204.75840000000002,119.1288472522389L205.13661538461537,94.67589087919757L205.16978461538463,91.880748835477L205.37655384615385,102.0038211562417L205.56135384615385,93.10317030819982L205.85643076923077,117.02003210241146L205.8939076923077,123.91771329532972L206.02916923076924,100.8112466552041L206.6753230769231,93.28885069760412L206.69858461538462,94.48015919598669L206.72615384615386,106.76268677278L206.85236923076926,92.52740764617921L206.9566153846154,118.58999048579825L207.44812307692308,94.28262441808529L207.53341538461538,105.316604831002L207.61827692307693,100.18238860910591L208.19507692307693,106.91805982589723L208.64996923076924,107.16838307814166L208.7537846153846,128.75936781276357L209.01655384615384,111.49143687161535L209.06264615384617,95.33682099255651L209.08073846153846,112.23377479206434L209.3124923076923,105.84061483903366L210.2145230769231,81.46457771821457L210.4368,112.17089666019788L211.40603076923077,104.47682306983256L211.75452307692308,93.90481853485109L211.9096,120.95707017725167L211.9264,113.31425051255661L212.0328,104.34013314680621L212.07544615384617,125.13963603973392L212.0832,108.32267058979383L212.25550769230767,108.97995615005495L212.56953846153846,118.34864434328948L212.5928,108.55085797743365L213.03821538461537,85.4372940496965L213.24283076923075,115.15049145438456L213.2721230769231,117.94624731757426L213.5211076923077,94.56724483316597L214.16812307692308,128.179998961362L214.55150769230767,95.31395621733233L214.65704615384615,89.32054619355637L214.81083076923076,94.94758272171022L214.9068923076923,107.02509459582244L214.99735384615386,104.30395616184583L215.4276923076923,105.67066357352519L215.4419076923077,85.35496551340279L216.06996923076923,100.43171440471305L216.2104,80.72197125174785L216.3374769230769,115.46875684911556L216.5632,108.93764097040352L216.63255384615385,131.31431462547997L216.78246153846152,96.86162528124726L216.96984615384613,119.46867305582222L217.13310769230768,113.10739335146819L217.6819076923077,101.35746925527401L218.43058461538462,104.32501784237951L218.66363076923076,114.04941441796043L218.87470769230768,96.51934419978751L218.89753846153846,124.03027244047686L219.32744615384615,121.6153915578669L219.53335384615386,86.95572996139528L219.6992,96.16118053956467L219.97316923076923,72.71565537019212L220.1097230769231,111.4068448760293L220.2566153846154,117.52186788212171L220.6038153846154,116.58264736695725L220.96695384615387,114.45115926048973L220.9747076923077,139.77190290797841L221.48646153846155,111.60856129906396L222.2377230769231,115.7714082111012L222.5022153846154,104.21418506448921L222.5340923076923,88.7223023934798L222.5776,106.56687836213547L222.92996923076922,109.35277475010267L223.23021538461538,106.5888607718728L223.23926153846153,111.43469693443994L223.4201846153846,109.4433514855125L223.5804307692308,117.96404808217831L223.81261538461536,123.00062864476986L224.0857230769231,111.52723021940753L224.67286153846152,115.92846926775847L224.7702153846154,129.81962585449222L224.9128,86.65603260560471L224.98,96.40502032366669L225.02566153846155,103.28348129445858L225.07304615384618,85.4853637868708L226.1982153846154,111.76343562386255L226.56092307692307,97.22941823439166L226.61003076923075,112.58871590007438L226.70609230769233,96.21043955196036L226.8068923076923,105.48314172571358L226.90381538461537,134.06514657627454L226.9081230769231,98.54191771420568L227.08172307692308,119.31863255934283L227.49095384615384,94.13193173841998L227.5982153846154,93.43190899762243L227.60898461538463,108.05918858268046L227.72787692307693,111.01342496004973L227.78086153846152,110.4432250369679L228.0531076923077,142.3437297560952L228.31587692307693,113.81347755952316L228.4998153846154,87.79344008185649L228.63335384615385,102.31226543946701L228.69710769230767,131.74939753792503L228.70313846153846,119.76902259479871L228.73673846153847,99.05702733993532L230.26510769230768,99.05645188418305L230.2776,92.35289109836927L230.3249846153846,92.58648777008058L230.94701538461538,114.46972729943016L231.10812307692308,121.63902360742745L231.7672,120.75965049050072L231.94123076923077,115.73787832260135L232.55723076923076,101.86947141994132L232.63993846153846,101.61665452610364L232.66233846153847,113.22701142051005L232.92553846153845,101.64308712699199L233.4988923076923,123.95534810152922L234.2484307692308,98.98686010187325L234.28289230769232,131.68379558216444L234.48492307692308,81.70749677311292L235.21033846153847,126.98853700811215L235.7302769230769,126.04325502569027L236.16664615384616,114.92157515612517L236.2596923076923,128.56777941096914L236.36135384615383,99.33155809749259L237.0324923076923,113.33972402052447L237.31464615384616,112.98915637623182L237.33747692307693,112.9158816771074L237.45163076923077,104.85846532474866L237.86172307692306,105.84161229567096L237.99526153846153,120.28631895238705L238.2632,115.08247258446434L238.51175384615385,123.05376239256427L239.35218461538463,126.02825481241402L240.17366153846154,110.30565274845472L240.20036923076924,112.49230787970805L240.49501538461539,118.9055704203519L240.70953846153847,95.1966016075828L240.94,126.64667792753741L240.94043076923077,111.5148771025918L241.22603076923076,88.34399778192696L241.25273846153846,110.50836662812668L241.41298461538463,85.29738157445738L241.55169230769232,125.13223184238782L241.81747692307692,124.01910859888253L242.27107692307692,103.50921340422198L242.87673846153845,118.90503332831645L242.95815384615383,101.39460533315487L243.4070153846154,122.26753638007426L243.4169230769231,90.29889769987628L243.4836923076923,110.65886748920789L243.84683076923076,100.98710593310273L243.8886153846154,114.81507747823544L244.02344615384615,119.43092315847225L244.6553846153846,114.79727671363139L244.82553846153846,115.03674303401603L244.84104615384615,124.27004567059605L244.85827692307694,116.38614840940997L244.91298461538463,113.42573547363284L244.94227692307692,114.55293820121074L245.66726153846153,108.30575219067663L246.80061538461538,122.39348446239127L246.8648,114.1209243861112L246.8678153846154,107.79720276052304L247.03193846153846,97.84715080261232L247.53033846153846,120.32441412318839L247.5777230769231,122.47857518629596L247.77932307692308,73.82294732874092L248.78603076923076,107.25351216576318L249.15175384615384,134.43731299313635L249.20775384615385,128.93898673491046L249.33655384615383,107.56702045960861L249.3873846153846,117.05843418294735L249.452,131.19320037148216L249.48000000000002,115.97465918280864L249.8142769230769,100.15810437635943L249.86812307692307,100.72370065342298L250.23815384615384,100.22608488256283L250.42381538461538,133.8333146355369L250.7865230769231,106.85729169845582L250.84726153846154,122.0052820118991L250.88947692307693,135.14312865517357L251.01052307692305,111.48073339462282L251.11476923076924,111.66948288137264L251.38572307692306,112.34560502659193L251.46886153846154,119.73288397355515L251.65796923076923,129.5927044695074L252.31876923076925,119.56496598503807L252.42086153846154,114.08662722327495L252.49495384615383,138.53609249808574L252.63323076923078,107.77556562423707L252.8051076923077,116.98186020417648L252.8344,123.37674652446402L253.4926153846154,127.29049782319504L253.85704615384617,98.5464062690735L253.90529230769232,119.94165932048453L253.91132307692308,103.39166697588837L254.0539076923077,115.50290055708453L254.3227076923077,113.08525748686358L254.6475076923077,134.08233352140948L255.02356923076923,110.2790666926991L255.2492923076923,120.56529990109532L255.56375384615387,109.39704647931188L256.14916923076925,103.31754827499391L256.46147692307693,114.42936866933651L256.89784615384616,112.94427082755351L257.0550769230769,139.19617860967463L257.1787076923077,109.51512999968097L257.56941538461535,125.92052949558607L258.00836923076923,123.391593282873L258.1220923076923,114.03038601441818L258.4611076923077,123.15477405894889" style="fill: none;" fill="none"></path></g></g></g></g></g></g><g transform="translate(50, 177)" clip-path="url(#clip_1)"><clipPath id="clip_1"><rect width="280" height="23"></rect></clipPath><g><g><line x1="0" y1="0" x2="0" y2="5" style="visibility: inherit;" fill="rgb(0, 0, 0)" stroke="rgb(204, 204, 204)" stroke-width="1px"></line><line x1="21.53846153846154" y1="0" x2="21.53846153846154" y2="5" style="visibility: inherit;" fill="rgb(0, 0, 0)" stroke="rgb(204, 204, 204)" stroke-width="1px"></line><line x1="43.07692307692308" y1="0" x2="43.07692307692308" y2="5" style="visibility: inherit;" fill="rgb(0, 0, 0)" stroke="rgb(204, 204, 204)" stroke-width="1px"></line><line x1="64.61538461538461" y1="0" x2="64.61538461538461" y2="5" style="visibility: inherit;" fill="rgb(0, 0, 0)" stroke="rgb(204, 204, 204)" stroke-width="1px"></line><line x1="86.15384615384616" y1="0" x2="86.15384615384616" y2="5" style="visibility: inherit;" fill="rgb(0, 0, 0)" stroke="rgb(204, 204, 204)" stroke-width="1px"></line><line x1="107.6923076923077" y1="0" x2="107.6923076923077" y2="5" style="visibility: inherit;" fill="rgb(0, 0, 0)" stroke="rgb(204, 204, 204)" stroke-width="1px"></line><line x1="129.23076923076923" y1="0" x2="129.23076923076923" y2="5" style="visibility: inherit;" fill="rgb(0, 0, 0)" stroke="rgb(204, 204, 204)" stroke-width="1px"></line><line x1="150.76923076923077" y1="0" x2="150.76923076923077" y2="5" style="visibility: inherit;" fill="rgb(0, 0, 0)" stroke="rgb(204, 204, 204)" stroke-width="1px"></line><line x1="172.30769230769232" y1="0" x2="172.30769230769232" y2="5" style="visibility: inherit;" fill="rgb(0, 0, 0)" stroke="rgb(204, 204, 204)" stroke-width="1px"></line><line x1="193.84615384615384" y1="0" x2="193.84615384615384" y2="5" style="visibility: inherit;" fill="rgb(0, 0, 0)" stroke="rgb(204, 204, 204)" stroke-width="1px"></line><line x1="215.3846153846154" y1="0" x2="215.3846153846154" y2="5" style="visibility: inherit;" fill="rgb(0, 0, 0)" stroke="rgb(204, 204, 204)" stroke-width="1px"></line><line x1="236.92307692307693" y1="0" x2="236.92307692307693" y2="5" style="visibility: inherit;" fill="rgb(0, 0, 0)" stroke="rgb(204, 204, 204)" stroke-width="1px"></line><line x1="258.46153846153845" y1="0" x2="258.46153846153845" y2="5" style="visibility: inherit;" fill="rgb(0, 0, 0)" stroke="rgb(204, 204, 204)" stroke-width="1px"></line><line x1="280" y1="0" x2="280" y2="5" style="visibility: inherit;" fill="rgb(0, 0, 0)" stroke="rgb(204, 204, 204)" stroke-width="1px"></line></g><g transform="translate(0, 8)"><text x="0" y="0" dx="0em" dy="0.95em" style="text-anchor: middle; visibility: hidden; font-family: &quot;Helvetica Neue&quot;, sans-serif; font-size: 12px; font-weight: 200;" fill="rgb(50, 49, 63)" stroke="none" stroke-width="1px">-50k</text><text x="21.53846153846154" y="0" dx="0em" dy="0.95em" style="text-anchor: middle; visibility: inherit; font-family: &quot;Helvetica Neue&quot;, sans-serif; font-size: 12px; font-weight: 200;" fill="rgb(50, 49, 63)" stroke="none" stroke-width="1px">0</text><text x="43.07692307692308" y="0" dx="0em" dy="0.95em" style="text-anchor: middle; visibility: hidden; font-family: &quot;Helvetica Neue&quot;, sans-serif; font-size: 12px; font-weight: 200;" fill="rgb(50, 49, 63)" stroke="none" stroke-width="1px">50k</text><text x="64.61538461538461" y="0" dx="0em" dy="0.95em" style="text-anchor: middle; visibility: inherit; font-family: &quot;Helvetica Neue&quot;, sans-serif; font-size: 12px; font-weight: 200;" fill="rgb(50, 49, 63)" stroke="none" stroke-width="1px">100k</text><text x="86.15384615384616" y="0" dx="0em" dy="0.95em" style="text-anchor: middle; visibility: hidden; font-family: &quot;Helvetica Neue&quot;, sans-serif; font-size: 12px; font-weight: 200;" fill="rgb(50, 49, 63)" stroke="none" stroke-width="1px">150k</text><text x="107.6923076923077" y="0" dx="0em" dy="0.95em" style="text-anchor: middle; visibility: inherit; font-family: &quot;Helvetica Neue&quot;, sans-serif; font-size: 12px; font-weight: 200;" fill="rgb(50, 49, 63)" stroke="none" stroke-width="1px">200k</text><text x="129.23076923076923" y="0" dx="0em" dy="0.95em" style="text-anchor: middle; visibility: hidden; font-family: &quot;Helvetica Neue&quot;, sans-serif; font-size: 12px; font-weight: 200;" fill="rgb(50, 49, 63)" stroke="none" stroke-width="1px">250k</text><text x="150.76923076923077" y="0" dx="0em" dy="0.95em" style="text-anchor: middle; visibility: inherit; font-family: &quot;Helvetica Neue&quot;, sans-serif; font-size: 12px; font-weight: 200;" fill="rgb(50, 49, 63)" stroke="none" stroke-width="1px">300k</text><text x="172.30769230769232" y="0" dx="0em" dy="0.95em" style="text-anchor: middle; visibility: hidden; font-family: &quot;Helvetica Neue&quot;, sans-serif; font-size: 12px; font-weight: 200;" fill="rgb(50, 49, 63)" stroke="none" stroke-width="1px">350k</text><text x="193.84615384615384" y="0" dx="0em" dy="0.95em" style="text-anchor: middle; visibility: inherit; font-family: &quot;Helvetica Neue&quot;, sans-serif; font-size: 12px; font-weight: 200;" fill="rgb(50, 49, 63)" stroke="none" stroke-width="1px">400k</text><text x="215.3846153846154" y="0" dx="0em" dy="0.95em" style="text-anchor: middle; visibility: hidden; font-family: &quot;Helvetica Neue&quot;, sans-serif; font-size: 12px; font-weight: 200;" fill="rgb(50, 49, 63)" stroke="none" stroke-width="1px">450k</text><text x="236.92307692307693" y="0" dx="0em" dy="0.95em" style="text-anchor: middle; visibility: inherit; font-family: &quot;Helvetica Neue&quot;, sans-serif; font-size: 12px; font-weight: 200;" fill="rgb(50, 49, 63)" stroke="none" stroke-width="1px">500k</text><text x="258.46153846153845" y="0" dx="0em" dy="0.95em" style="text-anchor: middle; visibility: hidden; font-family: &quot;Helvetica Neue&quot;, sans-serif; font-size: 12px; font-weight: 200;" fill="rgb(50, 49, 63)" stroke="none" stroke-width="1px">550k</text><text x="280" y="0" dx="0em" dy="0.95em" style="text-anchor: middle; visibility: hidden; font-family: &quot;Helvetica Neue&quot;, sans-serif; font-size: 12px; font-weight: 200;" fill="rgb(50, 49, 63)" stroke="none" stroke-width="1px">600k</text></g><line x1="0" y1="0" x2="280" y2="0" fill="rgb(0, 0, 0)" stroke="rgb(204, 204, 204)" stroke-width="1px"></line></g></g></g></g></svg>