<svg viewBox="0 0 330 200" xmlns="http://www.w3.org/2000/svg"><g><g><g><g><g><line x1="50" y1="177" x2="45" y2="177" style="visibility: inherit;" fill="rgb(0, 0, 0)" stroke="rgb(204, 204, 204)" stroke-width="1px"></line><line x1="50" y1="154.875" x2="45" y2="154.875" style="visibility: inherit;" fill="rgb(0, 0, 0)" stroke="rgb(204, 204, 204)" stroke-width="1px"></line><line x1="50" y1="132.75" x2="45" y2="132.75" style="visibility: inherit;" fill="rgb(0, 0, 0)" stroke="rgb(204, 204, 204)" stroke-width="1px"></line><line x1="50" y1="110.625" x2="45" y2="110.625" style="visibility: inherit;" fill="rgb(0, 0, 0)" stroke="rgb(204, 204, 204)" stroke-width="1px"></line><line x1="50" y1="88.5" x2="45" y2="88.5" style="visibility: inherit;" fill="rgb(0, 0, 0)" stroke="rgb(204, 204, 204)" stroke-width="1px"></line><line x1="50" y1="66.375" x2="45" y2="66.375" style="visibility: inherit;" fill="rgb(0, 0, 0)" stroke="rgb(204, 204, 204)" stroke-width="1px"></line><line x1="50" y1="44.25" x2="45" y2="44.25" style="visibility: inherit;" fill="rgb(0, 0, 0)" stroke="rgb(204, 204, 204)" stroke-width="1px"></line><line x1="50" y1="22.125" x2="45" y2="22.125" style="visibility: inherit;" fill="rgb(0, 0, 0)" stroke="rgb(204, 204, 204)" stroke-width="1px"></line><line x1="50" y1="0" x2="45" y2="0" style="visibility: inherit;" fill="rgb(0, 0, 0)" stroke="rgb(204, 204, 204)" stroke-width="1px"></line></g><g transform="translate(40, 0)"><text x="0" y="177" dx="0em" dy="0.3em" style="text-anchor: end; visibility: hidden; font-family: &quot;Helvetica Neue&quot;, sans-serif; font-size: 12px; font-weight: 200;" fill="rgb(50, 49, 63)" stroke="none" stroke-width="1px">-6.5</text><text x="0" y="154.875" dx="0em" dy="0.3em" style="text-anchor: end; visibility: inherit; font-family: &quot;Helvetica Neue&quot;, sans-serif; font-size: 12px; font-weight: 200;" fill="rgb(50, 49, 63)" stroke="none" stroke-width="1px">-6</text><text x="0" y="132.75" dx="0em" dy="0.3em" style="text-anchor: end; visibility: hidden; font-family: &quot;Helvetica Neue&quot;, sans-serif; font-size: 12px; font-weight: 200;" fill="rgb(50, 49, 63)" stroke="none" stroke-width="1px">-5.5</text><text x="0" y="110.625" dx="0em" dy="0.3em" style="text-anchor: end; visibility: inherit; font-family: &quot;Helvetica Neue&quot;, sans-serif; font-size: 12px; font-weight: 200;" fill="rgb(50, 49, 63)" stroke="none" stroke-width="1px">-5</text><text x="0" y="88.5" dx="0em" dy="0.3em" style="text-anchor: end; visibility: hidden; font-family: &quot;Helvetica Neue&quot;, sans-serif; font-size: 12px; font-weight: 200;" fill="rgb(50, 49, 63)" stroke="none" stroke-width="1px">-4.5</text><text x="0" y="66.375" dx="0em" dy="0.3em" style="text-anchor: end; visibility: inherit; font-family: &quot;Helvetica Neue&quot;, sans-serif; font-size: 12px; font-weight: 200;" fill="rgb(50, 49, 63)" stroke="none" stroke-width="1px">-4</text><text x="0" y="44.25" dx="0em" dy="0.3em" style="text-anchor: end; visibility: hidden; font-family: &quot;Helvetica Neue&quot;, sans-serif; font-size: 12px; font-weight: 200;" fill="rgb(50, 49, 63)" stroke="none" stroke-width="1px">-3.5</text><text x="0" y="22.125" dx="0em" dy="0.3em" style="text-anchor: end; visibility: inherit; font-family: &quot;Helvetica Neue&quot;, sans-serif; font-size: 12px; font-weight: 200;" fill="rgb(50, 49, 63)" stroke="none" stroke-width="1px">-3</text><text x="0" y="0" dx="0em" dy="0.3em" style="text-anchor: end; visibility: hidden; font-family: &quot;Helvetica Neue&quot;, sans-serif; font-size: 12px; font-weight: 200;" fill="rgb(50, 49, 63)" stroke="none" stroke-width="1px">-2.5</text></g><line x1="50" y1="0" x2="50" y2="177" fill="rgb(0, 0, 0)" stroke="rgb(204, 204, 204)" stroke-width="1px"></line></g></g><g transform="translate(50, 0)" clip-path="url(#clip_0)"><clipPath id="clip_0"><rect width="280" height="177"></rect></clipPath><g><g><g><line x1="0" y1="0" x2="0" y2="177" fill="rgb(0, 0, 0)" stroke="rgb(60, 60, 60)" stroke-width="1px" opacity="0.25"></line><line x1="21.53846153846154" y1="0" x2="21.53846153846154" y2="177" fill="rgb(0, 0, 0)" stroke="rgb(60, 60, 60)" stroke-width="1px" opacity="0.25"></line><line x1="43.07692307692308" y1="0" x2="43.07692307692308" y2="177" fill="rgb(0, 0, 0)" stroke="rgb(60, 60, 60)" stroke-width="1px" opacity="0.25"></line><line x1="64.61538461538461" y1="0" x2="64.61538461538461" y2="177" fill="rgb(0, 0, 0)" stroke="rgb(60, 60, 60)" stroke-width="1px" opacity="0.25"></line><line x1="86.15384615384616" y1="0" x2="86.15384615384616" y2="177" fill="rgb(0, 0, 0)" stroke="rgb(60, 60, 60)" stroke-width="1px" opacity="0.25"></line><line x1="107.6923076923077" y1="0" x2="107.6923076923077" y2="177" fill="rgb(0, 0, 0)" stroke="rgb(60, 60, 60)" stroke-width="1px" opacity="0.25"></line><line x1="129.23076923076923" y1="0" x2="129.23076923076923" y2="177" fill="rgb(0, 0, 0)" stroke="rgb(60, 60, 60)" stroke-width="1px" opacity="0.25"></line><line x1="150.76923076923077" y1="0" x2="150.76923076923077" y2="177" fill="rgb(0, 0, 0)" stroke="rgb(60, 60, 60)" stroke-width="1px" opacity="0.25"></line><line x1="172.30769230769232" y1="0" x2="172.30769230769232" y2="177" fill="rgb(0, 0, 0)" stroke="rgb(60, 60, 60)" stroke-width="1px" opacity="0.25"></line><line x1="193.84615384615384" y1="0" x2="193.84615384615384" y2="177" fill="rgb(0, 0, 0)" stroke="rgb(60, 60, 60)" stroke-width="1px" opacity="0.25"></line><line x1="215.3846153846154" y1="0" x2="215.3846153846154" y2="177" fill="rgb(0, 0, 0)" stroke="rgb(60, 60, 60)" stroke-width="1px" opacity="0.25"></line><line x1="236.92307692307693" y1="0" x2="236.92307692307693" y2="177" fill="rgb(0, 0, 0)" stroke="rgb(60, 60, 60)" stroke-width="1px" opacity="0.25"></line><line x1="258.46153846153845" y1="0" x2="258.46153846153845" y2="177" fill="rgb(0, 0, 0)" stroke="rgb(60, 60, 60)" stroke-width="1px" opacity="0.25"></line><line x1="280" y1="0" x2="280" y2="177" fill="rgb(0, 0, 0)" stroke="rgb(60, 60, 60)" stroke-width="1px" opacity="0.25"></line></g><g><line x1="0" y1="177" x2="280" y2="177" fill="rgb(0, 0, 0)" stroke="rgb(60, 60, 60)" stroke-width="1px" opacity="0.25"></line><line x1="0" y1="154.875" x2="280" y2="154.875" fill="rgb(0, 0, 0)" stroke="rgb(60, 60, 60)" stroke-width="1px" opacity="0.25"></line><line x1="0" y1="132.75" x2="280" y2="132.75" fill="rgb(0, 0, 0)" stroke="rgb(60, 60, 60)" stroke-width="1px" opacity="0.25"></line><line x1="0" y1="110.625" x2="280" y2="110.625" fill="rgb(0, 0, 0)" stroke="rgb(60, 60, 60)" stroke-width="1px" opacity="0.25"></line><line x1="0" y1="88.5" x2="280" y2="88.5" fill="rgb(0, 0, 0)" stroke="rgb(60, 60, 60)" stroke-width="1px" opacity="0.25"></line><line x1="0" y1="66.375" x2="280" y2="66.375" fill="rgb(0, 0, 0)" stroke="rgb(60, 60, 60)" stroke-width="1px" opacity="0.25"></line><line x1="0" y1="44.25" x2="280" y2="44.25" fill="rgb(0, 0, 0)" stroke="rgb(60, 60, 60)" stroke-width="1px" opacity="0.25"></line><line x1="0" y1="22.125" x2="280" y2="22.125" fill="rgb(0, 0, 0)" stroke="rgb(60, 60, 60)" stroke-width="1px" opacity="0.25"></line><line x1="0" y1="0" x2="280" y2="0" fill="rgb(0, 0, 0)" stroke="rgb(60, 60, 60)" stroke-width="1px" opacity="0.25"></line></g></g></g><g><g><line x1="0" y1="-110.625" x2="280" y2="-110.625" fill="rgb(0, 0, 0)" stroke="rgb(153, 153, 153)" stroke-width="1.5px"></line></g></g><g><g><line x1="21.53846153846154" y1="0" x2="21.53846153846154" y2="177" fill="rgb(0, 0, 0)" stroke="rgb(153, 153, 153)" stroke-width="1.5px"></line></g></g><g><g><g><g><g><path stroke="rgb(0, 119, 187)" stroke-width="2px" d="M28.786584615384612,-2.115996692841776L28.984307692307695,2.068555656923081L29.08166153846154,7.613827896006512L29.983261538461537,7.431133860344147L30.164615384615384,7.659143468984894L30.370092307692307,13.161686278472217L30.386461538461536,15.032367313674257L30.505784615384616,14.488712217831363L30.602707692307693,17.323310010857796L30.629846153846152,18.892028828851778L30.70523076923077,18.946488559489353L31.139876923076923,18.80525361312644L31.15193846153846,24.84669527337806L31.550830769230767,26.657922845704746L31.58313846153846,23.227591455873352L31.611569230769234,25.66220816430541L31.716246153846154,27.33284344946955L31.7296,24.223779718119403L31.92129230769231,25.992659521131003L31.996676923076922,25.363038296715274L32.170707692307694,25.384794899949952L32.259446153846156,27.635808175284808L32.396861538461536,28.301323023724308L33.060676923076926,34.11699641185399L33.995015384615385,37.34301281236097L34.00621538461539,40.06770100750043L34.364184615384616,41.56931356523947L34.70104615384615,42.75825028380467L34.74153846153846,42.19983246779864L35.05815384615384,44.45875369820851L35.27009230769231,42.83932091780815L35.485046153846156,40.85209923975654L35.80553846153846,45.03542028661363L36.04461538461538,46.20280443904275L36.04978461538462,49.8708633141367L36.0652923076923,53.09859559277585L36.08855384615385,58.340126450895625L36.104492307692304,57.54113019468744L36.12043076923077,55.44000835992313L36.31341538461538,51.48925685749899L36.38363076923077,51.125964545407584L36.4155076923077,49.66192604494016L36.79544615384615,51.995807441424844L36.997476923076924,52.782103891582196L37.03366153846154,55.37098846162017L37.28824615384616,56.075097282675856L37.30116923076923,56.00016701218364L37.38301538461538,58.92777042387054L37.65784615384615,59.27064638613538L37.77630769230769,52.76086087989137L37.82412307692308,53.513372945590774L38.187261538461534,53.334744243504986L38.23895384615385,53.05427235882425L38.434953846153846,53.055755964046384L38.60941538461539,53.164724773839524L39.07852307692308,50.08907329241957L39.284,55.88181402206733L39.655323076923075,56.941773473741506L39.79876923076923,59.736937772942696L40.30233846153846,63.51843238575047L40.33335384615385,61.39285247744789L40.4544,62.22661431563898L40.54356923076923,57.46092493494156L40.56553846153846,57.89809360003353L40.58836923076923,60.184522044038076L40.80849230769231,67.18613255701977L40.87181538461539,65.99897046495984L41.047569230769234,70.21303136115972L41.10529230769231,70.19123215058866L41.170338461538456,67.338095108148L41.46110769230769,64.23026349513324L41.49513846153847,62.55920385341996L42.06720000000001,62.02486245048736L42.16455384615385,66.04963870175298L42.25501538461538,65.25421711997757L42.72412307692308,67.27475364921432L43.06141538461539,69.90298981617656L43.38966153846154,63.42253357857922L43.52492307692307,68.29773277455843L43.56498461538461,66.44151896485258L43.810523076923076,67.52261306195597L44.28695384615385,69.62651425212108L44.366646153846155,66.89141782289434L44.528615384615385,67.22160205939822L44.697907692307695,67.70027566969048L45.761907692307695,71.95682860028538L45.84116923076923,72.72425337202425L45.96953846153846,70.19852869252605L46.78627692307692,71.83411541307117L46.79790769230769,76.09086951449002L46.805230769230775,78.5949739505916L47.41390769230769,75.25108560860569L47.4164923076923,74.1451083716179L47.541415384615384,75.33408059456495L48.25692307692307,75.31790879832833L48.91556923076923,75.69880129973369L49.28086153846154,75.9407564287202L49.76332307692307,76.3260986497889L50.25526153846153,76.17172177379668L50.35606153846153,75.31038727608525L50.536123076923076,75.26955293564323L51.286523076923075,71.20666422217086L51.4024,77.23706239324208L51.51612307692308,78.84845076716778L51.600123076923076,79.09164511392615L51.83532307692308,79.63924748438659L51.886153846153846,78.60720209323205L51.91889230769231,76.72120416189931L52.06492307692308,77.31009457126677L52.25058461538462,78.3953218317951L52.45649230769231,80.60312661271843L52.47803076923077,84.48733768905134L52.48750769230769,81.99684182432253L52.50172307692308,82.59221672789428L52.80756923076923,82.21077132091627L52.93076923076923,81.45942478099883L53.99606153846154,78.01061284970893L54.310523076923076,81.94349491853507L54.60603076923077,84.163752867335L55.16603076923077,84.39186892125245L55.47230769230769,82.62450176008484L55.49513846153846,86.74894469695056L55.50849230769231,87.27157784531573L56.10424615384615,85.06054587978157L56.19987692307692,86.99219553362153L56.36486153846154,87.82734184676899L56.373046153846154,88.15966304072435L57.34141538461538,87.49678978877479L57.83206153846154,94.06903501485117L57.914769230769224,91.25170853218034L58.124553846153844,90.7210385947263L58.522584615384616,89.54886132173749L58.85169230769231,87.09121287878165L58.8883076923077,85.86995094427948L58.9499076923077,90.14528928643159L59.115323076923076,87.37017237213665L59.43538461538461,89.61186825673234L59.66627692307693,90.45268757009775L59.95532307692308,90.44989189424678L59.962215384615384,90.0293532903109L60.224553846153846,92.10422152847731L60.33827692307692,94.82428032499962L60.79532307692308,96.20449923480997L60.934461538461534,94.1345648229447L60.94436923076923,94.06374947192232L61.1476923076923,93.18386702514864L61.62196923076923,86.72447879777658L61.7288,91.68383950988239L61.9136,92.9588261306273L62.293107692307686,92.45802644848744L62.41070769230769,95.72627308344791L62.548123076923076,90.3455872677323L62.59249230769231,90.73337732211095L62.945292307692306,88.57821842703429L63.66984615384616,96.86247537537338L63.879630769230765,97.51930273773621L64.12947692307692,93.89327524425L64.48615384615384,93.9005764861191L64.90486153846153,91.87588413591888L64.99704615384616,92.64867601415939L65.10990769230769,96.64156142247575L65.36276923076923,97.10057868583714L65.37138461538461,97.2397840382082L65.77415384615385,98.09946815737622L65.7875076923077,95.35349874835337L65.8112,98.3059461900063L65.82627692307692,97.11556768348619L65.83058461538461,94.5382488723445L66.23292307692307,93.66397839521454L66.37464615384616,95.41256607613018L66.39963076923077,92.97478445196778L66.64129230769231,90.995738314537L66.65335384615385,97.18656566557155L66.87261538461539,99.32910877953091L67.01864615384615,95.00877489143679L67.23058461538461,95.3705638736133L67.35938461538461,93.93271859226489L67.9056,92.98422708355109L68.22781538461538,91.35233138944338L68.93212307692308,94.75250815716761L69.01526153846153,93.35192284206973L69.11132307692307,98.50366349947706L69.40467692307692,98.29999506433161L69.56578461538462,98.63534424280732L70.08356923076923,98.99807036862141L70.26406153846155,97.61859305468418L70.44412307692308,99.53267173628342L71.02695384615384,100.11519043839176L71.20313846153846,98.7898814272654L71.20830769230768,101.95877821396424L71.36295384615384,96.89905976742885L71.70498461538462,96.15450782472121L71.72135384615385,100.35599824723141L71.75236923076923,97.6776305969747L71.86566153846154,99.87728587008668L72.11852307692307,103.2119644595215L72.20036923076923,96.9613123484271L72.35716923076923,97.48726705001694L73.64775384615385,96.82525794081033L73.64818461538462,99.68131637795055L73.70806153846154,99.26441245212129L73.73864615384616,94.71169255336504L73.92430769230769,95.78413695192566L74.0836923076923,98.94189330396789L74.26289230769231,103.55120284830177L74.26806153846154,106.14067916556982L74.94006153846153,103.63799116900438L75.41003076923076,101.51062701875496L76.3784,104.4537531777294L77.14172307692307,108.4814607765717L77.17963076923077,106.90237839617981L77.22098461538462,110.78617233990819L77.46566153846153,105.60227562760826L78.15747692307693,108.76179886922547L78.2419076923077,108.70185099283046L79.09483076923077,105.57346822165957L79.31667692307693,109.14207301940627L79.32227692307693,109.23411776069467L79.35889230769232,106.5876611795644L79.53206153846153,106.79188150922181L79.84953846153846,105.70686661457847L80.10498461538461,109.17063638720413L80.30443076923076,105.68507822247444L80.30658461538461,107.94999937946854L80.46855384615384,106.23466718635116L80.68781538461539,109.53230202460976L81.27883076923078,110.40122316041403L81.41581538461539,108.63044427489528L81.47827692307692,108.61281737479739L81.4980923076923,112.50310769553882L81.72424615384615,110.94234031960907L81.74147692307692,108.67804566935027L81.7587076923077,104.63731565424993L81.79101538461538,107.26573900192498L82.05723076923077,105.60033233052206L82.16018461538462,106.75827245167322L82.26012307692308,109.77625267655506L82.54701538461538,108.3289829787663L82.9179076923077,109.12759217602321L82.9782153846154,107.711087518825L83.55199999999999,107.66557749145856L83.57741538461538,111.32255020161647L83.62867692307692,110.31134170544252L84.44886153846154,109.5505272045857L84.61384615384615,111.45618001789606L84.95587692307691,112.90607938868258L85.43446153846155,111.60100112976107L85.46418461538461,109.6089469589083L85.4659076923077,110.93961763365796L85.8984,113.22047538747627L85.98541538461538,112.53190452569866L86.36061538461539,110.46951502987231L86.40584615384614,107.73461119191936L86.48252307692307,110.61951866064722L86.50406153846154,113.74185913988501L86.52172307692307,114.42806521766514L86.56221538461539,112.73463744946197L86.58332307692308,110.93352410213876L86.69790769230768,109.77730949531036L87.11963076923077,114.51717972642209L87.22387692307692,113.62133846215026L88.26590769230769,112.55652671773205L88.43563076923077,113.56641400884968L88.49421538461539,115.84697249550453L88.50067692307692,112.26529628645677L88.89483076923078,115.11574348575651L89.1003076923077,115.80764770964848L89.22953846153847,114.89526829993764L89.31224615384615,111.31811062023662L90.07987692307691,113.06961874679104L90.23926153846155,118.62079170057402L90.42104615384615,116.15340587323442L90.44258461538462,117.20736821189843L90.51667692307691,114.53433928308084L90.83286153846153,116.17908473859546L90.84492307692307,116.73920471698233L90.92073846153846,113.83263034361713L91.17273846153846,113.04438268386194L91.28301538461538,115.23977100397869L91.44498461538461,116.57068526474069L91.53372307692308,113.55085165338176L91.75169230769231,114.52027491948876L92.3216,109.61920054091138L92.68344615384616,110.75353149970245L92.74073846153846,110.62918026685638L92.82818461538461,112.66713971757842L93.44461538461537,112.51991483488051L93.5144,118.43322585176452L93.62123076923078,119.78917950481787L93.7900923076923,116.86574817949901L94.34320000000001,116.9656321123503L94.44227692307693,116.1542656847991L94.57969230769231,118.40141232187496L94.61803076923076,115.9060571633276L94.71495384615385,117.77501852765658L94.84676923076923,120.5606993165909L95.33052307692309,114.23843198581329L95.34732307692309,113.2817108962762L95.35163076923077,113.31405975424214L95.91206153846154,116.63078986408095L95.96418461538462,117.66665016890633L95.99864615384615,117.78153740931197L96.1632,120.352293560318L96.24418461538463,118.27803930605162L96.63230769230769,123.54560185053768L97.46455384615385,120.53181066858068L97.97803076923077,118.41957716195164L98.15636923076923,122.28347241907342L98.35796923076923,120.36721637266292L98.37519999999999,116.97581092368014L98.58800000000001,114.7776279917386L98.91926153846154,116.76701949066083L99.06916923076923,115.64868878141739L99.38492307692307,117.62723135242283L99.41033846153846,117.41845392757307L99.63735384615384,117.2535700295785L99.83120000000001,117.24054219093435L100.15298461538461,118.04337230781624L100.19950769230769,120.0747251478428L100.20166153846155,121.13427371785608L100.34036923076923,118.88766929510578L100.4808,119.02031362654775L100.97403076923077,119.47372548938993L101.10843076923078,119.94718518949271L101.51593846153845,119.92648353038267L101.6132923076923,123.99112280522607L101.98246153846154,117.2986259002377L102.004,115.35496642225323L102.2336,114.9877450110515L102.34904615384616,114.57999313127996L102.36886153846154,117.95993292481901L102.91507692307692,121.3985360393L102.94221538461538,119.26951579624846L103.20455384615384,119.36888997777962L103.37901538461539,118.64680848732388L103.42338461538462,120.80749775299306L104.18584615384614,120.73510924177688L105.22055384615385,119.31160664079975L105.51132307692308,121.48033117960924L105.55526153846154,119.06989087886237L105.64959999999999,119.85114148990287L106.1256,120.56381680808052L106.14713846153846,117.73358360672941L106.7596923076923,122.05591087189288L107.03926153846155,120.8955502787052L107.04098461538462,120.688627068926L107.22664615384616,122.78692392392699L107.38775384615384,124.08166239192335L107.62381538461538,125.0641380639687L108.13556923076924,127.39440243791427L108.30098461538462,127.22734289974504L108.35870769230769,124.87834886080344L110.1606153846154,124.83044545272779L110.56467692307692,122.52242598783845L110.80504615384616,123.23944879681987L111.29483076923077,121.20602131552172L111.37452307692307,125.9470480481784L111.82769230769232,123.43578077554706L111.91513846153846,122.39467306852343L112.36658461538461,121.8284808869362L112.56215384615385,120.90289330930709L113.16566153846153,122.35694017679214L113.19839999999999,122.93294643563462L113.49563076923077,122.36682571889422L113.60461538461539,121.73764380169786L114.12455384615384,125.21426873417425L114.39249230769231,127.31579020626384L114.42264615384616,126.24459959868813L114.43513846153846,127.71634598853723L115.21569230769231,127.61929676701149L115.36732307692307,125.26024244886351L115.37723076923078,124.54336480296678L115.92387692307693,123.93498504160061L116.04233846153846,125.32799599169618L116.07292307692308,122.9123870229657L116.24652307692308,121.73862197970959L116.49249230769232,121.72635156497725L116.67858461538462,125.3995881949983L117.01156923076924,127.10808425397411L117.65341538461539,126.98581212312418L118.21600000000001,123.85117846459411L118.37021538461538,124.69333365994846L118.81864615384616,124.45776202343797L118.86086153846153,126.87830201424893L118.86603076923076,123.66285733960707L119.31920000000001,125.18490789283896L119.55741538461538,124.08142975538719L119.55827692307693,122.70087792616931L119.64615384615385,124.73462435091642L119.8232,126.00302250674429L119.82449230769231,128.04350900346677L120.00196923076922,127.54590225037714L120.12732307692308,128.7552148808049L120.19323076923077,130.778050059617L120.2488,131.16044318350578L120.53698461538463,131.4010620812918L120.87212307692307,127.71762375237617L121.3184,127.53516528726858L121.36707692307692,129.59971216750884L121.37483076923077,128.99806911607234L121.4795076923077,129.2450515202263L121.9244923076923,129.97539962360733L121.93095384615386,129.205335551676L121.99427692307692,129.6041367138486L122.0700923076923,128.7255792668498L122.12523076923077,128.79048672026613L122.34923076923077,128.31897892180808L122.54652307692308,126.38075889124707L122.6076923076923,127.14098618611239L122.6748923076923,124.0084185968908L122.71538461538461,124.09971501654817L123.40203076923076,123.65795818702242L123.89224615384614,123.44459919772065L124.13649230769231,123.078803185472L124.22221538461538,127.92853524914332L124.4475076923077,130.19502569813102L124.77273846153847,131.01415959345445L125.39046153846154,132.09957241622888L125.43267692307693,128.51044549708536L125.61963076923078,128.03768071034534L125.73895384615385,128.54437041580073L126.26750769230769,130.30228700816272L126.83913846153845,129.23384923088332L127.18892307692307,129.14946481196748L127.33366153846154,127.34260995750826L127.71575384615385,128.86592235306026L127.96000000000001,129.76981552922203L128.04055384615384,126.91106062223598L128.29772307692306,127.61722343617728L128.58461538461538,126.60519815357956L128.89261538461537,126.76903768105767L129.04209230769231,128.84134337737237L129.136,129.67449129482551L129.40566153846154,131.90411103284623L129.59907692307692,130.32373831579844L129.7606153846154,130.8402122372971L129.80412307692308,129.64726703849945L129.80972307692306,128.3199446766824L129.92043076923076,130.82650998647514L130.0376,128.03288499960604L130.14356923076923,127.44066992073836L130.40763076923076,130.46956853073587L130.51058461538463,129.4489517450437L130.87803076923078,128.9274047041002L130.93316923076924,127.87202500248331L131.01027692307693,127.97885169353711L131.0486153846154,126.94479168514384L131.3803076923077,128.47391846811757L131.60947692307693,128.62773329637042L131.92566153846153,130.75140785349362L132.0182769230769,130.27023238642784L132.49815384615385,129.0628564995752L132.56061538461537,130.39642800344384L132.62221538461537,130.9741933194003L132.71612307692308,128.51038569493303L132.88412307692306,130.81536437441832L132.9496,130.40304165703017L132.95433846153847,131.4097249366162L133.21796923076923,130.9277578268837L133.34676923076924,132.7506244703764L133.42258461538464,133.84620126036612L133.56,133.44241766898517L133.74135384615386,132.86729853611396L134.3315076923077,132.18731027401213L134.41163076923078,131.7962395522399L134.44867692307693,131.674473915899L134.55852307692308,132.79497651720297L135.02892307692306,135.05740273275524L135.14264615384616,134.42481200861067L135.46443076923077,135.12017822842074L135.5984,135.16238265383407L135.74012307692308,134.9026605912934L135.77975384615385,132.70462159090582L136.6878153846154,133.768989108642L136.68867692307694,133.20862070479393L136.72701538461538,134.13262934540748L137.0668923076923,131.43351742658047L137.0793846153846,130.07358081956522L137.31846153846152,131.32749943625817L137.7780923076923,130.7725003045314L138.1016,122.71143237838228L138.21704615384616,122.72441735320737L138.2988923076923,125.02367314370544L138.35618461538462,125.159716610146L138.516,123.71416368724849L138.73827692307694,123.07930378104416L138.85458461538462,125.01958682528239L139.0294769230769,125.56412431234776L139.11003076923078,128.70299318215046L140.16929230769233,127.04180247056955L140.17058461538463,127.41349343340679L140.2227076923077,128.33350155282668L140.75643076923075,126.59674242453966L141.04547692307693,126.7263133246731L141.60763076923078,124.61766083949989L141.6644923076923,122.69549837061277L141.73729230769231,120.68231500594922L141.9195076923077,126.67968185787862L141.9233846153846,129.30035123852176L141.93200000000002,129.15563126580287L142.09913846153847,127.84894664392691L142.34123076923075,126.27451133314263L142.41230769230768,126.9340274309128L142.53507692307693,126.44200758785067L142.69575384615385,125.14186809450422L142.80689230769232,129.2309065698983L142.8784,124.59935679670585L143.1049846153846,125.77824663303146L143.2859076923077,124.43507823456436L143.73993846153846,123.43741999333568L143.99667692307693,120.8223360196678L144.24738461538462,120.02969130372574L144.52738461538462,122.2304931670163L145.0288,125.23275753198466L145.21446153846156,125.75752971374037L145.21790769230768,121.44279011370566L145.32215384615384,123.64112439323563L145.91316923076923,125.22647503953635L145.9889846153846,125.54843990767873L146.12467692307692,126.39127231100125L146.17292307692307,125.03859801565957L146.43956923076922,126.12176897213072L146.7971076923077,127.50680552771817L147.7435076923077,125.01935598165471L148.09113846153846,126.20722487515619L148.16652307692308,124.74865881768707L148.7713230769231,124.70327420334723L148.84240000000003,122.95087849677031L149.40498461538462,126.99014746892709L150.03692307692307,126.87517096846256L150.06363076923077,124.4050506725845L150.38843076923075,124.78432311862332L150.52455384615385,124.1339053049661L151.0531076923077,126.04972065299616L151.10393846153846,128.62791917806783L151.17286153846155,129.46591900638293L151.18793846153847,128.69220842630597L151.53255384615383,130.10904258317314L151.7910153846154,128.66285902158356L151.81815384615385,129.44593194661107L152.0641230769231,130.7101079674814L152.47593846153845,129.8849033386859L152.5857846153846,129.71366624065354L153.02646153846152,129.89315817372866L153.5433846153846,129.41494730482617L153.87206153846154,130.52508847338032L154.3622769230769,128.42263636840624L154.55353846153844,126.58744646223334L154.61944615384616,126.23390708632436L154.93692307692308,128.66615072648025L154.94424615384617,128.69168138361155L155.00972307692308,124.89249157819857L155.02178461538463,124.716382026158L155.1721230769231,130.02606797187462L155.7502153846154,133.56300959568583L156.15815384615385,133.7820012186847L156.2300923076923,128.806223321848L156.65224615384616,129.11541877322964L156.72504615384614,131.74089452107893L156.89089230769233,129.57509992408842L157.26824615384615,127.05943349533135L157.44873846153845,133.24966766555818L157.7097846153846,131.3791075355989L158.35507692307692,130.0800543670167L158.4881846153846,129.79464202191286L158.66135384615384,129.3328976456276L158.8414153846154,129.13486646556564L158.96332307692307,128.4647542413694L159.10246153846154,130.24821261028188L159.32,127.93621217882475L159.35101538461538,127.35919453904533L159.46646153846154,131.26689635637706L159.51341538461537,131.01400915934624L159.66504615384616,131.0992472180962L159.71415384615383,127.83445901925798L159.74387692307693,127.93131277117394L159.75593846153845,129.83228600712576L159.93987692307692,128.20247633869621L160.37236923076924,129.07251553306088L160.63858461538462,131.59410584312144L160.65624615384615,133.76739013398566L161.196,132.94180076244402L161.36141538461538,131.55399966790037L161.5220923076923,130.81979713770008L162.21606153846156,131.94072953422224L162.80147692307693,130.25923299526784L163.01858461538464,130.3527364238239L163.0190153846154,126.95559679890493L163.23655384615384,129.31399676456942L163.52043076923076,129.1602653339797L163.66516923076924,127.18106639834008L163.7875076923077,129.26854398519848L164.0619076923077,127.82790528935821L164.34923076923076,130.35679742814676L164.48319999999998,131.2017249412631L164.4948307692308,131.71921459122268L164.55987692307693,130.5410158591495L164.6158769230769,129.50066528064167L164.81446153846153,131.03426361883973L165.04535384615386,130.2493196058589L165.07464615384615,129.30211675931918L165.2633230769231,128.94595177632513L165.55495384615384,128.38730926312172L165.55753846153846,131.36805478928784L165.57003076923075,133.2263094913858L166.06412307692307,132.14158269953117L166.3897846153846,132.36861818546885L166.39366153846154,129.97536617228292L166.53624615384615,129.71252678459226L167.38916923076923,132.0180001176914L167.40123076923078,131.35539006695274L167.46756923076924,133.40400280657482L168.70215384615383,132.9728839284365L168.72196923076922,132.76610183037428L168.72756923076923,131.5743872124976L169.2625846153846,130.8236909269706L169.29876923076924,130.139231464828L169.88116923076922,127.46019975040252L169.8940923076923,129.5972367745274L169.97464615384615,130.61616419682704L170.2145846153846,131.53466133433463L170.26326153846153,128.5512996444576L171.00246153846155,129.26842364844518L171.4638153846154,130.5013606141617L171.61716923076924,130.04844701234163L171.78215384615385,129.93670470680988L171.96695384615384,133.29458474615925L173.3454153846154,132.0661684483273L173.37470769230768,132.26250866711035L173.37686153846155,130.20418927466807L173.62283076923077,131.75402367947066L175.12276923076922,131.85761282943227L175.65175384615384,133.72450374425972L175.72024615384615,133.29085635460333L175.75384615384615,132.811632581454L175.7684923076923,135.77123476737827L175.93476923076923,138.44767256780915L176.03126153846154,134.2236267817286L176.27852307692308,131.97670851303744L176.45384615384617,129.21798583360675L176.68732307692306,129.49029190833664L176.73729230769231,128.99897494015278L176.87729230769233,127.84088910876025L177.02633846153844,134.09132817541544L177.3377846153846,130.34874646159997L177.3731076923077,133.91244473631974L177.55833846153845,136.98299869642136L177.86030769230769,135.14759335962222L178.4078153846154,130.7088042381244L178.59519999999998,132.09919530647022L178.60726153846153,130.7290830045761L178.85193846153848,129.4649781364096L179.49723076923078,132.39004278051215L180.12012307692308,133.64159231106854L180.29415384615385,133.36727931928883L180.71716923076923,131.44996992845682L180.84467692307692,131.47964224874585L181.20393846153846,132.20539432561165L181.32756923076923,130.97740248319963L181.38227692307692,131.62942073033724L181.4094153846154,133.2342809038548L181.58646153846152,133.57270321829247L182.48978461538462,136.1620028113313L182.73015384615385,136.0295793113105L182.93175384615384,135.2204688010807L183.01575384615387,136.46015899289816L183.10449230769228,135.0136872345755L183.22984615384615,134.04152776089606L183.83895384615386,134.29301734737933L183.90141538461538,136.41367619021165L183.9750769230769,137.38917699327126L184.0134153846154,137.2254090241793L184.25163076923076,134.5624547441127L184.3830153846154,135.08851979013218L185.0296,136.39796246192415L185.06966153846153,132.73389037312006L185.30744615384614,130.88072824395263L185.42203076923076,133.434921454886L185.8540923076923,132.91022526711188L186.0931692307692,131.09774329358316L186.2766769230769,134.86571189221132L186.39556923076924,135.70674703393217L186.48516923076923,135.74184993430276L186.78843076923076,132.08566348269164L186.79316923076922,132.12989826509107L187.26055384615384,135.5039611548707L187.51169230769233,137.47584289851932L187.61766153846153,134.99098245229217L187.7748923076923,135.01233167604144L187.84036923076923,135.63802153560837L187.91963076923076,135.62148102935151L188.43138461538462,137.89057250509256L188.4585230769231,136.5416507464027L188.5756923076923,138.41836708434676L188.62480000000002,137.273120603849L188.79452307692307,133.48588669412703L188.944,130.17484180994853L189.0883076923077,130.34101863424792L189.27784615384616,132.05794184041505L189.96836923076924,132.2042655505686L190.40775384615387,131.85132205235652L190.9083076923077,132.83554022161778L191.31753846153848,133.91456246762644L191.55618461538464,133.13182325595125L191.85384615384615,135.0025881971926L192.04036923076922,132.3956818608052L192.39273846153847,132.4368885056738L192.67273846153847,135.07616117576146L192.7843076923077,133.43975674497713L192.85538461538462,133.11581346623677L192.96738461538462,134.52227409620627L192.9716923076923,133.9976860042783L193.4343384615385,134.1513625715001L193.8284923076923,135.62473520838162L193.95901538461538,133.1659463000473L195.08030769230768,133.3210564942465L195.15827692307693,136.3862157637659L195.20867692307692,136.7972265705337L195.24184615384615,135.78721569924772L195.5494153846154,134.24643501609097L195.79753846153847,134.18851166349373L196.21926153846155,137.29217823375296L196.25716923076922,138.0864711763205L196.97526153846152,137.8093533612336L197.16092307692307,136.50914097410708L197.41938461538462,133.82229538310926L198.0297846153846,134.6193826410136L198.5505846153846,132.30729762393008L198.58332307692308,133.13474101828197L198.9356923076923,136.01206852797665L199.19630769230767,132.8360132324934L199.3953230769231,132.90273623157975L199.5952,131.82896621518995L200.19956923076924,133.56659536059894L200.25126153846153,135.45206053552744L200.4662153846154,133.73160957990717L200.66781538461538,132.92261123477596L201.12227692307692,135.80596089255317L201.29544615384617,137.90245313579737L201.3966769230769,134.475421256631L201.40012307692305,134.3130661408957L201.61636923076924,134.1539987421546L201.99329230769231,133.3259900865861L202.2857846153846,133.29756367551732L202.56793846153846,137.48324840275913L202.98621538461538,138.4903442442922L203.00086153846155,137.62547318819213L203.3092923076923,135.22608085085778L203.42043076923076,132.02275182968276L203.83353846153847,131.9315208564156L203.95587692307694,133.6088595849248L204.50596923076924,136.95074231993985L204.50812307692306,138.55708956463238L204.75840000000002,138.18864955748973L205.13661538461537,136.37207616714153L205.16978461538463,133.08059571592517L205.37655384615385,134.6973654175312L205.56135384615385,133.30088847544855L205.85643076923077,135.38956156770627L205.8939076923077,137.52022342324398L206.02916923076924,136.30728767180528L206.6753230769231,134.14696825661707L206.69858461538462,133.28520963858637L206.72615384615386,133.5076266185705L206.85236923076926,133.72689490653656L206.9566153846154,137.1071537324046L207.44812307692308,134.1147898190174L207.53341538461538,134.31929274517017L207.61827692307693,133.70255611013005L208.19507692307693,132.89952434105058L208.64996923076924,133.52744944693077L208.7537846153846,135.50049037814995L209.01655384615384,134.97621571469818L209.06264615384617,132.9777492251904L209.08073846153846,134.43673474591438L209.3124923076923,134.89703754783548L210.2145230769231,131.6700126421504L210.4368,132.32933946204503L211.40603076923077,133.14220158906173L211.75452307692308,132.41918144614334L211.9096,134.78959056133527L211.9264,135.13999598261415L212.0328,135.3473274292749L212.07544615384617,136.8460312594296L212.0832,135.3496811335874L212.25550769230767,137.18398918781236L212.56953846153846,137.02597326084108L212.5928,136.03718014981825L213.03821538461537,134.04953739897297L213.24283076923075,135.43979128513269L213.2721230769231,135.32004437633475L213.5211076923077,134.08261290662364L214.16812307692308,136.97997073813005L214.55150769230767,134.45036976625755L214.65704615384615,133.53719297105212L214.81083076923076,133.544800418938L214.9068923076923,134.1768126835375L214.99735384615386,134.508308622238L215.4276923076923,135.40702713310537L215.4419076923077,133.573794584154L216.06996923076923,132.88395551483563L216.2104,130.0248945453211L216.3374769230769,132.4641326366928L216.5632,135.55832911128203L216.63255384615385,137.25554166194436L216.78246153846152,135.315482628087L216.96984615384613,136.74044795736063L217.13310769230768,136.89476220550767L217.6819076923077,135.33666053260941L218.43058461538462,134.85897840765466L218.66363076923076,135.89586518828483L218.87470769230768,134.5682181276346L218.89753846153846,135.37763865932612L219.32744615384615,137.01555595484254L219.53335384615386,134.58662329725547L219.6992,133.5363679564722L219.97316923076923,131.75692066173121L220.1097230769231,134.73947329890945L220.2566153846154,136.6636147235168L220.6038153846154,137.0171081384619L220.96695384615387,138.6827946758628L220.9747076923077,141.84890262224437L221.48646153846155,140.9657331939826L222.2377230769231,140.31037067391213L222.5022153846154,138.51584858308877L222.5340923076923,136.26522170669227L222.5776,136.8307295987987L222.92996923076922,136.9560714453449L223.23021538461538,136.53588971435966L223.23926153846153,136.63080044352972L223.4201846153846,136.8322737441299L223.5804307692308,138.07095366870388L223.81261538461536,138.55304435583963L224.0857230769231,137.5623700838865L224.67286153846152,136.97097016701588L224.7702153846154,138.57472072440083L224.9128,135.9419792795044L224.98,134.2273278894342L225.02566153846155,135.7534316934536L225.07304615384618,131.47816236957254L226.1982153846154,134.90981903162208L226.56092307692307,134.5542421250737L226.61003076923075,135.56880039627532L226.70609230769233,134.43622466716278L226.8068923076923,135.47709243770305L226.90381538461537,138.41119018361488L226.9081230769231,135.62561897734116L227.08172307692308,136.9912647026736L227.49095384615384,133.68161823856582L227.5982153846154,130.61814982001636L227.60898461538463,131.85809258404166L227.72787692307693,135.18777582515946L227.78086153846152,135.4106669275145L228.0531076923077,139.51480535555962L228.31587692307693,139.7954509966915L228.4998153846154,137.1858318754044L228.63335384615385,136.49645496058506L228.69710769230767,139.10844855694796L228.70313846153846,138.36099518054024L228.73673846153847,137.99347980447587L230.26510769230768,136.5940942265271L230.2776,134.60028201923842L230.3249846153846,134.79779609791086L230.94701538461538,136.88661823720722L231.10812307692308,137.25712786943313L231.7672,136.07639042634128L231.94123076923077,136.52471146642182L232.55723076923076,136.8977526286782L232.63993846153846,136.70297776815542L232.66233846153847,137.06826574300078L232.92553846153845,135.4638629835507L233.4988923076923,135.39196391592387L234.2484307692308,135.07454078012682L234.28289230769232,137.0152926481603L234.48492307692308,135.53712358694304L235.21033846153847,138.0474727548422L235.7302769230769,138.89239842875372L236.16664615384616,138.6523109864209L236.2596923076923,141.07886847204054L236.36135384615383,138.9301051637297L237.0324923076923,139.1962242806414L237.31464615384616,140.09737662580366L237.33747692307693,137.29409081999512L237.45163076923077,136.991159148598L237.86172307692306,137.56993858074208L237.99526153846153,138.26786365541852L238.2632,138.58006347675942L238.51175384615385,139.4518434849967L239.35218461538463,140.29981841132576L240.17366153846154,140.47307046345196L240.20036923076924,140.50837059075428L240.49501538461539,142.5052406505036L240.70953846153847,139.95917671413946L240.94,140.41569367344218L240.94043076923077,139.10605396804235L241.22603076923076,136.31263469443928L241.25273846153846,135.4117987560404L241.41298461538463,131.08367888970213L241.55169230769232,135.88470192458055L241.81747692307692,139.13371407810342L242.27107692307692,139.48216817273791L242.87673846153845,140.36196883615315L242.95815384615383,138.38117213306703L243.4070153846154,140.30983740841074L243.4169230769231,137.2286791250391L243.4836923076923,138.3419746068289L243.84683076923076,139.07340394897284L243.8886153846154,140.05100476409805L244.02344615384615,140.40563356677183L244.6553846153846,139.77048447012592L244.82553846153846,141.60297533440408L244.84104615384615,142.91044876913918L244.85827692307694,142.72355431282935L244.91298461538463,141.37465964534533L244.94227692307692,141.3993485139528L245.66726153846153,141.48449250261302L246.80061538461538,142.6449601423759L246.8648,142.65873025488963L246.8678153846154,141.75615405221052L247.03193846153846,139.25831350791017L247.53033846153846,142.61552272503116L247.5777230769231,143.7002815858396L247.77932307692308,136.51953475808335L248.78603076923076,138.0397375651314L249.15175384615384,142.27752162385667L249.20775384615385,142.95823975425174L249.33655384615383,141.7087219954801L249.3873846153846,142.25715358264878L249.452,144.70934118752263L249.48000000000002,143.64770315840593L249.8142769230769,141.63792614194605L249.86812307692307,139.34517133267434L250.23815384615384,137.9286265613539L250.42381538461538,142.1863452101888L250.7865230769231,140.28841974169862L250.84726153846154,141.53922759193688L250.88947692307693,144.6122026127488L251.01052307692305,143.40335982334082L251.11476923076924,143.16288252646606L251.38572307692306,142.69103062137893L251.46886153846154,142.9601751565035L251.65796923076923,144.9348393201289L252.31876923076925,144.0123426389371L252.42086153846154,142.1578918618962L252.49495384615383,145.14089190501002L252.63323076923078,143.49103867732302L252.8051076923077,143.83136637045632L252.8344,145.7379398765188L253.4926153846154,146.85951793325074L253.85704615384617,145.10117418844774L253.90529230769232,145.57179398107098L253.91132307692308,143.31215068559385L254.0539076923077,143.95817654645762L254.3227076923077,143.27641650030802L254.6475076923077,146.4825238942491L255.02356923076923,144.60984304901288L255.2492923076923,144.18047663781837L255.56375384615387,144.10561693438171L256.14916923076925,142.91332290606667L256.46147692307693,143.5413694264708L256.89784615384616,144.82902716888296L257.0550769230769,146.64301871832194L257.1787076923077,145.52991099104867L257.56941538461535,145.9787113365268L258.00836923076923,144.29015219788164L258.1220923076923,144.05892527449373L258.4611076923077,144.67790858953146" style="fill: none;" fill="none"></path></g></g></g></g><g opacity="0.2"><g><g><g><path stroke="rgb(0, 119, 187)" stroke-width="2px" d="M27.89316923076923,-14.404261708259583L28.468246153846152,6.775182008743286L28.786584615384612,4.035394012928009L28.984307692307695,8.345384001731873L29.08166153846154,15.93173611164093L29.983261538461537,7.157092809677124L30.164615384615384,8.001157879829407L30.370092307692307,21.415500462055206L30.386461538461536,17.838388860225677L30.505784615384616,13.673229575157166L30.602707692307693,21.575206696987152L30.629846153846152,21.245107054710388L30.70523076923077,19.02817815542221L31.139876923076923,18.593401193618774L31.15193846153846,33.90885776281357L31.550830769230767,29.37476420402527L31.58313846153846,18.082094371318817L31.611569230769234,29.31413322687149L31.716246153846154,29.838796377182007L31.7296,19.560184121131897L31.92129230769231,28.64597922563553L31.996676923076922,24.418606460094452L32.170707692307694,25.41742980480194L32.259446153846156,31.01232808828354L32.396861538461536,29.299595296382904L33.060676923076926,42.84050649404526L33.995015384615385,42.18203741312027L34.00621538461539,44.154733300209045L34.364184615384616,43.82173240184784L34.70104615384615,44.541655361652374L34.74153846153846,41.36220574378967L35.05815384615384,47.84713554382324L35.27009230769231,40.41017174720764L35.485046153846156,37.87126672267914L35.80553846153846,51.31040185689926L36.04461538461538,47.95388066768646L36.04978461538462,55.37295162677765L36.0652923076923,57.94019401073456L36.08855384615385,66.20242273807526L36.104492307692304,56.342635810375214L36.12043076923077,52.28832560777664L36.31341538461538,45.56312960386276L36.38363076923077,50.58102607727051L36.4155076923077,47.465868294239044L36.79544615384615,55.496629536151886L36.997476923076924,53.96154856681824L37.03366153846154,59.25431531667709L37.28824615384616,57.13126051425934L37.30116923076923,55.88777160644531L37.38301538461538,63.31917554140091L37.65784615384615,59.78496032953262L37.77630769230769,42.99618262052536L37.82412307692308,54.64214104413986L38.187261538461534,53.06680119037628L38.23895384615385,52.63356453180313L38.434953846153846,53.05798137187958L38.60941538461539,53.328177988529205L39.07852307692308,45.47559607028961L39.284,64.570925116539L39.655323076923075,58.53171265125275L39.79876923076923,63.92968422174454L40.30233846153846,69.19067430496216L40.33335384615385,58.20448261499405L40.4544,63.47725707292557L40.54356923076923,50.312390863895416L40.56553846153846,58.55384659767151L40.58836923076923,63.61416471004486L40.80849230769231,77.68854832649231L40.87181538461539,64.21822732686996L41.047569230769234,76.5341227054596L41.10529230769231,70.15853333473206L41.170338461538456,63.058389544487L41.46110769230769,59.568516075611115L41.49513846153847,60.05261439085007L42.06720000000001,61.22335034608841L42.16455384615385,72.08680307865143L42.25501538461538,64.06108474731445L42.72412307692308,70.30555844306946L43.06141538461539,73.84534406661987L43.38966153846154,53.70184922218323L43.52492307692307,75.61053156852722L43.56498461538461,63.65719825029373L43.810523076923076,69.14425420761108L44.28695384615385,72.78236603736877L44.366646153846155,62.78877317905426L44.528615384615385,67.71687841415405L44.697907692307695,68.41828608512878L45.761907692307695,78.34165799617767L45.84116923076923,73.87539052963257L45.96953846153846,66.40994167327881L46.78627692307692,74.28749549388885L46.79790769230769,82.47600066661835L46.805230769230775,82.35113060474396L47.41390769230769,70.23525309562683L47.4164923076923,72.48614251613617L47.541415384615384,77.1175389289856L48.25692307692307,75.29365110397339L48.91556923076923,76.27014005184174L49.28086153846154,76.30368912220001L49.76332307692307,76.9041119813919L50.25526153846153,75.94015645980835L50.35606153846153,74.01838552951813L50.536123076923076,75.20830142498016L51.286523076923075,65.11233115196228L51.4024,86.28265964984894L51.51612307692308,81.26553332805634L51.600123076923076,79.45643663406372L51.83532307692308,80.46065104007721L51.886153846153846,77.05913400650024L51.91889230769231,73.89220726490021L52.06492307692308,78.193430185318L52.25058461538462,80.02316272258759L52.45649230769231,83.9148337841034L52.47803076923077,90.31365430355072L52.48750769230769,78.26109802722931L52.50172307692308,83.48527908325195L52.80756923076923,81.63860321044922L52.93076923076923,80.33240497112274L53.99606153846154,72.83739495277405L54.310523076923076,87.84281802177429L54.60603076923077,87.49413979053497L55.16603076923077,84.7340430021286L55.47230769230769,79.97345101833344L55.49513846153846,92.93560910224915L55.50849230769231,88.05552756786346L56.10424615384615,81.74399793148041L56.19987692307692,89.88967001438141L56.36486153846154,89.08006131649017L56.373046153846154,88.65814483165741L57.34141538461538,86.50247991085052L57.83206153846154,103.92740285396576L57.914769230769224,87.02571880817413L58.124553846153844,89.92503368854523L58.522584615384616,87.79059541225433L58.85169230769231,83.40474021434784L58.8883076923077,84.03805804252625L58.9499076923077,96.55829679965973L59.115323076923076,83.20749700069427L59.43538461538461,92.9744120836258L59.66627692307693,91.71391654014587L59.95532307692308,90.44569838047028L59.962215384615384,89.39854538440704L60.224553846153846,95.21652388572693L60.33827692307692,98.90436851978302L60.79532307692308,98.27482759952545L60.934461538461534,91.02966320514679L60.94436923076923,93.9575264453888L61.1476923076923,91.8640433549881L61.62196923076923,77.03539645671844L61.7288,99.12288057804108L61.9136,94.87130606174469L62.293107692307686,91.70682692527771L62.41070769230769,100.62864303588867L62.548123076923076,82.27455854415894L62.59249230769231,91.3150624036789L62.945292307692306,85.34548008441925L63.66984615384616,109.28886079788208L63.879630769230765,98.50454378128052L64.12947692307692,88.45423400402069L64.48615384615384,93.91152834892273L64.90486153846153,88.83884561061859L64.99704615384616,93.80786383152008L65.10990769230769,102.63088953495026L65.36276923076923,97.78910458087921L65.37138461538461,97.44859206676483L65.77415384615385,99.38899433612823L65.7875076923077,91.23454463481903L65.8112,102.73461735248566L65.82627692307692,95.32999992370605L65.83058461538461,90.67227065563202L66.23292307692307,92.35257267951965L66.37464615384616,98.03544759750366L66.39963076923077,89.31811201572418L66.64129230769231,88.02716910839081L66.65335384615385,106.47280669212341L66.87261538461539,102.54292345046997L67.01864615384615,88.52827405929565L67.23058461538461,95.91324734687805L67.35938461538461,91.77595067024231L67.9056,91.56148982048035L68.22781538461538,88.90448784828186L68.93212307692308,99.85277330875397L69.01526153846153,91.25104486942291L69.11132307692307,106.23127448558807L69.40467692307692,97.99449241161346L69.56578461538462,99.13836801052094L70.08356923076923,99.54215955734253L70.26406153846155,95.54937708377838L70.44412307692308,102.40378975868225L71.02695384615384,100.98896849155426L71.20313846153846,96.80191791057587L71.20830769230768,106.71212339401245L71.36295384615384,89.30948209762573L71.70498461538462,95.03767991065979L71.72135384615385,106.6582338809967L71.75236923076923,93.66007912158966L71.86566153846154,103.17676877975464L72.11852307692307,108.2139823436737L72.20036923076923,87.58533418178558L72.35716923076923,98.27619910240173L73.64775384615385,95.83224427700043L73.64818461538462,103.96540403366089L73.70806153846154,98.63905656337738L73.73864615384616,87.88261270523071L73.92430769230769,97.39280354976654L74.0836923076923,103.67852783203125L74.26289230769231,110.46516716480255L74.26806153846154,110.02489364147186L74.94006153846153,99.88395917415619L75.41003076923076,98.31958079338074L76.3784,108.8684424161911L77.14172307692307,114.5230221748352L77.17963076923077,104.53375482559204L77.22098461538462,116.6118632555008L77.46566153846153,97.82643055915833L78.15747692307693,113.5010837316513L78.2419076923077,108.61192917823792L79.09483076923077,100.88089406490326L79.31667692307693,114.4949802160263L79.32227692307693,109.37218487262726L79.35889230769232,102.61797630786896L79.53206153846153,107.09821200370789L79.84953846153846,104.07934427261353L80.10498461538461,114.36629104614258L80.30443076923076,100.45674097537994L80.30658461538461,111.34738111495972L80.46855384615384,103.66166889667511L80.68781538461539,114.47875428199768L81.27883076923078,111.70460486412048L81.41581538461539,105.97427594661713L81.47827692307692,108.58637702465057L81.4980923076923,118.338543176651L81.72424615384615,108.60118925571442L81.74147692307692,105.2816036939621L81.7587076923077,98.57622063159943L81.79101538461538,111.2083740234375L82.05723076923077,103.10222232341766L82.16018461538462,108.49518263339996L82.26012307692308,114.30322301387787L82.54701538461538,106.15807843208313L82.9179076923077,110.32550597190857L82.9782153846154,105.58633053302765L83.55199999999999,107.59731245040894L83.57741538461538,116.80800926685333L83.62867692307692,108.79452896118164L84.44886153846154,108.40930545330048L84.61384615384615,114.31465923786163L84.95587692307691,115.08092844486237L85.43446153846155,109.64338374137878L85.46418461538461,106.62086570262909L85.4659076923077,112.93562364578247L85.8984,116.64176201820374L85.98541538461538,111.49904823303223L86.36061538461539,107.37593078613281L86.40584615384614,103.63225543498993L86.48252307692307,114.94687986373901L86.50406153846154,118.42536985874176L86.52172307692307,115.45737433433533L86.56221538461539,110.19449579715729L86.58332307692308,108.23185408115387L86.69790769230768,108.04298758506775L87.11963076923077,121.6269850730896L87.22387692307692,112.27757656574249L88.26590769230769,110.95930910110474L88.43563076923077,115.08124494552612L88.49421538461539,119.26781022548676L88.50067692307692,106.89278197288513L88.89483076923078,119.39141428470612L89.1003076923077,116.84550404548645L89.22953846153847,113.5266991853714L89.31224615384615,105.95237410068512L90.07987692307691,115.69688093662262L90.23926153846155,126.94755113124847L90.42104615384615,112.45232713222504L90.44258461538462,118.78831171989441L90.51667692307691,110.52479588985443L90.83286153846153,118.64620292186737L90.84492307692307,117.57938468456268L90.92073846153846,109.47276878356934L91.17273846153846,111.86201119422913L91.28301538461538,118.53285348415375L91.44498461538461,118.56705665588379L91.53372307692308,109.02110123634338L91.75169230769231,115.97440981864929L92.3216,102.26758897304535L92.68344615384616,112.4550279378891L92.74073846153846,110.44265341758728L92.82818461538461,115.7240788936615L93.44461538461537,112.29907751083374L93.5144,127.30319237709045L93.62123076923078,121.82310998439789L93.7900923076923,112.48060119152069L94.34320000000001,117.1154580116272L94.44227692307693,114.93721604347229L94.57969230769231,121.77213227748871L94.61803076923076,112.16302442550659L94.71495384615385,120.57846057415009L94.84676923076923,124.73922049999237L95.33052307692309,104.75503098964691L95.34732307692309,111.84662926197052L95.35163076923077,113.3625830411911L95.91206153846154,121.60588502883911L95.96418461538462,119.22044062614441L95.99864615384615,117.95386826992035L96.1632,124.20842778682709L96.24418461538463,115.1666579246521L96.63230769230769,131.44694566726685L97.46455384615385,116.01112389564514L97.97803076923077,115.25122690200806L98.15636923076923,128.07931530475616L98.35796923076923,117.49283230304718L98.37519999999999,111.888702750206L98.58800000000001,111.4803535938263L98.91926153846154,119.75110673904419L99.06916923076923,113.97119271755219L99.38492307692307,120.59504520893097L99.41033846153846,117.10528779029846L99.63735384615384,117.00624418258667L99.83120000000001,117.22100043296814L100.15298461538461,119.24761748313904L100.19950769230769,123.12175440788269L100.20166153846155,122.72359657287598L100.34036923076923,115.51776266098022L100.4808,119.21928012371063L100.97403076923077,120.15384328365326L101.10843076923078,120.65737473964691L101.51593846153845,119.89543104171753L101.6132923076923,130.08808171749115L101.98246153846154,107.25988054275513L102.004,112.43947720527649L102.2336,114.43691289424896L102.34904615384616,113.96836531162262L102.36886153846154,123.02984261512756L102.91507692307692,126.55644071102142L102.94221538461538,116.07598543167114L103.20455384615384,119.5179512500763L103.37901538461539,117.56368625164032L103.42338461538462,124.04853165149689L104.18584615384614,120.6265264749527L105.22055384615385,117.1763527393341L105.51132307692308,124.73341798782349L105.55526153846154,115.454230427742L105.64959999999999,121.02301740646362L106.1256,121.63282978534698L106.14713846153846,113.48823380470276L106.7596923076923,128.53940176963806L107.03926153846155,119.15500938892365L107.04098461538462,120.3782422542572L107.22664615384616,125.93436920642853L107.38775384615384,126.02377009391785L107.62381538461538,126.53785157203674L108.13556923076924,130.8897989988327L108.30098461538462,126.97675359249115L108.35870769230769,121.35485780239105L110.1606153846154,124.75859034061432L110.56467692307692,119.06039679050446L110.80504615384616,124.31498301029205L111.29483076923077,118.15588009357452L111.37452307692307,133.0585881471634L111.82769230769232,119.66887986660004L111.91513846153846,120.83301150798798L112.36658461538461,120.97919261455536L112.56215384615385,119.51451194286346L113.16566153846153,124.53801047801971L113.19839999999999,123.79695582389832L113.49563076923077,121.51764464378357L113.60461538461539,120.79387092590332L114.12455384615384,130.4292061328888L114.39249230769231,130.4680724143982L114.42264615384616,124.63781368732452L114.43513846153846,129.92396557331085L115.21569230769231,127.4737229347229L115.36732307692307,121.72166097164154L115.37723076923078,123.4680483341217L115.92387692307693,123.02241539955139L116.04233846153846,127.4175124168396L116.07292307692308,119.28897356987L116.24652307692308,119.97797441482544L116.49249230769232,121.70794594287872L116.67858461538462,130.9094431400299L117.01156923076924,129.67082834243774L117.65341538461539,126.80240392684937L118.21600000000001,119.14922797679901L118.37021538461538,125.95656645298004L118.81864615384616,124.10440456867218L118.86086153846153,130.5091120004654L118.86603076923076,118.83969032764435L119.31920000000001,127.46798372268677L119.55741538461538,122.4262125492096L119.55827692307693,120.63005018234253L119.64615384615385,127.78524398803711L119.8232,127.90561974048615L119.82449230769231,131.10423874855042L120.00196923076922,126.7994921207428L120.12732307692308,130.56918382644653L120.19323076923077,133.81230282783508L120.2488,131.734032869339L120.53698461538463,131.7619904279709L120.87212307692307,122.19246625900269L121.3184,127.26147758960724L121.36707692307692,132.69653248786926L121.37483076923077,128.09560453891754L121.4795076923077,129.61552512645721L121.9244923076923,131.0709217786789L121.93095384615386,128.050239443779L121.99427692307692,130.20233845710754L122.0700923076923,127.40774309635162L122.12523076923077,128.88784790039062L122.34923076923077,127.6117172241211L122.54652307692308,123.47342884540558L122.6076923076923,128.28132712841034L122.6748923076923,119.30956721305847L122.71538461538461,124.23665964603424L123.40203076923076,122.99532294273376L123.89224615384614,123.124560713768L124.13649230769231,122.530109167099L124.22221538461538,135.20313334465027L124.4475076923077,133.59476137161255L124.77273846153847,132.2428604364395L125.39046153846154,133.72769165039062L125.43267692307693,123.12675511837006L125.61963076923078,127.32853353023529L125.73895384615385,129.30440497398376L126.26750769230769,132.93916189670563L126.83913846153845,127.6311925649643L127.18892307692307,129.02288818359375L127.33366153846154,124.6323276758194L127.71575384615385,131.15089094638824L127.96000000000001,131.12565529346466L128.04055384615384,122.6229282617569L128.29772307692306,128.67646765708923L128.58461538461538,125.08716022968292L128.89261538461537,127.01479697227478L129.04209230769231,131.94980192184448L129.136,130.92421317100525L129.40566153846154,135.24854063987732L129.59907692307692,127.95317924022675L129.7606153846154,131.61492311954498L129.80412307692308,127.85784924030304L129.80972307692306,126.32896113395691L129.92043076923076,134.58635795116425L130.0376,123.84244751930237L130.14356923076923,126.55234730243683L130.40763076923076,135.01291644573212L130.51058461538463,127.91802656650543L130.87803076923078,128.14508414268494L130.93316923076924,126.28895545005798L131.01027692307693,128.1390917301178L131.0486153846154,125.39370167255402L131.3803076923077,130.76760864257812L131.60947692307693,128.8584555387497L131.92566153846153,133.93691968917847L132.0182769230769,129.54846918582916L132.49815384615385,127.25179266929626L132.56061538461537,132.39678525924683L132.62221538461537,131.84084129333496L132.71612307692308,124.81467425823212L132.88412307692306,134.27283239364624L132.9496,129.78455758094788L132.95433846153847,132.91974985599518L133.21796923076923,130.20480716228485L133.34676923076924,135.48492443561554L133.42258461538464,135.48956644535065L133.56,132.83674228191376L133.74135384615386,132.00461983680725L134.3315076923077,131.16732788085938L134.41163076923078,131.2096334695816L134.44867692307693,131.49182546138763L134.55852307692308,134.47573041915894L135.02892307692306,138.45104205608368L135.14264615384616,133.4759259223938L135.46443076923077,136.163227558136L135.5984,135.22568929195404L135.74012307692308,134.5130774974823L135.77975384615385,129.4075630903244L136.6878153846154,135.36554038524628L136.68867692307694,132.3680680990219L136.72701538461538,135.51864230632782L137.0668923076923,127.38484954833984L137.0793846153846,128.03367590904236L137.31846153846152,133.2083773612976L137.7780923076923,129.94000160694122L138.1016,110.61983048915863L138.21704615384616,122.74389481544495L138.2988923076923,128.47255682945251L138.35618461538462,125.36378180980682L138.516,121.54583430290222L138.73827692307694,122.12701392173767L138.85458461538462,127.93001139163971L139.0294769230769,126.38093054294586L139.11003076923078,133.41129648685455L140.16929230769233,124.55001640319824L140.17058461538463,127.97102987766266L140.2227076923077,129.71351373195648L140.75643076923075,123.99160373210907L141.04547692307693,126.92066967487335L141.60763076923078,121.45468211174011L141.6644923076923,119.8122546672821L141.73729230769231,117.66253995895386L141.9195076923077,135.6757321357727L141.9233846153846,133.2313553094864L141.93200000000002,128.93855130672455L142.09913846153847,125.88891971111298L142.34123076923075,123.91285836696625L142.41230769230768,127.92330157756805L142.53507692307693,125.70397782325745L142.69575384615385,123.19165885448456L142.80689230769232,135.3644642829895L142.8784,117.65203213691711L143.1049846153846,127.54658138751984L143.2859076923077,122.42032563686371L143.73993846153846,121.94093263149261L143.99667692307693,116.89971005916595L144.24738461538462,118.84072422981262L144.52738461538462,125.53169596195221L145.0288,129.73615407943726L145.21446153846156,126.5446879863739L145.21790769230768,114.97068071365356L145.32215384615384,126.93862581253052L145.91316923076923,127.60450100898743L145.9889846153846,126.03138720989227L146.12467692307692,127.65552091598511L146.17292307692307,123.0095865726471L146.43956923076922,127.74652540683746L146.7971076923077,129.58436036109924L147.7435076923077,121.28818166255951L148.09113846153846,127.98902821540833L148.16652307692308,122.56080973148346L148.7713230769231,124.63519728183746L148.84240000000003,120.32228493690491L149.40498461538462,133.04905092716217L150.03692307692307,126.70270621776581L150.06363076923077,120.6998702287674L150.38843076923075,125.35323178768158L150.52455384615385,123.15827858448029L151.0531076923077,128.9234436750412L151.10393846153846,132.49521696567535L151.17286153846155,130.7229187488556L151.18793846153847,127.53164255619049L151.53255384615383,132.23429381847382L151.7910153846154,126.49358367919922L151.81815384615385,130.62054133415222L152.0641230769231,132.60637199878693L152.47593846153845,128.64709639549255L152.5857846153846,129.45681059360504L153.02646153846152,130.16239607334137L153.5433846153846,128.69763100147247L153.87206153846154,132.19030022621155L154.3622769230769,125.26895821094513L154.55353846153844,123.83466160297394L154.61944615384616,125.70359802246094L154.93692307692308,132.31451618671417L154.94424615384617,128.72997736930847L155.00972307692308,119.19370687007904L155.02178461538463,124.45221769809723L155.1721230769231,137.99059689044952L155.7502153846154,138.8684220314026L156.15815384615385,134.11048865318298L156.2300923076923,121.34255647659302L156.65224615384616,129.57921195030212L156.72504615384614,135.67910814285278L156.89089230769233,126.3264080286026L157.26824615384615,123.28593385219574L157.44873846153845,142.53501892089844L157.7097846153846,128.5732673406601L158.35507692307692,128.13147461414337L158.4881846153846,129.3665235042572L158.66135384615384,128.64028108119965L158.8414153846154,128.83781969547272L158.96332307692307,127.45958590507507L159.10246153846154,132.9234001636505L159.32,124.4682115316391L159.35101538461538,126.49366807937622L159.46646153846154,137.12844908237457L159.51341538461537,130.63467836380005L159.66504615384616,131.227104306221L159.71415384615383,122.93727672100067L159.74387692307693,128.07659339904785L159.75593846153845,132.68374586105347L159.93987692307692,125.75776183605194L160.37236923076924,130.37757432460785L160.63858461538462,135.37649130821228L160.65624615384615,137.02731657028198L161.196,131.70341670513153L161.36141538461538,129.4722980260849L161.5220923076923,129.7184933423996L162.21606153846156,133.62212812900543L162.80147692307693,127.73698818683624L163.01858461538464,130.49299156665802L163.0190153846154,121.85988736152649L163.23655384615384,132.8515967130661L163.52043076923076,128.9296681880951L163.66516923076924,124.21226799488068L163.7875076923077,132.39976036548615L164.0619076923077,125.66694724559784L164.34923076923076,134.15013563632965L164.48319999999998,132.4691162109375L164.4948307692308,132.4954490661621L164.55987692307693,128.77371776103973L164.6158769230769,127.94013941287994L164.81446153846153,133.33466112613678L165.04535384615386,129.07190358638763L165.07464615384615,127.88131248950958L165.2633230769231,128.4117043018341L165.55495384615384,127.54934549331665L165.55753846153846,135.839173078537L165.57003076923075,136.01369154453278L166.06412307692307,130.51449251174927L166.3897846153846,132.7091714143753L166.39366153846154,126.38548815250397L166.53624615384615,129.31826770305634L167.38916923076923,135.4762101173401L167.40123076923078,130.36147499084473L167.46756923076924,136.476921916008L168.70215384615383,132.32620561122894L168.72196923076922,132.45592868328094L168.72756923076923,129.78681528568268L169.2625846153846,129.69764649868011L169.29876923076924,129.11254227161407L169.88116923076922,123.44165217876434L169.8940923076923,132.80279231071472L169.97464615384615,132.1445553302765L170.2145846153846,132.912407040596L170.26326153846153,124.07625710964203L171.00246153846155,130.34410965442657L171.4638153846154,132.3507660627365L171.61716923076924,129.3690766096115L171.78215384615385,129.76909124851227L171.96695384615384,138.3314048051834L173.3454153846154,130.22354400157928L173.37470769230768,132.55701899528503L173.37686153846155,127.11671018600464L173.62283076923077,134.0787752866745L175.12276923076922,132.0129965543747L175.65175384615384,136.52484011650085L175.72024615384615,132.6403852701187L175.75384615384615,132.09279692173004L175.7684923076923,140.21063804626465L175.93476923076923,142.4623292684555L176.03126153846154,127.88755810260773L176.27852307692308,128.6063311100006L176.45384615384617,125.07990181446075L176.68732307692306,129.89875102043152L176.73729230769231,128.2619994878769L176.87729230769233,126.10376036167145L177.02633846153844,143.46698677539825L177.3377846153846,124.73487389087677L177.3731076923077,139.25799214839935L177.55833846153845,141.5888296365738L177.86030769230769,132.39448535442352L178.4078153846154,124.05062055587769L178.59519999999998,134.18478190898895L178.60726153846153,128.67391455173492L178.85193846153848,127.56882083415985L179.49723076923078,136.77763974666595L180.12012307692308,135.51891660690308L180.29415384615385,132.95580983161926L180.71716923076923,128.57400584220886L180.84467692307692,131.52415072917938L181.20393846153846,133.29402244091034L181.32756923076923,129.1354147195816L181.38227692307692,132.6074481010437L181.4094153846154,135.64157116413116L181.58646153846152,134.08033668994904L182.48978461538462,140.0459522008896L182.73015384615385,135.8309440612793L182.93175384615384,134.00680303573608L183.01575384615387,138.3196942806244L183.10449230769228,132.84397959709167L183.22984615384615,132.5832885503769L183.83895384615386,134.6702517271042L183.90141538461538,139.59466445446014L183.9750769230769,138.85242819786072L184.0134153846154,136.97975707054138L184.25163076923076,130.56802332401276L184.3830153846154,135.87761735916138L185.0296,138.36212646961212L185.06966153846153,127.23778223991394L185.30744615384614,128.10098505020142L185.42203076923076,137.266211271286L185.8540923076923,132.12318098545074L186.0931692307692,128.3790203332901L186.2766769230769,140.5176647901535L186.39556923076924,136.96829974651337L186.48516923076923,135.7945042848587L186.78843076923076,126.60138380527496L186.79316923076922,132.19625043869019L187.26055384615384,140.5650554895401L187.51169230769233,140.4336655139923L187.61766153846153,131.26369178295135L187.7748923076923,135.04435551166534L187.84036923076923,136.5765563249588L187.91963076923076,135.59667026996613L188.43138461538462,141.29420971870422L188.4585230769231,134.51826810836792L188.5756923076923,141.23344159126282L188.62480000000002,135.55525088310242L188.79452307692307,127.80503582954407L188.944,125.20827448368073L189.0883076923077,130.59028387069702L189.27784615384616,134.63332664966583L189.96836923076924,132.42375111579895L190.40775384615387,131.32190680503845L190.9083076923077,134.31186747550964L191.31753846153848,135.5330958366394L191.55618461538464,131.95771443843842L191.85384615384615,137.80873560905457L192.04036923076922,128.48532235622406L192.39273846153847,132.49869847297668L192.67273846153847,139.03507018089294L192.7843076923077,130.98515009880066L192.85538461538462,132.62989854812622L192.96738461538462,136.63196504116058L192.9716923076923,133.2108038663864L193.4343384615385,134.38187742233276L193.8284923076923,137.83479416370392L193.95901538461538,129.47776293754578L195.08030769230768,133.55372178554535L195.15827692307693,140.98395466804504L195.20867692307692,137.41374278068542L195.24184615384615,134.27219939231873L195.5494153846154,131.9352639913559L195.79753846153847,134.10162663459778L196.21926153846155,141.94767808914185L196.25716923076922,139.2779105901718L196.97526153846152,137.3936766386032L197.16092307692307,134.55882239341736L197.41938461538462,129.79202699661255L198.0297846153846,135.81501352787018L198.5505846153846,128.83917009830475L198.58332307692308,134.37590610980988L198.9356923076923,140.32805979251862L199.19630769230767,128.0719302892685L199.3953230769231,133.00282073020935L199.5952,130.21831119060516L200.19956923076924,136.17303907871246L200.25126153846153,138.28025829792023L200.4662153846154,131.15093314647675L200.66781538461538,131.70911371707916L201.12227692307692,140.13098537921906L201.29544615384617,141.04719150066376L201.3966769230769,129.33487343788147L201.40012307692305,134.06953346729279L201.61636923076924,133.91539764404297L201.99329230769231,132.08397710323334L202.2857846153846,133.25492405891418L202.56793846153846,143.76177549362183L202.98621538461538,140.0009880065918L203.00086153846155,136.32816660404205L203.3092923076923,131.62699234485626L203.42043076923076,127.21775829792023L203.83353846153847,131.7946743965149L203.95587692307694,136.1248676776886L204.50596923076924,141.96356642246246L204.50812307692306,140.96661043167114L204.75840000000002,137.63598954677582L205.13661538461537,133.64721608161926L205.16978461538463,128.14337503910065L205.37655384615385,137.12251996994019L205.56135384615385,131.20617306232452L205.85643076923077,138.52257120609283L205.8939076923077,140.7162162065506L206.02916923076924,134.48788404464722L206.6753230769231,130.90648913383484L206.69858461538462,131.99257171154022L206.72615384615386,133.84125208854675L206.85236923076926,134.05579733848572L206.9566153846154,142.17754197120667L207.44812307692308,129.62624394893646L207.53341538461538,134.6260471343994L207.61827692307693,132.77745115756989L208.19507692307693,131.69497668743134L208.64996923076924,134.46933710575104L208.7537846153846,138.46005177497864L209.01655384615384,134.18980371952057L209.06264615384617,129.98004949092865L209.08073846153846,136.62521302700043L209.3124923076923,135.58749175071716L210.2145230769231,126.82947528362274L210.4368,133.3183296918869L211.40603076923077,134.3614947795868L211.75452307692308,131.33465123176575L211.9096,138.34520423412323L211.9264,135.66560411453247L212.0328,135.65832459926605L212.07544615384617,139.09408700466156L212.0832,133.10515594482422L212.25550769230767,139.93545126914978L212.56953846153846,136.78894937038422L212.5928,134.553990483284L213.03821538461537,131.06807327270508L213.24283076923075,137.52517211437225L213.2721230769231,135.14042401313782L213.5211076923077,132.22646570205688L214.16812307692308,141.3260074853897L214.55150769230767,130.6559683084488L214.65704615384615,132.16742777824402L214.81083076923076,133.5562115907669L214.9068923076923,135.1248310804367L214.99735384615386,135.0055525302887L215.4276923076923,136.75510489940643L215.4419076923077,130.82394576072693L216.06996923076923,131.84919691085815L216.2104,125.7363030910492L216.3374769230769,136.1229897737503L216.5632,140.1996238231659L216.63255384615385,139.80136048793793L216.78246153846152,132.40539407730103L216.96984615384613,138.87789595127106L217.13310769230768,137.12623357772827L217.6819076923077,132.99950802326202L218.43058461538462,134.14245522022247L218.66363076923076,137.45119535923004L218.87470769230768,132.57674753665924L218.89753846153846,136.5917694568634L219.32744615384615,139.47243189811707L219.53335384615386,130.94322431087494L219.6992,131.96098494529724L219.97316923076923,129.08774971961975L220.1097230769231,139.21330225467682L220.2566153846154,139.54982686042786L220.6038153846154,137.54734826087952L220.96695384615387,141.1813244819641L220.9747076923077,146.5980645418167L221.48646153846155,139.64097905158997L222.2377230769231,139.32732689380646L222.5022153846154,135.82406544685364L222.5340923076923,132.88928139209747L222.5776,137.6789914369583L222.92996923076922,137.14408421516418L223.23021538461538,135.90561711788177L223.23926153846153,136.77316653728485L223.4201846153846,137.1344836950302L223.5804307692308,139.92897355556488L223.81261538461536,139.27618038654327L224.0857230769231,136.07635867595673L224.67286153846152,136.0838702917099L224.7702153846154,140.9803465604782L224.9128,131.99286711215973L224.98,131.65535080432892L225.02566153846155,138.04258739948273L225.07304615384618,125.06525838375092L226.1982153846154,140.05730402469635L226.56092307692307,134.02087676525116L226.61003076923075,137.0906378030777L226.70609230769233,132.73736107349396L226.8068923076923,137.0383940935135L226.90381538461537,142.8123368024826L226.9081230769231,131.4472621679306L227.08172307692308,139.0397332906723L227.49095384615384,128.71714854240417L227.5982153846154,126.02294719219208L227.60898461538463,133.71800673007965L227.72787692307693,140.18230068683624L227.78086153846152,135.74500358104706L228.0531076923077,145.67101299762726L228.31587692307693,140.21641945838928L228.4998153846154,133.27140319347382L228.63335384615385,135.46238958835602L228.69710769230767,143.0264389514923L228.70313846153846,137.23981511592865L228.73673846153847,137.44220674037933L230.26510769230768,134.49501585960388L230.2776,131.60956370830536L230.3249846153846,135.0940672159195L230.94701538461538,140.01985144615173L231.10812307692308,137.8128923177719L231.7672,134.3052842617035L231.94123076923077,137.19719302654266L232.55723076923076,137.45731437206268L232.63993846153846,136.41081547737122L232.66233846153847,137.61619770526886L232.92553846153845,133.0572588443756L233.4988923076923,135.28411531448364L234.2484307692308,134.59840607643127L234.28289230769232,139.92642045021057L234.48492307692308,133.3198699951172L235.21033846153847,141.81299650669098L235.7302769230769,140.15978693962097L236.16664615384616,138.29217982292175L236.2596923076923,144.71870470046997L236.36135384615383,135.70696020126343L237.0324923076923,139.5954029560089L237.31464615384616,141.44910514354706L237.33747692307693,133.08916211128235L237.45163076923077,136.53676164150238L237.86172307692306,138.43810772895813L237.99526153846153,139.31475126743317L238.2632,139.04836320877075L238.51175384615385,140.7595134973526L239.35218461538463,141.5717808008194L240.17366153846154,140.73294854164124L240.20036923076924,140.56132078170776L240.49501538461539,145.50054574012756L240.70953846153847,136.1400808095932L240.94,141.10046911239624L240.94043076923077,137.14159440994263L241.22603076923076,132.12250578403473L241.25273846153846,134.06054484844208L241.41298461538463,124.5914990901947L241.55169230769232,143.0862364768982L241.81747692307692,144.00723230838776L242.27107692307692,140.00484931468964L242.87673846153845,141.68166983127594L242.95815384615383,135.4099770784378L243.4070153846154,143.2028353214264L243.4169230769231,132.6069416999817L243.4836923076923,140.01191782951355L243.84683076923076,140.17054796218872L243.8886153846154,141.5174059867859L244.02344615384615,140.93757677078247L244.6553846153846,138.81776082515717L244.82553846153846,144.35171163082123L244.84104615384615,144.87165892124176L244.85827692307694,142.44321262836456L244.91298461538463,139.35131764411926L244.94227692307692,141.436381816864L245.66726153846153,141.61220848560333L246.80061538461538,144.38566160202026L246.8648,142.67938542366028L246.8678153846154,140.40228974819183L247.03193846153846,135.51155269145966L247.53033846153846,147.65133655071259L247.5777230769231,145.3274198770523L247.77932307692308,125.74841451644897L248.78603076923076,140.32004177570343L249.15175384615384,148.63419771194458L249.20775384615385,143.97931694984436L249.33655384615383,139.8344453573227L249.3873846153846,143.0798009634018L249.452,148.38762259483337L249.48000000000002,142.05524611473083L249.8142769230769,138.62326061725616L249.86812307692307,135.90603911876678L250.23815384615384,135.80380940437317L250.42381538461538,148.57292318344116L250.7865230769231,137.44153153896332L250.84726153846154,143.4154393672943L250.88947692307693,149.22166514396667L251.01052307692305,141.59009563922882L251.11476923076924,142.80216658115387L251.38572307692306,141.98325276374817L251.46886153846154,143.36389195919037L251.65796923076923,147.89683556556702L252.31876923076925,142.62859761714935L252.42086153846154,139.37621569633484L252.49495384615383,149.6153919696808L252.63323076923078,141.01625883579254L252.8051076923077,144.34185791015625L252.8344,148.5978001356125L253.4926153846154,148.5418850183487L253.85704615384617,142.4636585712433L253.90529230769232,146.2777236700058L253.91132307692308,139.92268574237823L254.0539076923077,144.9272153377533L254.3227076923077,142.25377643108368L254.6475076923077,151.29168498516083L255.02356923076923,141.80082178115845L255.2492923076923,143.5364270210266L255.56375384615387,143.99332737922668L256.14916923076925,141.12488186359406L256.46147692307693,144.48343920707703L256.89784615384616,146.76051378250122L257.0550769230769,149.36400604248047L257.1787076923077,143.86024940013885L257.56941538461535,146.65191185474396L258.00836923076923,141.75731348991394L258.1220923076923,143.71208488941193L258.4611076923077,145.606383562088" style="fill: none;" fill="none"></path></g></g></g></g></g></g><g transform="translate(50, 177)" clip-path="url(#clip_1)"><clipPath id="clip_1"><rect width="280" height="23"></rect></clipPath><g><g><line x1="0" y1="0" x2="0" y2="5" style="visibility: inherit;" fill="rgb(0, 0, 0)" stroke="rgb(204, 204, 204)" stroke-width="1px"></line><line x1="21.53846153846154" y1="0" x2="21.53846153846154" y2="5" style="visibility: inherit;" fill="rgb(0, 0, 0)" stroke="rgb(204, 204, 204)" stroke-width="1px"></line><line x1="43.07692307692308" y1="0" x2="43.07692307692308" y2="5" style="visibility: inherit;" fill="rgb(0, 0, 0)" stroke="rgb(204, 204, 204)" stroke-width="1px"></line><line x1="64.61538461538461" y1="0" x2="64.61538461538461" y2="5" style="visibility: inherit;" fill="rgb(0, 0, 0)" stroke="rgb(204, 204, 204)" stroke-width="1px"></line><line x1="86.15384615384616" y1="0" x2="86.15384615384616" y2="5" style="visibility: inherit;" fill="rgb(0, 0, 0)" stroke="rgb(204, 204, 204)" stroke-width="1px"></line><line x1="107.6923076923077" y1="0" x2="107.6923076923077" y2="5" style="visibility: inherit;" fill="rgb(0, 0, 0)" stroke="rgb(204, 204, 204)" stroke-width="1px"></line><line x1="129.23076923076923" y1="0" x2="129.23076923076923" y2="5" style="visibility: inherit;" fill="rgb(0, 0, 0)" stroke="rgb(204, 204, 204)" stroke-width="1px"></line><line x1="150.76923076923077" y1="0" x2="150.76923076923077" y2="5" style="visibility: inherit;" fill="rgb(0, 0, 0)" stroke="rgb(204, 204, 204)" stroke-width="1px"></line><line x1="172.30769230769232" y1="0" x2="172.30769230769232" y2="5" style="visibility: inherit;" fill="rgb(0, 0, 0)" stroke="rgb(204, 204, 204)" stroke-width="1px"></line><line x1="193.84615384615384" y1="0" x2="193.84615384615384" y2="5" style="visibility: inherit;" fill="rgb(0, 0, 0)" stroke="rgb(204, 204, 204)" stroke-width="1px"></line><line x1="215.3846153846154" y1="0" x2="215.3846153846154" y2="5" style="visibility: inherit;" fill="rgb(0, 0, 0)" stroke="rgb(204, 204, 204)" stroke-width="1px"></line><line x1="236.92307692307693" y1="0" x2="236.92307692307693" y2="5" style="visibility: inherit;" fill="rgb(0, 0, 0)" stroke="rgb(204, 204, 204)" stroke-width="1px"></line><line x1="258.46153846153845" y1="0" x2="258.46153846153845" y2="5" style="visibility: inherit;" fill="rgb(0, 0, 0)" stroke="rgb(204, 204, 204)" stroke-width="1px"></line><line x1="280" y1="0" x2="280" y2="5" style="visibility: inherit;" fill="rgb(0, 0, 0)" stroke="rgb(204, 204, 204)" stroke-width="1px"></line></g><g transform="translate(0, 8)"><text x="0" y="0" dx="0em" dy="0.95em" style="text-anchor: middle; visibility: hidden; font-family: &quot;Helvetica Neue&quot;, sans-serif; font-size: 12px; font-weight: 200;" fill="rgb(50, 49, 63)" stroke="none" stroke-width="1px">-50k</text><text x="21.53846153846154" y="0" dx="0em" dy="0.95em" style="text-anchor: middle; visibility: inherit; font-family: &quot;Helvetica Neue&quot;, sans-serif; font-size: 12px; font-weight: 200;" fill="rgb(50, 49, 63)" stroke="none" stroke-width="1px">0</text><text x="43.07692307692308" y="0" dx="0em" dy="0.95em" style="text-anchor: middle; visibility: hidden; font-family: &quot;Helvetica Neue&quot;, sans-serif; font-size: 12px; font-weight: 200;" fill="rgb(50, 49, 63)" stroke="none" stroke-width="1px">50k</text><text x="64.61538461538461" y="0" dx="0em" dy="0.95em" style="text-anchor: middle; visibility: inherit; font-family: &quot;Helvetica Neue&quot;, sans-serif; font-size: 12px; font-weight: 200;" fill="rgb(50, 49, 63)" stroke="none" stroke-width="1px">100k</text><text x="86.15384615384616" y="0" dx="0em" dy="0.95em" style="text-anchor: middle; visibility: hidden; font-family: &quot;Helvetica Neue&quot;, sans-serif; font-size: 12px; font-weight: 200;" fill="rgb(50, 49, 63)" stroke="none" stroke-width="1px">150k</text><text x="107.6923076923077" y="0" dx="0em" dy="0.95em" style="text-anchor: middle; visibility: inherit; font-family: &quot;Helvetica Neue&quot;, sans-serif; font-size: 12px; font-weight: 200;" fill="rgb(50, 49, 63)" stroke="none" stroke-width="1px">200k</text><text x="129.23076923076923" y="0" dx="0em" dy="0.95em" style="text-anchor: middle; visibility: hidden; font-family: &quot;Helvetica Neue&quot;, sans-serif; font-size: 12px; font-weight: 200;" fill="rgb(50, 49, 63)" stroke="none" stroke-width="1px">250k</text><text x="150.76923076923077" y="0" dx="0em" dy="0.95em" style="text-anchor: middle; visibility: inherit; font-family: &quot;Helvetica Neue&quot;, sans-serif; font-size: 12px; font-weight: 200;" fill="rgb(50, 49, 63)" stroke="none" stroke-width="1px">300k</text><text x="172.30769230769232" y="0" dx="0em" dy="0.95em" style="text-anchor: middle; visibility: hidden; font-family: &quot;Helvetica Neue&quot;, sans-serif; font-size: 12px; font-weight: 200;" fill="rgb(50, 49, 63)" stroke="none" stroke-width="1px">350k</text><text x="193.84615384615384" y="0" dx="0em" dy="0.95em" style="text-anchor: middle; visibility: inherit; font-family: &quot;Helvetica Neue&quot;, sans-serif; font-size: 12px; font-weight: 200;" fill="rgb(50, 49, 63)" stroke="none" stroke-width="1px">400k</text><text x="215.3846153846154" y="0" dx="0em" dy="0.95em" style="text-anchor: middle; visibility: hidden; font-family: &quot;Helvetica Neue&quot;, sans-serif; font-size: 12px; font-weight: 200;" fill="rgb(50, 49, 63)" stroke="none" stroke-width="1px">450k</text><text x="236.92307692307693" y="0" dx="0em" dy="0.95em" style="text-anchor: middle; visibility: inherit; font-family: &quot;Helvetica Neue&quot;, sans-serif; font-size: 12px; font-weight: 200;" fill="rgb(50, 49, 63)" stroke="none" stroke-width="1px">500k</text><text x="258.46153846153845" y="0" dx="0em" dy="0.95em" style="text-anchor: middle; visibility: hidden; font-family: &quot;Helvetica Neue&quot;, sans-serif; font-size: 12px; font-weight: 200;" fill="rgb(50, 49, 63)" stroke="none" stroke-width="1px">550k</text><text x="280" y="0" dx="0em" dy="0.95em" style="text-anchor: middle; visibility: hidden; font-family: &quot;Helvetica Neue&quot;, sans-serif; font-size: 12px; font-weight: 200;" fill="rgb(50, 49, 63)" stroke="none" stroke-width="1px">600k</text></g><line x1="0" y1="0" x2="280" y2="0" fill="rgb(0, 0, 0)" stroke="rgb(204, 204, 204)" stroke-width="1px"></line></g></g></g></g></svg>