<svg viewBox="0 0 330 200" xmlns="http://www.w3.org/2000/svg"><g><g><g><g><g><line x1="50" y1="177" x2="45" y2="177" style="visibility: inherit;" fill="rgb(0, 0, 0)" stroke="rgb(204, 204, 204)" stroke-width="1px"></line><line x1="50" y1="157.33333333333334" x2="45" y2="157.33333333333334" style="visibility: inherit;" fill="rgb(0, 0, 0)" stroke="rgb(204, 204, 204)" stroke-width="1px"></line><line x1="50" y1="137.66666666666669" x2="45" y2="137.66666666666669" style="visibility: inherit;" fill="rgb(0, 0, 0)" stroke="rgb(204, 204, 204)" stroke-width="1px"></line><line x1="50" y1="118" x2="45" y2="118" style="visibility: inherit;" fill="rgb(0, 0, 0)" stroke="rgb(204, 204, 204)" stroke-width="1px"></line><line x1="50" y1="98.33333333333334" x2="45" y2="98.33333333333334" style="visibility: inherit;" fill="rgb(0, 0, 0)" stroke="rgb(204, 204, 204)" stroke-width="1px"></line><line x1="50" y1="78.66666666666666" x2="45" y2="78.66666666666666" style="visibility: inherit;" fill="rgb(0, 0, 0)" stroke="rgb(204, 204, 204)" stroke-width="1px"></line><line x1="50" y1="59" x2="45" y2="59" style="visibility: inherit;" fill="rgb(0, 0, 0)" stroke="rgb(204, 204, 204)" stroke-width="1px"></line><line x1="50" y1="39.33333333333334" x2="45" y2="39.33333333333334" style="visibility: inherit;" fill="rgb(0, 0, 0)" stroke="rgb(204, 204, 204)" stroke-width="1px"></line><line x1="50" y1="19.666666666666686" x2="45" y2="19.666666666666686" style="visibility: inherit;" fill="rgb(0, 0, 0)" stroke="rgb(204, 204, 204)" stroke-width="1px"></line><line x1="50" y1="0" x2="45" y2="0" style="visibility: inherit;" fill="rgb(0, 0, 0)" stroke="rgb(204, 204, 204)" stroke-width="1px"></line></g><g transform="translate(40, 0)"><text x="0" y="177" dx="0em" dy="0.3em" style="text-anchor: end; visibility: hidden; font-family: &quot;Helvetica Neue&quot;, sans-serif; font-size: 12px; font-weight: 200;" fill="rgb(50, 49, 63)" stroke="none" stroke-width="1px">-6.5</text><text x="0" y="157.33333333333334" dx="0em" dy="0.3em" style="text-anchor: end; visibility: inherit; font-family: &quot;Helvetica Neue&quot;, sans-serif; font-size: 12px; font-weight: 200;" fill="rgb(50, 49, 63)" stroke="none" stroke-width="1px">-6</text><text x="0" y="137.66666666666669" dx="0em" dy="0.3em" style="text-anchor: end; visibility: hidden; font-family: &quot;Helvetica Neue&quot;, sans-serif; font-size: 12px; font-weight: 200;" fill="rgb(50, 49, 63)" stroke="none" stroke-width="1px">-5.5</text><text x="0" y="118" dx="0em" dy="0.3em" style="text-anchor: end; visibility: inherit; font-family: &quot;Helvetica Neue&quot;, sans-serif; font-size: 12px; font-weight: 200;" fill="rgb(50, 49, 63)" stroke="none" stroke-width="1px">-5</text><text x="0" y="98.33333333333334" dx="0em" dy="0.3em" style="text-anchor: end; visibility: hidden; font-family: &quot;Helvetica Neue&quot;, sans-serif; font-size: 12px; font-weight: 200;" fill="rgb(50, 49, 63)" stroke="none" stroke-width="1px">-4.5</text><text x="0" y="78.66666666666666" dx="0em" dy="0.3em" style="text-anchor: end; visibility: inherit; font-family: &quot;Helvetica Neue&quot;, sans-serif; font-size: 12px; font-weight: 200;" fill="rgb(50, 49, 63)" stroke="none" stroke-width="1px">-4</text><text x="0" y="59" dx="0em" dy="0.3em" style="text-anchor: end; visibility: hidden; font-family: &quot;Helvetica Neue&quot;, sans-serif; font-size: 12px; font-weight: 200;" fill="rgb(50, 49, 63)" stroke="none" stroke-width="1px">-3.5</text><text x="0" y="39.33333333333334" dx="0em" dy="0.3em" style="text-anchor: end; visibility: inherit; font-family: &quot;Helvetica Neue&quot;, sans-serif; font-size: 12px; font-weight: 200;" fill="rgb(50, 49, 63)" stroke="none" stroke-width="1px">-3</text><text x="0" y="19.666666666666686" dx="0em" dy="0.3em" style="text-anchor: end; visibility: hidden; font-family: &quot;Helvetica Neue&quot;, sans-serif; font-size: 12px; font-weight: 200;" fill="rgb(50, 49, 63)" stroke="none" stroke-width="1px">-2.5</text><text x="0" y="0" dx="0em" dy="0.3em" style="text-anchor: end; visibility: hidden; font-family: &quot;Helvetica Neue&quot;, sans-serif; font-size: 12px; font-weight: 200;" fill="rgb(50, 49, 63)" stroke="none" stroke-width="1px">-2</text></g><line x1="50" y1="0" x2="50" y2="177" fill="rgb(0, 0, 0)" stroke="rgb(204, 204, 204)" stroke-width="1px"></line></g></g><g transform="translate(50, 0)" clip-path="url(#clip_0)"><clipPath id="clip_0"><rect width="280" height="177"></rect></clipPath><g><g><g><line x1="0" y1="0" x2="0" y2="177" fill="rgb(0, 0, 0)" stroke="rgb(60, 60, 60)" stroke-width="1px" opacity="0.25"></line><line x1="21.53846153846154" y1="0" x2="21.53846153846154" y2="177" fill="rgb(0, 0, 0)" stroke="rgb(60, 60, 60)" stroke-width="1px" opacity="0.25"></line><line x1="43.07692307692308" y1="0" x2="43.07692307692308" y2="177" fill="rgb(0, 0, 0)" stroke="rgb(60, 60, 60)" stroke-width="1px" opacity="0.25"></line><line x1="64.61538461538461" y1="0" x2="64.61538461538461" y2="177" fill="rgb(0, 0, 0)" stroke="rgb(60, 60, 60)" stroke-width="1px" opacity="0.25"></line><line x1="86.15384615384616" y1="0" x2="86.15384615384616" y2="177" fill="rgb(0, 0, 0)" stroke="rgb(60, 60, 60)" stroke-width="1px" opacity="0.25"></line><line x1="107.6923076923077" y1="0" x2="107.6923076923077" y2="177" fill="rgb(0, 0, 0)" stroke="rgb(60, 60, 60)" stroke-width="1px" opacity="0.25"></line><line x1="129.23076923076923" y1="0" x2="129.23076923076923" y2="177" fill="rgb(0, 0, 0)" stroke="rgb(60, 60, 60)" stroke-width="1px" opacity="0.25"></line><line x1="150.76923076923077" y1="0" x2="150.76923076923077" y2="177" fill="rgb(0, 0, 0)" stroke="rgb(60, 60, 60)" stroke-width="1px" opacity="0.25"></line><line x1="172.30769230769232" y1="0" x2="172.30769230769232" y2="177" fill="rgb(0, 0, 0)" stroke="rgb(60, 60, 60)" stroke-width="1px" opacity="0.25"></line><line x1="193.84615384615384" y1="0" x2="193.84615384615384" y2="177" fill="rgb(0, 0, 0)" stroke="rgb(60, 60, 60)" stroke-width="1px" opacity="0.25"></line><line x1="215.3846153846154" y1="0" x2="215.3846153846154" y2="177" fill="rgb(0, 0, 0)" stroke="rgb(60, 60, 60)" stroke-width="1px" opacity="0.25"></line><line x1="236.92307692307693" y1="0" x2="236.92307692307693" y2="177" fill="rgb(0, 0, 0)" stroke="rgb(60, 60, 60)" stroke-width="1px" opacity="0.25"></line><line x1="258.46153846153845" y1="0" x2="258.46153846153845" y2="177" fill="rgb(0, 0, 0)" stroke="rgb(60, 60, 60)" stroke-width="1px" opacity="0.25"></line><line x1="280" y1="0" x2="280" y2="177" fill="rgb(0, 0, 0)" stroke="rgb(60, 60, 60)" stroke-width="1px" opacity="0.25"></line></g><g><line x1="0" y1="177" x2="280" y2="177" fill="rgb(0, 0, 0)" stroke="rgb(60, 60, 60)" stroke-width="1px" opacity="0.25"></line><line x1="0" y1="157.33333333333334" x2="280" y2="157.33333333333334" fill="rgb(0, 0, 0)" stroke="rgb(60, 60, 60)" stroke-width="1px" opacity="0.25"></line><line x1="0" y1="137.66666666666669" x2="280" y2="137.66666666666669" fill="rgb(0, 0, 0)" stroke="rgb(60, 60, 60)" stroke-width="1px" opacity="0.25"></line><line x1="0" y1="118" x2="280" y2="118" fill="rgb(0, 0, 0)" stroke="rgb(60, 60, 60)" stroke-width="1px" opacity="0.25"></line><line x1="0" y1="98.33333333333334" x2="280" y2="98.33333333333334" fill="rgb(0, 0, 0)" stroke="rgb(60, 60, 60)" stroke-width="1px" opacity="0.25"></line><line x1="0" y1="78.66666666666666" x2="280" y2="78.66666666666666" fill="rgb(0, 0, 0)" stroke="rgb(60, 60, 60)" stroke-width="1px" opacity="0.25"></line><line x1="0" y1="59" x2="280" y2="59" fill="rgb(0, 0, 0)" stroke="rgb(60, 60, 60)" stroke-width="1px" opacity="0.25"></line><line x1="0" y1="39.33333333333334" x2="280" y2="39.33333333333334" fill="rgb(0, 0, 0)" stroke="rgb(60, 60, 60)" stroke-width="1px" opacity="0.25"></line><line x1="0" y1="19.666666666666686" x2="280" y2="19.666666666666686" fill="rgb(0, 0, 0)" stroke="rgb(60, 60, 60)" stroke-width="1px" opacity="0.25"></line><line x1="0" y1="0" x2="280" y2="0" fill="rgb(0, 0, 0)" stroke="rgb(60, 60, 60)" stroke-width="1px" opacity="0.25"></line></g></g></g><g><g><line x1="0" y1="-78.66666666666666" x2="280" y2="-78.66666666666666" fill="rgb(0, 0, 0)" stroke="rgb(153, 153, 153)" stroke-width="1.5px"></line></g></g><g><g><line x1="21.53846153846154" y1="0" x2="21.53846153846154" y2="177" fill="rgb(0, 0, 0)" stroke="rgb(153, 153, 153)" stroke-width="1.5px"></line></g></g><g><g><g><g><g><path stroke="rgb(0, 119, 187)" stroke-width="2px" d="M24.891569230769232,-2.7346020019532205L24.906646153846154,1.2781689797090792L25.192676923076924,0.5531079856956467L25.52006153846154,5.01646886595239L25.609661538461538,6.764328038875732L26.009846153846155,6.845239981944502L26.227384615384615,7.178903141092462L26.25366153846154,8.606132042060153L26.497046153846156,8.223286268704356L26.684861538461536,9.136268761935582L27.07556923076923,10.92802700590724L27.142769230769233,9.634237487398224L27.684676923076925,16.91142324908239L27.845353846153845,21.73973655553513L27.89316923076923,21.621401903659915L28.468246153846152,20.790236821398594L28.786584615384612,22.072719183925443L28.984307692307695,24.60940952332311L29.08166153846154,30.668796017073163L29.983261538461537,32.81923982498864L30.164615384615384,33.341408220866015L30.370092307692307,36.63831928984044L30.386461538461536,36.51993551804125L30.505784615384616,39.711999905405634L30.602707692307693,41.265585653117796L30.629846153846152,37.283174810927505L30.70523076923077,38.53000677733647L31.139876923076923,38.68670078781301L31.15193846153846,43.23337419459003L31.550830769230767,45.513487130263L31.58313846153846,37.10175002587343L31.611569230769234,38.926630192855754L31.716246153846154,41.8859131895899L31.7296,36.56657529053888L31.92129230769231,39.26078957028656L31.996676923076922,39.12380505625865L32.170707692307694,39.66587931925787L32.259446153846156,41.847065013736284L32.396861538461536,38.68443510656823L33.060676923076926,43.376132776690184L33.995015384615385,46.071588212462245L34.00621538461539,47.155516124295474L34.364184615384616,47.864210273739076L34.70104615384615,48.45851595357044L34.74153846153846,45.91823021067168L35.05815384615384,46.2816255857129L35.27009230769231,46.645532574429836L35.485046153846156,46.41585061918184L35.80553846153846,48.63907825531851L36.04461538461538,46.7356603677012L36.04978461538462,50.509042183653776L36.0652923076923,55.81966258690531L36.08855384615385,62.29534604711796L36.104492307692304,61.44562110839367L36.12043076923077,59.07052347782103L36.31341538461538,56.918520548281165L36.38363076923077,59.88784722785377L36.4155076923077,55.20744308809576L36.79544615384615,58.252480417371586L36.997476923076924,53.998545084325954L37.03366153846154,52.901771843788126L37.28824615384616,55.99600097757008L37.30116923076923,56.116471830336806L37.38301538461538,63.579805380103124L37.65784615384615,60.22454630891313L37.77630769230769,55.854817888497294L37.82412307692308,55.17552030564883L38.187261538461534,54.69371086248678L38.23895384615385,59.39458872808372L38.434953846153846,55.190169870456174L38.60941538461539,57.102912906567326L39.07852307692308,55.6699201606274L39.284,58.98864223614696L39.655323076923075,57.55589909189162L39.79876923076923,59.32731806536445L40.30233846153846,63.13794287423251L40.33335384615385,60.00399584996674L40.4544,58.82401031312132L40.54356923076923,54.947047420681244L40.56553846153846,55.8729810565754L40.58836923076923,57.96961719890699L40.80849230769231,67.01883429944675L40.87181538461539,61.17855521833991L41.047569230769234,68.26874061900038L41.10529230769231,66.66861551092659L41.170338461538456,64.09475279502033L41.46110769230769,65.37416874956266L41.49513846153847,62.51755843713586L42.06720000000001,61.83008220685345L42.16455384615385,65.90258061225904L42.25501538461538,61.842502105250105L42.72412307692308,64.0702024706289L43.06141538461539,66.62270289310324L43.38966153846154,64.8147694765439L43.52492307692307,71.05394169284365L43.56498461538461,66.0713407313434L43.810523076923076,64.25212927553702L44.28695384615385,65.5547803475081L44.366646153846155,59.735234338062156L44.528615384615385,57.32153331320511L44.697907692307695,55.97135569501536L45.761907692307695,61.04094806819329L45.84116923076923,64.72386725451054L45.96953846153846,62.736292932662366L46.78627692307692,63.935953196426055L46.79790769230769,68.1738938350716L46.805230769230775,73.60807699318164L47.41390769230769,70.75222609652339L47.4164923076923,68.8655526531533L47.541415384615384,71.85774635629629L48.25692307692307,70.98660966171884L48.91556923076923,69.26019731609462L49.28086153846154,70.61695613532326L49.76332307692307,70.58430885117687L50.25526153846153,69.79378675723932L50.35606153846153,68.80226921620881L50.536123076923076,68.02010658333451L51.286523076923075,65.97797231842925L51.4024,73.23783917210409L51.51612307692308,73.94728152145093L51.600123076923076,74.15855922811714L51.83532307692308,75.15811370917254L51.886153846153846,74.63026753529763L51.91889230769231,72.19913658776794L52.06492307692308,69.11186845270144L52.25058461538462,71.31732178827532L52.45649230769231,72.37004808446015L52.47803076923077,78.28642907854068L52.48750769230769,74.70577811668007L52.50172307692308,74.53993269286367L52.80756923076923,74.84596266238975L52.93076923076923,72.16318933500303L53.99606153846154,66.24143026868575L54.310523076923076,69.74714424570446L54.60603076923077,73.25558050290772L55.16603076923077,74.6704326141836L55.47230769230769,78.54827867760034L55.49513846153846,82.11302812981866L55.50849230769231,83.2844717189963L56.10424615384615,79.82682552051317L56.19987692307692,83.64031299419266L56.36486153846154,81.84982131600613L56.373046153846154,79.57672870167238L57.34141538461538,77.45454692050703L57.83206153846154,87.27649262272253L57.914769230769224,82.46284114553292L58.124553846153844,81.980362895531L58.522584615384616,81.68521925811125L58.85169230769231,78.29648877583436L58.8883076923077,77.94920591554538L58.9499076923077,80.82380211378035L59.115323076923076,78.95397504980303L59.43538461538461,79.16170044431051L59.66627692307693,80.81201329840599L59.95532307692308,82.18972911246647L59.962215384615384,84.2930744517328L60.224553846153846,84.0902021742949L60.33827692307692,84.91244039637384L60.79532307692308,87.45093090754273L60.934461538461534,86.38618824931893L60.94436923076923,82.74367164404937L61.1476923076923,81.78481509783911L61.62196923076923,81.72215909857978L61.7288,84.23646674414135L61.9136,85.05333748972211L62.293107692307686,84.76739843397813L62.41070769230769,87.02798552339956L62.548123076923076,83.18186210210531L62.59249230769231,82.64271686046564L62.945292307692306,79.88687663218921L63.66984615384616,86.38759244049518L63.879630769230765,84.13563163617212L64.12947692307692,81.0963990978735L64.48615384615384,82.81509374135759L64.90486153846153,78.64222562245942L64.99704615384616,78.51764821171213L65.10990769230769,83.50585832094816L65.36276923076923,82.70738589304092L65.37138461538461,80.62357373756608L65.77415384615385,83.60583903624081L65.7875076923077,81.55339218517221L65.8112,84.40004309817203L65.82627692307692,82.890098719621L65.83058461538461,83.68152843445002L66.23292307692307,80.18254459617214L66.37464615384616,81.13000443409486L66.39963076923077,78.92316619652871L66.64129230769231,81.7424329922499L66.65335384615385,90.64563183819662L66.87261538461539,91.44774439832813L67.01864615384615,85.11157075703886L67.23058461538461,87.50000062072725L67.35938461538461,86.25032576611312L67.9056,84.10322903409008L68.22781538461538,80.71385297068598L68.93212307692308,85.80791230731394L69.01526153846153,82.32584369023552L69.11132307692307,88.42721957270251L69.40467692307692,85.44664393844575L69.56578461538462,87.90482781916282L70.08356923076923,88.33908021404001L70.26406153846155,88.16024808061314L70.44412307692308,89.86264614247595L71.02695384615384,88.27525675286837L71.20313846153846,85.84368938599023L71.20830769230768,90.75940055684644L71.36295384615384,82.63226056319314L71.70498461538462,82.18114911847417L71.72135384615385,87.23072430689992L71.75236923076923,85.17011094013765L71.86566153846154,88.17056428543677L72.11852307692307,93.12718534758856L72.20036923076923,89.39471241806649L72.35716923076923,88.91148005907556L73.64775384615385,86.56443449845801L73.64818461538462,87.04700369630788L73.70806153846154,85.38684861060699L73.73864615384616,82.20358686564396L73.92430769230769,81.09935141951658L74.0836923076923,83.47781229824318L74.26289230769231,89.11357679850155L74.26806153846154,93.89779644938089L74.94006153846153,91.29050167639123L75.41003076923076,89.20553701861144L76.3784,91.75194350328111L77.14172307692307,96.82226913439867L77.17963076923077,95.281564910815L77.22098461538462,97.31708284195612L77.46566153846153,93.3478127239725L78.15747692307693,97.55509864003942L78.2419076923077,96.04775250779483L79.09483076923077,92.03833358780675L79.31667692307693,97.18412737029475L79.32227692307693,97.04657909856844L79.35889230769232,93.95177405826215L79.53206153846153,91.84829997471154L79.84953846153846,91.68250255257595L80.10498461538461,94.23733089250752L80.30443076923076,93.19253395725745L80.30658461538461,92.81154164510642L80.46855384615384,91.75031037829922L80.68781538461539,97.20573394121293L81.27883076923078,98.33163001113076L81.41581538461539,95.78572918160522L81.47827692307692,93.90072955201327L81.4980923076923,97.22322327401393L81.72424615384615,95.09333197974853L81.74147692307692,93.26200212262287L81.7587076923077,91.23367692563264L81.79101538461538,94.11168086647986L82.05723076923077,92.27632312051455L82.16018461538462,93.743034498326L82.26012307692308,96.1179272511196L82.54701538461538,96.27595247697384L82.9179076923077,95.68732123695743L82.9782153846154,94.5272392896191L83.55199999999999,95.40681013667836L83.57741538461538,97.66931763413105L83.62867692307692,95.87181597822439L84.44886153846154,95.0305807622683L84.61384615384615,98.72898345186783L84.95587692307691,99.72197932995044L85.43446153846155,97.45869647858551L85.46418461538461,95.00263920266237L85.4659076923077,98.39742461148185L85.8984,101.30838160099556L85.98541538461538,99.22272262006186L86.36061538461539,97.78471656459081L86.40584615384614,92.68868513793252L86.48252307692307,96.9578343941202L86.50406153846154,101.37482245247145L86.52172307692307,101.78292646098485L86.56221538461539,100.64642429801833L86.58332307692308,96.68912843338457L86.69790769230768,95.2779932546922L87.11963076923077,99.8921686487382L87.22387692307692,99.78067726753066L88.26590769230769,99.14394995487876L88.43563076923077,101.79719900836835L88.49421538461539,107.37217659801416L88.50067692307692,102.77767976353668L88.89483076923078,103.95286706425807L89.1003076923077,104.29565886261896L89.22953846153847,102.88731747231583L89.31224615384615,97.80744935688396L90.07987692307691,100.21519344022087L90.23926153846155,105.81436170520512L90.42104615384615,102.64161156047659L90.44258461538462,104.43946064966487L90.51667692307691,104.0585947044148L90.83286153846153,106.89921817823969L90.84492307692307,107.04087609635624L90.92073846153846,100.56648414882125L91.17273846153846,96.8070238205916L91.28301538461538,100.11455715734517L91.44498461538461,100.30097077512002L91.53372307692308,97.37694082790566L91.75169230769231,97.46466738065453L92.3216,93.3334402446769L92.68344615384616,97.41659640897248L92.74073846153846,97.92082970715921L92.82818461538461,98.56660457478381L93.44461538461537,100.59765228446177L93.5144,106.62670088300618L93.62123076923078,107.12334909730858L93.7900923076923,101.80508766985163L94.34320000000001,101.93624931821957L94.44227692307693,102.44760037014721L94.57969230769231,104.81506570507987L94.61803076923076,101.60187015730088L94.71495384615385,100.55438546616601L94.84676923076923,105.77103078531482L95.33052307692309,98.18810726106518L95.34732307692309,96.51171028355968L95.35163076923077,96.6689740562849L95.91206153846154,101.68333748247701L95.96418461538462,103.47996149420624L95.99864615384615,103.75019994950227L96.1632,105.99149074301681L96.24418461538463,105.97222331849076L96.63230769230769,111.25132359477284L97.46455384615385,107.06183414506357L97.97803076923077,106.02290040362342L98.15636923076923,112.24506221279579L98.35796923076923,108.5678587082927L98.37519999999999,104.38043563309736L98.58800000000001,100.87864666428226L98.91926153846154,103.941971349196L99.06916923076923,102.14444166470153L99.38492307692307,106.56384141076752L99.41033846153846,105.75668698248755L99.63735384615384,103.57236469803745L99.83120000000001,104.37386887680586L100.15298461538461,104.33749957925733L100.19950769230769,107.93949900496L100.20166153846155,107.88900139984285L100.34036923076923,104.17271078660166L100.4808,104.71216249287572L100.97403076923077,107.89938522867627L101.10843076923078,108.70198032950721L101.51593846153845,106.34853169339115L101.6132923076923,111.13841258496373L101.98246153846154,104.07693983918627L102.004,101.0580970394981L102.2336,100.50910291364026L102.34904615384616,100.30785966688535L102.36886153846154,103.8829487052012L102.91507692307692,108.47025066334696L102.94221538461538,107.44744568100785L103.20455384615384,108.61009007909625L103.37901538461539,106.8142029020313L103.42338461538462,107.87482341765107L104.18584615384614,107.6456550318325L105.22055384615385,105.60334328561967L105.51132307692308,108.05496060699193L105.55526153846154,107.03833143621662L105.64959999999999,105.91993476972964L106.1256,106.16421481386413L106.14713846153846,104.4708889906541L106.7596923076923,107.43309021303668L107.03926153846155,108.31193542665014L107.04098461538462,108.88027979643606L107.22664615384616,111.60080123967803L107.38775384615384,113.56755637145169L107.62381538461538,114.40062344282543L108.13556923076924,116.13651740675971L108.30098461538462,115.48041737154605L108.35870769230769,113.91631070023067L110.1606153846154,114.36681103256517L110.56467692307692,110.1043940993975L110.80504615384616,111.68027943449202L111.29483076923077,108.0715995912372L111.37452307692307,116.74843092071724L111.82769230769232,113.18949256325392L111.91513846153846,109.11954245160796L112.36658461538461,109.17554004107386L112.56215384615385,109.2125371085473L113.16566153846153,108.25652604422179L113.19839999999999,109.6480031000845L113.49563076923077,111.02665904287134L113.60461538461539,108.24421083404799L114.12455384615384,111.2715930033178L114.39249230769231,114.8873890651336L114.42264615384616,114.01612713414852L114.43513846153846,114.93528510617269L115.21569230769231,113.91362060797448L115.36732307692307,109.51049129382118L115.37723076923078,109.94382605681028L115.92387692307693,109.25933266716724L116.04233846153846,113.63680496834233L116.07292307692308,109.98241473251095L116.24652307692308,109.31103939024713L116.49249230769232,109.46823374157015L116.67858461538462,114.04922625059801L117.01156923076924,115.5030180094734L117.65341538461539,116.87947346437542L118.21600000000001,113.05802541773659L118.37021538461538,110.71628701170967L118.81864615384616,108.72533418822697L118.86086153846153,110.53446351342447L118.86603076923076,109.9793367079082L119.31920000000001,111.00574866679409L119.55741538461538,107.9001857265657L119.55827692307693,108.03972042946971L119.64615384615385,111.96628259032343L119.8232,112.83503625239554L119.82449230769231,114.1964040603973L120.00196923076922,113.79663182934547L120.12732307692308,115.84461346650376L120.19323076923077,118.96296861599436L120.2488,118.57275467016626L120.53698461538463,116.63130449989437L120.87212307692307,113.96588927749195L121.3184,114.41733187582135L121.36707692307692,116.38140752799933L121.37483076923077,115.08953100971951L121.4795076923077,114.4623492312386L121.9244923076923,118.6624353260967L121.93095384615386,119.97105560687223L121.99427692307692,118.42434466274801L122.0700923076923,117.92413321569893L122.12523076923077,119.51700103741089L122.34923076923077,118.11707152800483L122.54652307692308,115.24642305698032L122.6076923076923,117.45336111263057L122.6748923076923,111.34949812814963L122.71538461538461,112.63476372674329L123.40203076923076,111.493452586225L123.89224615384614,111.75660367657224L124.13649230769231,111.28573926994889L124.22221538461538,116.03706474727207L124.4475076923077,120.97920639291891L124.77273846153847,121.13357536976825L125.39046153846154,122.36427124928608L125.43267692307693,118.639014740335L125.61963076923078,117.74971731079444L125.73895384615385,117.50388718986208L126.26750769230769,119.06561648851846L126.83913846153845,118.15829638643788L127.18892307692307,119.17337952457109L127.33366153846154,119.57166903656068L127.71575384615385,119.68557293479448L127.96000000000001,120.52291717091086L128.04055384615384,116.34302695965098L128.29772307692306,117.7223324162284L128.58461538461538,115.68717421983794L128.89261538461537,116.42111749983899L129.04209230769231,118.98603473228457L129.136,121.12423383070373L129.40566153846154,124.85208762609966L129.59907692307692,122.78260534360413L129.7606153846154,123.25251405251666L129.80412307692308,122.91409922130491L129.80972307692306,120.28123299571426L129.92043076923076,121.97840077256691L130.0376,119.4900353823634L130.14356923076923,120.50453415361235L130.40763076923076,122.14091998048936L130.51058461538463,121.1848934036989L130.87803076923078,121.24553916111583L130.93316923076924,118.25014471961059L131.01027692307693,117.02608653676309L131.0486153846154,115.76961590114314L131.3803076923077,118.49305082120345L131.60947692307693,117.61131129716543L131.92566153846153,122.6138101700229L132.0182769230769,121.62217582165894L132.49815384615385,121.38268125593481L132.56061538461537,124.11665544036917L132.62221538461537,121.25417422328725L132.71612307692308,118.99734210416278L132.88412307692306,122.21073283818126L132.9496,121.0117669785028L132.95433846153847,121.2711294264002L133.21796923076923,123.29272602620145L133.34676923076924,123.54254667732569L133.42258461538464,124.39674166504614L133.56,122.06948153772397L133.74135384615386,123.17158826548919L134.3315076923077,123.91921806549466L134.41163076923078,124.16725362270338L134.44867692307693,125.27591128108459L134.55852307692308,123.14432408188316L135.02892307692306,127.6098053561123L135.14264615384616,126.73641683895221L135.46443076923077,124.07994010988176L135.5984,124.6999044752715L135.74012307692308,124.84305733461765L135.77975384615385,122.9239834587947L136.6878153846154,123.64070891784681L136.68867692307694,120.64003079402676L136.72701538461538,121.40873529872235L137.0668923076923,120.24545340355795L137.0793846153846,120.64060535003676L137.31846153846152,122.00791616819265L137.7780923076923,120.85960288593348L138.10116923076924,115.35384805052982L138.21661538461538,114.36806152095104L138.29846153846154,109.52763711907289L138.35575384615385,113.42785228588873L138.51556923076922,111.90327852546389L138.73784615384614,113.86413457540205L138.85415384615385,116.4592913938415L139.02904615384617,114.14346767382932L139.1096,114.72758718083568L140.16886153846153,116.3297022566215L140.17015384615385,121.71339803447421L140.22227692307692,120.49877208179294L140.756,120.76269263648621L141.04504615384616,123.89875073407272L141.60719999999998,118.7224376708717L141.66406153846154,121.22458020709658L141.73686153846154,116.95903045254568L141.91907692307691,118.0717609941023L141.92295384615386,120.44154457762184L141.9315692307692,118.11021762995529L142.09870769230767,115.61496188188755L142.3408,116.79837305910485L142.41187692307693,118.1535372072484L142.53464615384615,118.77316048149422L142.69532307692307,121.07408992292974L142.80646153846155,116.51538837656872L142.87796923076925,119.19372984194057L143.10455384615386,117.5216865644254L143.28547692307694,121.71812668474897L143.7395076923077,123.6873971086684L143.99624615384616,120.15198726625896L144.24695384615384,119.30006000501902L144.52695384615384,118.16286439758335L145.02836923076924,118.60490743554709L145.21403076923076,120.396703642033L145.2174769230769,119.16914197688646L145.3217230769231,120.19834670753488L145.91273846153845,122.62527430056258L145.98855384615385,120.02679383753969L146.12424615384617,119.67531829674583L146.1724923076923,117.47910073756896L146.43913846153845,114.7672668339395L146.79667692307694,122.09691583563388L147.74307692307693,121.11797883182464L148.09070769230772,124.83831913910129L148.1660923076923,123.8315521218885L148.77089230769232,124.85393958917312L148.84196923076922,125.93434887109827L149.40455384615385,127.32516595311144L150.0364923076923,130.92690168571775L150.0632,125.58325943997886L150.388,123.75371975293588L150.52412307692308,123.56724777176477L151.05267692307694,124.00885719272195L151.1035076923077,122.89431132999677L151.17243076923077,124.68551512237958L151.1875076923077,129.74990503595214L151.53212307692309,127.29009627067612L151.79058461538463,125.67447432734707L151.8177230769231,125.11943475916867L152.06369230769232,126.9372276177896L152.4755076923077,128.61932725772618L152.58535384615385,126.81163923183297L153.02603076923077,125.53422640307276L153.54295384615386,124.39467740780232L153.87163076923076,126.25631480649778L154.36184615384613,127.00720303795143L154.5531076923077,126.00254938726464L154.6190153846154,128.46929785643914L154.93649230769233,126.09952101529578L154.9438153846154,127.71975988599226L155.0092923076923,126.0068972574824L155.02135384615383,123.95996314290093L155.1716923076923,122.3101468920882L155.7497846153846,128.0905317489411L156.15772307692308,127.91302762175236L156.22966153846153,129.5459190154749L156.6518153846154,130.0449329502192L156.7246153846154,127.42070417524216L156.89046153846155,130.43652373703821L157.26781538461537,131.27160980394981L157.4483076923077,132.08003563538097L157.70935384615385,127.96661688598931L158.35464615384615,125.66644321508969L158.48775384615385,127.42793116546332L158.66092307692307,129.5322713945905L158.84098461538463,126.07109140324195L158.9628923076923,125.91647927940448L159.10203076923077,129.78154764759876L159.31956923076925,128.79935639414194L159.35058461538463,126.9597936867456L159.46603076923077,128.67163096261697L159.5129846153846,131.02299836313335L159.6646153846154,128.81045543572668L159.7137230769231,128.36439012341518L159.74344615384615,125.2011421612073L159.75550769230767,125.69678240365795L159.93944615384615,124.31430293727126L160.37193846153846,127.26592818265084L160.63815384615387,128.54837259867742L160.65581538461538,125.98130894433828L161.19556923076922,124.93558826882467L161.3609846153846,128.6548249970207L161.52166153846153,129.78857205611445L162.21563076923076,130.22833605389977L162.80104615384616,130.87508617111752L163.01815384615384,128.5702229317151L163.01858461538464,129.50764215644932L163.23612307692306,129.10856186145588L163.51999999999998,131.4400781162225L163.66473846153846,130.07893703188356L163.78707692307694,129.96263881011322L164.06147692307692,126.10150639702985L164.3488,125.90865799878108L164.48276923076924,125.60620325263781L164.4944,129.6429087089883L164.55944615384615,131.58414356116776L164.61544615384616,130.600341051048L164.81403076923075,133.4711945191379L165.04492307692308,134.08606868597005L165.07421538461537,132.4904571549821L165.2628923076923,132.07977081398533L165.5545230769231,129.93866881366787L165.5571076923077,126.80238026362392L165.56959999999998,129.3832608658973L166.06369230769232,130.16242722266338L166.38935384615382,128.7409010306602L166.39323076923077,128.89980464630955L166.53581538461538,126.84127680532316L167.38873846153845,126.87017466270237L167.40079999999998,129.22855672226333L167.46713846153847,132.40817234309105L168.70172307692306,130.3374899231886L168.72153846153847,128.87269913376343L168.72713846153846,130.4205360604583L169.26215384615384,133.81510379671602L169.29833846153846,131.71105922118554L169.88073846153844,132.29694383654433L169.89366153846154,131.69414492436312L169.9742153846154,128.75463659756218L170.21415384615383,128.7083214075933L170.26283076923076,129.941665996208L171.00203076923077,129.77069099888854L171.46338461538463,129.57840174126022L171.61673846153846,130.8953929683808L171.78172307692307,133.0930300518618L171.96652307692307,134.66593066641167L173.3449846153846,130.27062837156737L173.37427692307693,131.87094356143325L173.37643076923078,133.585880320413L173.6224,131.30139645803555L175.12233846153848,132.29314586839232L175.6513230769231,132.50416345589053L175.7198153846154,126.62774577454343L175.7534153846154,132.6870019518273L175.76806153846155,135.91901027855897L175.9343384615385,133.65870253859535L176.0308307692308,132.61842213045702L176.2780923076923,130.11372041287711L176.45341538461537,133.2963695819141L176.68689230769232,134.9588653740264L176.73686153846154,137.90788999976576L176.87686153846153,137.38242270021755L177.0259076923077,134.89518441440134L177.33735384615383,135.10368131209296L177.3731076923077,135.08336357241205L177.5579076923077,133.44985678175289L177.8598769230769,130.44927999007226L178.40738461538464,134.87336069322143L178.59476923076923,135.70611569470077L178.60683076923078,136.7515340001538L178.85150769230768,133.39428638723422L179.49679999999998,134.11267300828453L180.1196923076923,136.04031892846518L180.29372307692307,133.20387033758854L180.71673846153848,135.60240185343204L180.84424615384617,135.09760088175324L181.20350769230768,135.89141994982833L181.32756923076923,136.76109874011996L181.38184615384614,135.95990885751598L181.4089846153846,134.55089801226353L181.58603076923077,136.59716910724418L182.48935384615385,136.1323068456128L182.72972307692308,132.85863863922802L182.9313230769231,136.57530484694828L183.01532307692307,135.52295543014162L183.10406153846154,136.05812127545965L183.22941538461538,134.23289802365792L183.83852307692305,135.3580288888611L183.90098461538463,133.57742986688598L183.97464615384615,135.9835068957582L184.0129846153846,132.06482350289275L184.25119999999998,132.43577050045798L184.38258461538462,135.2047858171205L185.02916923076924,136.2405533750379L185.06923076923078,135.19239835497882L185.30701538461537,134.75037108594466L185.4216,136.26296005289325L185.85366153846152,136.7742677309547L186.09273846153846,135.29335155755882L186.27624615384616,134.50481418770912L186.39513846153847,133.68691141606786L186.48473846153846,136.49878994147826L186.788,138.30575030359137L186.79273846153845,137.50639215298003L187.26012307692307,141.07841338627043L187.51126153846155,140.7770443950842L187.6172307692308,138.2593959129701L187.77446153846154,134.98560085039435L187.83993846153848,133.55732870583392L187.9192,133.68913037271096L188.43095384615384,137.58572515660998L188.4580923076923,136.8029460955529L188.57526153846155,140.20806452724548L188.62436923076922,136.68490265067348L188.7940923076923,136.27111767682985L188.94356923076924,136.00857743593193L189.08787692307692,139.01542223874014L189.2774153846154,137.50523544977077L189.96793846153847,138.90938503919025L190.40732307692306,137.75163561132342L190.9078769230769,137.24656000550658L191.3171076923077,138.28416456470532L191.55575384615386,137.8503746848681L191.8534153846154,134.45281488863898L192.03993846153844,137.04207950732075L192.39230769230767,140.25653623283483L192.67230769230767,138.36230987751827L192.78387692307692,140.77021388875056L192.85495384615385,136.13613295157717L192.96695384615384,136.98076576948148L192.97126153846153,138.30288117901472L193.43390769230768,135.99187440341308L193.82806153846155,136.40156868298206L193.9585846153846,136.47892249742762L195.0798769230769,138.85637014579544L195.15784615384615,138.39959695421717L195.20824615384615,138.42611770520446L195.2414153846154,136.16259518875583L195.54898461538463,134.18689745037102L195.7971076923077,138.39591049374147L196.21883076923078,138.54866804612286L196.25673846153848,138.9184155340946L196.97483076923078,137.22889635618264L197.1604923076923,140.23233318521028L197.41895384615384,138.06473611311185L198.02935384615387,136.41017726967374L198.55015384615385,135.61784174388433L198.5828923076923,139.10105630365481L198.93526153846153,137.3924369132964L199.19587692307692,138.17818548578708L199.3948923076923,139.43626678565357L199.59476923076923,139.71678657082248L200.19913846153847,143.36962539403154L200.25083076923076,145.2831457045586L200.46578461538462,145.3488875142879L200.6673846153846,141.50032778852062L201.12184615384615,141.4616617457442L201.2950153846154,139.22861791231466L201.39624615384614,136.91733432160754L201.3996923076923,137.4648361703571L201.61593846153846,136.39026123488844L201.99286153846154,137.28093929810265L202.28535384615387,139.815030151941L202.5675076923077,139.66427863498782L202.98578461538463,140.07218638773912L203.00043076923077,136.71918781429224L203.30886153846154,139.5578555891694L203.42000000000002,143.38911106366606L203.8331076923077,143.56293046978328L203.95544615384614,144.29658485555976L204.50553846153844,143.99800960881112L204.5076923076923,144.56998852488954L204.75796923076922,147.07524583099817L205.13618461538462,142.97381583864612L205.16935384615385,144.94407966940673L205.37612307692308,145.29595779106464L205.5609230769231,143.10833410457042L205.856,143.28393382252418L205.89347692307692,141.31178892307182L206.02873846153844,137.28141768367706L206.67489230769232,139.44186328008743L206.69815384615384,139.3819285759626L206.72572307692306,141.5801642256557L206.85193846153845,140.4103206982759L206.95618461538461,143.3420110021361L207.4476923076923,140.7705758894083L207.53298461538463,140.87843974140864L207.61784615384616,139.68400494083315L208.19464615384618,140.43106819684039L208.64953846153847,143.00012880262574L208.75335384615386,139.10258519071442L209.01612307692307,139.45444407910963L209.06221538461537,139.95148470511552L209.0803076923077,142.76563709483852L209.31206153846156,142.52690112693892L210.2140923076923,141.33312866749637L210.43636923076923,143.56270144976537L211.4056,143.59168720998784L211.75409230769233,148.71352634881987L211.90916923076924,144.149651682705L211.92596923076923,141.91853818674704L212.03236923076923,141.4831770502318L212.07501538461537,138.80458175198967L212.08276923076923,140.34585876697344L212.25507692307693,137.8911443597121L212.56910769230768,141.41831724123415L212.59236923076924,142.15078066354747L213.0377846153846,146.1942212972984L213.2424,143.28521920009126L213.27169230769232,141.1439923649848L213.52067692307693,142.45942690804526L214.1676923076923,138.92844888469529L214.55107692307692,140.80281568905286L214.65661538461538,137.51600732012926L214.8104,142.58516273660067L214.90646153846154,145.99231506444576L214.99692307692308,147.6286272588823L215.42726153846155,149.31633765598855L215.44147692307692,146.34455532491634L216.06953846153846,143.7035525003697L216.20996923076925,142.19538360593475L216.33704615384616,141.26797555540654L216.56276923076922,143.003276864616L216.63212307692305,144.25855651692228L216.78203076923077,144.44712088423375L216.9694153846154,146.13557943056466L217.13267692307693,147.34033673813212L217.68147692307693,146.0511059074219L218.43015384615384,147.29436402968264L218.6632,146.53470226994173L218.87427692307693,148.80118978542694L218.8971076923077,144.84166548563604L219.32701538461538,147.53871663757303L219.53292307692308,145.16040013838693L219.69876923076922,145.2430555737548L219.97273846153846,143.98506127495762L220.1092923076923,144.3971027694098L220.2561846153846,145.0067382750085L220.6033846153846,147.13417258841818L220.96652307692307,144.6810231148185L220.97427692307693,145.2014052354682L221.48603076923075,147.89900107483402L222.2372923076923,150.18916642248826L222.50178461538462,149.39191540626803L222.53366153846153,149.72983079283307L222.57716923076924,150.41690200048012L222.92953846153847,148.1576653091748L223.22978461538463,146.40995880973176L223.2388307692308,147.36477004495364L223.41975384615387,150.57479845885695L223.57999999999998,145.45481114827152L223.8121846153846,149.26981318737597L224.0852923076923,145.528275470409L224.67243076923077,145.9012887838323L224.76978461538462,151.82221375084953L224.91236923076926,147.31413920428574L224.97956923076921,145.9092372558885L225.02523076923075,142.86812536134562L225.07261538461537,143.09508023389722L226.19778461538462,145.01995173530904L226.5604923076923,146.51243783297417L226.6096,146.9727771834271L226.70566153846153,148.49686554406506L226.80646153846155,146.7955357591376L226.9033846153846,147.86125280619058L226.90769230769232,146.32505653397476L227.0812923076923,146.48520649728917L227.49052307692307,145.84842535609647L227.59778461538463,143.41923600487695L227.60855384615385,143.5265316847133L227.72744615384616,144.77516736287876L227.78043076923078,148.75396468062604L228.05267692307692,148.78165419391436L228.31544615384615,149.23268499071386L228.49938461538463,147.65485706783323L228.63292307692308,144.8462098848243L228.69667692307692,145.6508493032904L228.70270769230768,144.89289033453773L228.7363076923077,146.2649699134098L230.2646769230769,149.69652823303937L230.27716923076923,152.23066247917092L230.32455384615386,151.40520072033132L230.9465846153846,148.72459677090322L231.1076923076923,148.0506231341565L231.76676923076923,148.54700265450106L231.9408,147.3728312618901L232.55679999999998,146.3108167787812L232.63950769230772,151.4744360053791L232.6619076923077,153.63374747460603L232.92510769230768,147.9838074701559L233.49846153846153,147.05113398974328L234.248,150.25919881629062L234.28246153846152,148.68884257773823L234.4844923076923,148.48562177995998L235.2099076923077,148.05738793003655L235.72984615384615,147.34023783716418L236.16621538461538,148.44318765469106L236.25926153846154,148.4198231661382L236.3609230769231,145.9677121776777L237.03206153846153,151.06490248869486L237.31421538461538,148.15250808257235L237.33704615384616,147.71856326018795L237.4512,148.09365842832142L237.8612923076923,148.44147464887112L237.99483076923076,150.09865147226535L238.26276923076924,147.2169188242365L238.5113230769231,146.0248369126246L239.35175384615383,145.55343300593253L240.17323076923077,147.04642290170406L240.19993846153847,148.80213085589057L240.4945846153846,149.3075846658781L240.7091076923077,148.9943230366688L240.93956923076922,149.98051881488053L240.94,150.3120811762167L241.2256,150.15181143969815L241.25230769230768,152.96543010010632L241.41255384615386,145.6306897159476L241.55126153846152,145.52159823712063L241.81704615384615,151.6808627152623L242.27064615384614,152.4318380179513L242.87630769230768,152.56091479197192L242.95772307692306,154.2625278536581L243.4065846153846,152.9132236264608L243.4164923076923,155.42185843124759L243.48326153846153,150.29021451553567L243.8464,152.27995019166187L243.88818461538463,154.00510008936234L244.02301538461538,150.93456029775803L244.65495384615386,154.0829426758472L244.8251076923077,154.15625046370332L244.84061538461538,154.78564226634046L244.85784615384614,154.11715778513795L244.91255384615383,150.8586822239799L244.94184615384614,149.7231638682828L245.66683076923076,151.28046814518842L246.8001846153846,149.46145435919965L246.86436923076923,151.27883629451557L246.86738461538462,151.22076285153847L247.0315076923077,155.23392382623885L247.52990769230772,154.7818322620519L247.5772923076923,155.2406276012497L247.77889230769233,148.9570132540685L248.78603076923076,146.5376901098304L249.15132307692306,148.98026037225404L249.20732307692307,147.8739903450565L249.33612307692306,147.0753605970079L249.38695384615383,145.1798502489925L249.45156923076922,148.2683146090309L249.47956923076921,151.56354842728376L249.81384615384616,154.24049747474592L249.8676923076923,152.62715650690157L250.23772307692306,149.88076892550322L250.42338461538463,152.1600653592082L250.78609230769231,150.65643172244222L250.8468307692308,153.05040479966L250.88904615384615,153.41118528803977L251.0100923076923,152.77634463127924L251.11433846153847,156.35673441141728L251.3852923076923,154.50257684578426L251.4684307692308,152.80853132679022L251.65753846153845,154.62784493132807L252.31833846153845,151.5501243680579L252.42043076923076,150.63061859666482L252.4945230769231,151.6958649781893L252.63279999999997,152.1356558379064L252.80467692307693,154.25241807956678L252.8339692307692,153.1008055281193L253.49218461538462,155.721610915952L253.8566153846154,156.68607527352953L253.90486153846155,153.85124312045724L253.9108923076923,153.40327758512427L254.05347692307691,155.57106760494827L254.3222769230769,157.64028587750346L254.64707692307692,159.23319916016908L255.02313846153845,155.23699743799597L255.24886153846154,154.6297755196823L255.56332307692307,152.6453115754406L256.14873846153847,153.3297200568366L256.46104615384615,153.53098518656776L256.8974153846154,152.2050277014996L257.05464615384614,156.18635318401013L257.1782769230769,158.31725904378823L257.56898461538464,155.2902982058139L258.00793846153846,158.15325251154172L258.1216615384615,159.37666512488565L258.46153846153845,154.99302356020158" style="fill: none;" fill="none"></path></g></g></g></g><g opacity="0.2"><g><g><g><path stroke="rgb(0, 119, 187)" stroke-width="2px" d="M24.424184615384615,-9.683724641799927L24.534030769230768,1.7683993975321357L24.747692307692308,7.05452315012613L24.891569230769232,-3.893084764480591L24.906646153846154,7.296714146931976L25.192676923076924,-0.5344172318776543L25.52006153846154,11.711265405019134L25.609661538461538,9.386059284210205L26.009846153846155,6.966606299082429L26.227384615384615,7.679393927256285L26.25366153846154,10.746965249379485L26.497046153846156,7.649019241333008L26.684861538461536,10.50574016571045L27.07556923076923,13.61566162109375L27.142769230769233,7.693554401397705L27.684676923076925,27.827197869618743L27.845353846153845,28.982204914093018L27.89316923076923,21.443899949391664L28.468246153846152,19.543489297231048L28.786584615384612,23.996442635854095L28.984307692307695,28.41444492340088L29.08166153846154,39.75787560145062L29.983261538461537,36.04490550359091L30.164615384615384,34.12466080983481L30.370092307692307,41.583685874938965L30.386461538461536,36.34235986073813L30.505784615384616,44.50009648005167L30.602707692307693,43.595964272816985L30.629846153846152,31.309558550516755L30.70523076923077,40.40025472640991L31.139876923076923,38.92174180348712L31.15193846153846,50.05338430404663L31.550830769230767,48.93365653355917L31.58313846153846,24.484144369761168L31.611569230769234,41.66395044326782L31.716246153846154,46.32483768463135L31.7296,28.587568442026765L31.92129230769231,43.30211098988849L31.996676923076922,38.918328285217285L32.170707692307694,40.47899071375531L32.259446153846156,45.11884355545044L32.396861538461536,33.94049024581909L33.060676923076926,50.41367928187053L33.995015384615385,50.114771366119385L34.00621538461539,48.781407992045075L34.364184615384616,48.92725149790445L34.70104615384615,49.34997447331746L34.74153846153846,42.10780159632364L35.05815384615384,46.82671864827475L35.27009230769231,47.19139305750528L35.485046153846156,46.071327686309814L35.80553846153846,51.97391970952353L36.04461538461538,43.88053353627524L36.04978461538462,56.16911490758261L36.0652923076923,63.78559319178264L36.08855384615385,72.00887123743694L36.104492307692304,60.17103370030722L36.12043076923077,55.50787703196208L36.31341538461538,53.69051615397136L36.38363076923077,64.34183724721274L36.4155076923077,48.18683687845868L36.79544615384615,62.8200364112854L36.997476923076924,47.617642084757506L37.03366153846154,51.256611982981354L37.28824615384616,60.63734467824301L37.30116923076923,56.29717810948689L37.38301538461538,74.7748057047526L37.65784615384615,55.1916577021281L37.77630769230769,49.300225257873535L37.82412307692308,54.156573931376144L38.187261538461534,53.97099669774374L38.23895384615385,66.44590552647908L38.434953846153846,48.88354158401489L38.60941538461539,59.97202746073404L39.07852307692308,53.52043104171753L39.284,63.96672534942627L39.655323076923075,55.40678437550862L39.79876923076923,61.98444652557373L40.30233846153846,68.85388008753458L40.33335384615385,55.303075313568115L40.4544,57.054032007853195L40.54356923076923,49.13160308202107L40.56553846153846,57.26188151041667L40.58836923076923,61.11457141240437L40.80849230769231,80.59265995025635L40.87181538461539,52.41813659667969L41.047569230769234,78.90401871999104L41.10529230769231,64.26842784881592L41.170338461538456,60.23395872116089L41.46110769230769,67.29329268137614L41.49513846153847,58.23264296849568L42.06720000000001,60.798867861429855L42.16455384615385,72.01132822036743L42.25501538461538,55.75238434473674L42.72412307692308,67.4117530186971L43.06141538461539,70.45145352681477L43.38966153846154,62.102869351704925L43.52492307692307,80.41270001729329L43.56498461538461,58.59743928909302L43.810523076923076,61.52331209182739L44.28695384615385,67.50875695546468L44.366646153846155,51.005915323893234L44.528615384615385,53.7009817759196L44.697907692307695,53.94608926773071L45.761907692307695,68.6453366279602L45.84116923076923,70.24824603398642L45.96953846153846,59.75493144989014L46.78627692307692,65.73544359207153L46.79790769230769,74.53080479303995L46.805230769230775,81.75935173034668L47.41390769230769,66.46844975153606L47.4164923076923,66.03554248809814L47.541415384615384,76.34603691101074L48.25692307692307,69.67990461985269L48.91556923076923,66.67057879765828L49.28086153846154,72.65209436416626L49.76332307692307,70.53533792495728L50.25526153846153,68.60800361633301L50.35606153846153,67.31499290466309L50.536123076923076,66.84686263402303L51.286523076923075,62.914770921071366L51.4024,84.12763945261638L51.51612307692308,75.01144504547119L51.600123076923076,74.47547578811646L51.83532307692308,76.65744543075562L51.886153846153846,73.83849827448527L51.91889230769231,68.55244016647339L52.06492307692308,64.48096625010173L52.25058461538462,74.62550179163614L52.45649230769231,73.94913752873738L52.47803076923077,87.16100056966145L52.48750769230769,69.33480167388916L52.50172307692308,74.29116455713908L52.80756923076923,75.30500761667886L52.93076923076923,68.13902934392293L53.99606153846154,57.35879166920979L54.310523076923076,75.00571521123251L54.60603076923077,78.51823488871257L55.16603076923077,76.79271078109741L55.47230769230769,84.36504777272542L55.49513846153846,87.46015230814615L55.50849230769231,85.04163710276286L56.10424615384615,74.64035622278848L56.19987692307692,89.36054420471191L56.36486153846154,79.1640837987264L56.373046153846154,76.16708978017171L57.34141538461538,74.27127424875894L57.83206153846154,102.00941117604573L57.914769230769224,75.24236392974854L58.124553846153844,81.25664552052817L58.522584615384616,81.24250380198161L58.85169230769231,73.21339305241904L58.8883076923077,77.4282816251119L58.9499076923077,85.13569641113281L59.115323076923076,76.14923445383708L59.43538461538461,79.47328853607178L59.66627692307693,83.28748257954916L59.95532307692308,84.25630283355713L59.962215384615384,87.44809246063232L60.224553846153846,83.78589375813802L60.33827692307692,86.14579772949219L60.79532307692308,91.25866667429605L60.934461538461534,84.78907426198323L60.94436923076923,77.27989673614502L61.1476923076923,80.34653027852376L61.62196923076923,81.62817509969076L61.7288,88.00792821248372L61.9136,86.27864360809326L62.293107692307686,84.33848985036214L62.41070769230769,90.41886615753174L62.548123076923076,77.41267697016399L62.59249230769231,81.83399899800618L62.945292307692306,75.75311628977458L63.66984615384616,96.1386661529541L63.879630769230765,80.7576904296875L64.12947692307692,76.53755029042561L64.48615384615384,85.39313570658366L64.90486153846153,72.38292344411214L64.99704615384616,78.33078209559123L65.10990769230769,90.98817348480225L65.36276923076923,81.50967725118002L65.37138461538461,77.49785550435384L65.77415384615385,88.07923698425293L65.7875076923077,78.47472190856934L65.8112,88.67001946767172L65.82627692307692,80.62518215179443L65.83058461538461,84.86867300669353L66.23292307692307,74.93406883875528L66.37464615384616,82.551194190979L66.39963076923077,75.61290884017944L66.64129230769231,85.9713331858317L66.65335384615385,104.0004301071167L66.87261538461539,92.65091323852539L67.01864615384615,75.60731029510498L67.23058461538461,91.08264541625977L67.35938461538461,84.3758134841919L67.9056,80.88258393605551L68.22781538461538,75.62978887557983L68.93212307692308,93.44900131225586L69.01526153846153,77.10274076461792L69.11132307692307,97.579283396403L69.40467692307692,80.97578048706055L69.56578461538462,91.59210364023845L70.08356923076923,88.99045880635579L70.26406153846155,87.89199988047282L70.44412307692308,92.41624323527019L71.02695384615384,85.89417266845703L71.20313846153846,82.19633833567302L71.20830769230768,98.1329673131307L71.36295384615384,70.44155057271321L71.70498461538462,81.50448195139568L71.72135384615385,94.80508708953857L71.75236923076923,82.07919088999431L71.86566153846154,92.67124430338542L72.11852307692307,100.56211694081624L72.20036923076923,83.79600302378336L72.35716923076923,88.18663152058919L73.64775384615385,83.04386615753174L73.64818461538462,87.77085749308269L73.70806153846154,82.89661598205566L73.73864615384616,77.42869424819946L73.92430769230769,79.44299825032552L74.0836923076923,87.04550361633301L74.26289230769231,97.56722354888916L74.26806153846154,101.07412592569987L74.94006153846153,87.37955951690674L75.41003076923076,86.07809003194174L76.3784,95.57155323028564L77.14172307692307,104.42775758107503L77.17963076923077,92.97050857543945L77.22098461538462,100.3703597386678L77.46566153846153,87.39390754699707L78.15747692307693,103.8660275141398L78.2419076923077,93.7867333094279L79.09483076923077,86.0242052078247L79.31667692307693,104.90281804402669L79.32227692307693,96.840256690979L79.35889230769232,89.30956649780273L79.53206153846153,88.69308884938557L79.84953846153846,91.43380641937256L80.10498461538461,98.06957340240479L80.30443076923076,91.62533855438232L80.30658461538461,92.24005317687988L80.46855384615384,90.15846347808838L80.68781538461539,105.3888692855835L81.27883076923078,100.02047411600749L81.41581538461539,91.9668779373169L81.47827692307692,91.07323010762533L81.4980923076923,102.20696385701498L81.72424615384615,91.89849503835043L81.74147692307692,90.51500733693442L81.7587076923077,88.1911891301473L81.79101538461538,98.42868677775066L82.05723076923077,89.52328650156657L82.16018461538462,95.94310156504314L82.26012307692308,99.68026638031006L82.54701538461538,96.51299031575522L82.9179076923077,94.80437437693278L82.9782153846154,92.78711636861165L83.55199999999999,96.72616640726726L83.57741538461538,101.06307888031006L83.62867692307692,93.17556349436441L84.44886153846154,93.76872793833414L84.61384615384615,104.27658748626709L84.95587692307691,101.21147314707437L85.43446153846155,94.06377220153809L85.46418461538461,91.31855328877766L85.4659076923077,103.48960272471109L85.8984,105.67481708526611L85.98541538461538,96.0942341486613L86.36061538461539,95.62770748138428L86.40584615384614,85.04463799794515L86.48252307692307,103.3615582784017L86.50406153846154,108.00030453999837L86.52172307692307,102.39508247375488L86.56221538461539,98.94167105356853L86.58332307692308,90.75318463643393L86.69790769230768,93.16129048665366L87.11963076923077,106.81343173980713L87.22387692307692,99.61344019571939L88.26590769230769,98.18885898590088L88.43563076923077,105.7770725886027L88.49421538461539,115.73464298248291L88.50067692307692,95.88593451182048L88.89483076923078,105.71564801534018L89.1003076923077,104.80984656016032L89.22953846153847,100.77480538686116L89.31224615384615,90.18764718373616L90.07987692307691,103.82680956522624L90.23926153846155,114.21311410268149L90.42104615384615,97.88248634338379L90.44258461538462,107.13623428344727L90.51667692307691,103.48729578653972L90.83286153846153,111.16015338897705L90.84492307692307,107.25336297353108L90.92073846153846,90.85489622751871L91.17273846153846,91.16783332824707L91.28301538461538,105.07585716247559L91.44498461538461,100.58059120178223L91.53372307692308,92.99089590708414L91.75169230769231,97.59625720977783L92.3216,87.13659954071045L92.68344615384616,103.54133065541586L92.74073846153846,98.6771796544393L92.82818461538461,99.5352668762207L93.44461538461537,103.64422384897867L93.5144,115.67027378082275L93.62123076923078,107.8683214187622L93.7900923076923,93.82769552866618L94.34320000000001,102.13299179077148L94.44227692307693,103.21462694803873L94.57969230769231,108.36626370747884L94.61803076923076,96.78207683563232L94.71495384615385,98.9831584294637L94.84676923076923,113.59599876403809L95.33052307692309,86.81372197469076L95.34732307692309,93.99711481730142L95.35163076923077,96.90486971537271L95.91206153846154,109.20488262176514L95.96418461538462,106.17489751180013L95.99864615384615,104.15555763244629L96.1632,109.35342693328857L96.24418461538463,105.94332218170166L96.63230769230769,119.16997400919595L97.46455384615385,100.77759997049968L97.97803076923077,104.46449979146323L98.15636923076923,121.57830492655437L98.35796923076923,103.05205345153809L98.37519999999999,98.09930102030435L98.58800000000001,95.62596321105957L98.91926153846154,108.53695837656657L99.06916923076923,99.4481471379598L99.38492307692307,113.19294102986653L99.41033846153846,104.54595534006754L99.63735384615384,100.2958812713623L99.83120000000001,105.5761251449585L100.15298461538461,104.28294563293457L100.19950769230769,113.34249814351399L100.20166153846155,107.81325499216715L100.34036923076923,98.5982748667399L100.4808,105.52134005228679L100.97403076923077,112.68021933237712L101.10843076923078,109.90587298075357L101.51593846153845,102.81835873921713L101.6132923076923,118.3232339223226L101.98246153846154,93.48473072052002L102.004,96.52983283996582L102.2336,99.68561172485352L102.34904615384616,100.00599479675293L102.36886153846154,109.24558226267497L102.91507692307692,115.35120360056558L102.94221538461538,105.91323820749918L103.20455384615384,110.35405667622884L103.37901538461539,104.12037213643391L103.42338461538462,109.46575419108073L104.18584615384614,107.30190245310466L105.22055384615385,102.53987566630046L105.51132307692308,111.7323865890503L105.55526153846154,105.51338768005371L105.64959999999999,104.24233976999919L106.1256,106.53063488006592L106.14713846153846,101.93090025583902L106.7596923076923,111.87639204661052L107.03926153846155,109.63020324707031L107.04098461538462,109.73279635111491L107.22664615384616,115.68158340454102L107.38775384615384,116.51768906911215L107.62381538461538,115.65022404988608L108.13556923076924,118.74035835266113L108.30098461538462,114.49626731872559L108.35870769230769,111.57015069325766L110.1606153846154,115.0425615310669L110.56467692307692,103.710768699646L110.80504615384616,114.04410743713379L111.29483076923077,102.65857982635498L111.37452307692307,129.76367791493735L111.82769230769232,107.85108502705891L111.91513846153846,103.01461728413899L112.36658461538461,109.25953642527261L112.56215384615385,109.26803270975749L113.16566153846153,106.82250944773357L113.19839999999999,111.73521868387859L113.49563076923077,113.0946429570516L113.60461538461539,104.07053852081299L114.12455384615384,115.8126662572225L114.39249230769231,120.31108315785725L114.42264615384616,112.7092342376709L114.43513846153846,116.31402206420898L115.21569230769231,112.38112386067708L115.36732307692307,102.90579732259116L115.37723076923078,110.59382820129395L115.92387692307693,108.23259258270264L116.04233846153846,120.20301342010498L116.07292307692308,104.50082937876384L116.24652307692308,108.3039763768514L116.49249230769232,109.70402526855469L116.67858461538462,120.9207150141398L117.01156923076924,117.68370564778645L117.65341538461539,118.94415664672852L118.21600000000001,107.32585334777832L118.37021538461538,107.20367940266927L118.81864615384616,105.73890495300293L118.86086153846153,113.2481575012207L118.86603076923076,109.14664649963379L119.31920000000001,112.54536660512288L119.55741538461538,103.24184131622314L119.55827692307693,108.24902248382568L119.64615384615385,117.856125831604L119.8232,114.13816674550375L119.82449230769231,116.2384557723999L120.00196923076922,113.19697348276773L120.12732307692308,118.91658592224121L120.19323076923077,123.6405013402303L120.2488,117.98743375142416L120.53698461538463,113.7191292444865L120.87212307692307,109.96776644388835L121.3184,115.09449577331543L121.36707692307692,119.32752100626628L121.37483076923077,113.1517162322998L121.4795076923077,113.52157656351724L121.9244923076923,124.96256446838379L121.93095384615386,121.93398602803549L121.99427692307692,116.10427824656169L122.0700923076923,117.17381604512533L122.12523076923077,121.90630276997885L122.34923076923077,116.01717726389568L122.54652307692308,110.94045035044351L122.6076923076923,120.76376819610596L122.6748923076923,102.19370365142822L122.71538461538461,114.56266212463379L123.40203076923076,109.78148587544759L123.89224615384614,112.15133031209311L124.13649230769231,110.57944266001384L124.22221538461538,123.16405296325684L124.4475076923077,128.39241886138916L124.77273846153847,121.36512883504233L125.39046153846154,124.21031506856283L125.43267692307693,113.05112997690836L125.61963076923078,116.41577116648355L125.73895384615385,117.13514200846355L126.26750769230769,121.40821043650308L126.83913846153845,116.79731623331705L127.18892307692307,120.69600423177084L127.33366153846154,120.16910330454508L127.71575384615385,119.85642878214517L127.96000000000001,121.77893352508545L128.04055384615384,110.07319164276123L128.29772307692306,119.79129060109457L128.58461538461538,112.63443692525229L128.89261538461537,117.5220324198405L129.04209230769231,122.83341058095297L129.136,124.33153247833252L129.40566153846154,130.44386831919354L129.59907692307692,119.67838191986084L129.7606153846154,123.95737711588542L129.80412307692308,122.4064769744873L129.80972307692306,116.33193365732828L129.92043076923076,124.52415243784586L130.0376,115.7574872970581L130.14356923076923,122.02628231048584L130.40763076923076,124.59549872080484L130.51058461538463,119.75085353851318L130.87803076923078,121.33650779724121L130.93316923076924,113.75705305735269L131.01027692307693,115.18999926249185L131.0486153846154,113.88490994771323L131.3803076923077,122.57820320129395L131.60947692307693,116.2887020111084L131.92566153846153,130.11755847930908L132.0182769230769,120.13472429911296L132.49815384615385,121.02343940734863L132.56061538461537,128.21761671702066L132.62221538461537,116.9604523976644L132.71612307692308,115.61209392547607L132.88412307692306,127.03081893920898L132.9496,119.2133181889852L132.95433846153847,121.66017309824626L133.21796923076923,126.32512092590332L133.34676923076924,123.91727765401205L133.42258461538464,125.6780341466268L133.56,118.57859134674072L133.74135384615386,124.82474835713705L134.3315076923077,125.04066276550293L134.41163076923078,124.53930695851645L134.44867692307693,126.93889776865642L134.55852307692308,119.94694328308105L135.02892307692306,134.30802726745605L135.14264615384616,125.42633406321207L135.46443076923077,120.09522501627605L135.5984,125.62985102335612L135.74012307692308,125.05778662363689L135.77975384615385,120.04537264506021L136.6878153846154,124.71579710642497L136.68867692307694,116.13901360829671L136.72701538461538,122.56179205576578L137.0668923076923,118.50053056081136L137.0793846153846,121.23333326975504L137.31846153846152,124.05888239542642L137.7780923076923,119.13713296254477L138.10116923076924,107.09521579742432L138.21661538461538,112.88938172658284L138.29846153846154,102.26700051625569L138.35575384615385,119.27817503611246L138.51556923076922,109.61641788482666L138.73784615384614,116.80541865030924L138.85415384615385,120.35202662150064L139.02904615384617,110.66973209381104L139.1096,115.60376644134521L140.16886153846153,118.7328748703003L140.17015384615385,129.78894170125326L140.22227692307692,118.676833152771L140.756,121.15857346852621L141.04504615384616,128.60283788045248L141.60719999999998,110.95796807607015L141.66406153846154,124.97779401143393L141.73686153846154,110.5607058207194L141.91907692307691,119.74085680643717L141.92295384615386,123.99621995290121L141.9315692307692,114.6132272084554L142.09870769230767,111.87207825978597L142.3408,118.57348982493083L142.41187692307693,120.18628342946371L142.53464615384615,119.70259539286296L142.69532307692307,124.52548408508301L142.80646153846155,109.67733605702718L142.87796923076925,123.21124203999837L143.10455384615386,115.01362164815266L143.28547692307694,128.01278686523438L143.7395076923077,126.64130274454753L143.99624615384616,114.84887250264485L144.24695384615384,118.02216911315918L144.52695384615384,116.45707098642985L145.02836923076924,119.26797199249268L145.21403076923076,123.08439795176187L145.2174769230769,117.32779947916666L145.3217230769231,121.74215380350748L145.91273846153845,126.26566569010416L145.98855384615385,116.12907314300537L146.12424615384617,119.14810498555502L146.1724923076923,114.18477439880371L146.43913846153845,110.69951597849528L146.79667692307694,133.09138933817545L147.74307692307693,119.64957332611084L148.09070769230772,130.41882960001627L148.1660923076923,122.32140159606934L148.77089230769232,126.3875207901001L148.84196923076922,127.554962793986L149.40455384615385,129.4113915761312L150.0364923076923,136.3295052846273L150.0632,117.56779607137045L150.388,121.00941022237141L150.52412307692308,123.28753980000813L151.05267692307694,124.67127132415771L151.1035076923077,121.22249253590903L151.17243076923077,127.37232081095377L151.1875076923077,137.34648990631104L151.53212307692309,123.60038312276205L151.79058461538463,123.25104141235352L151.8177230769231,124.28687540690105L152.06369230769232,129.66391690572104L152.4755076923077,131.142476717631L152.58535384615385,124.10010719299316L153.02603076923077,123.61810715993246L153.54295384615386,122.68535391489664L153.87163076923076,129.04877090454102L154.36184615384613,128.13353538513184L154.5531076923077,124.49556891123453L154.6190153846154,132.16942056020102L154.93649230769233,122.54485575358073L154.9438153846154,130.15011819203693L155.0092923076923,123.4376033147176L155.02135384615383,120.88956197102864L155.1716923076923,119.83542251586914L155.7497846153846,136.76110903422037L156.15772307692308,127.64677143096924L156.22966153846153,131.99525610605875L156.6518153846154,130.79345385233563L156.7246153846154,123.48436101277669L156.89046153846155,134.96025307973224L157.26781538461537,132.52423890431723L157.4483076923077,133.29267438252765L157.70935384615385,121.79648876190186L158.35464615384615,122.21618270874023L158.48775384615385,130.07016309102377L158.66092307692307,132.68878173828125L158.84098461538463,120.87932141621908L158.9628923076923,125.68456109364828L159.10203076923077,135.57915019989014L159.31956923076925,127.3260695139567L159.35058461538463,124.20044962565105L159.46603076923077,131.23938687642413L159.5129846153846,134.55004946390787L159.6646153846154,125.4916410446167L159.7137230769231,127.69529215494792L159.74344615384615,120.45627021789551L159.75550769230767,126.44024276733398L159.93944615384615,122.24058373769125L160.37193846153846,131.69336605072021L160.63815384615387,130.47203922271729L160.65581538461538,122.13071346282959L161.19556923076922,123.3670072555542L161.3609846153846,134.2336800893148L161.52166153846153,131.48919264475504L162.21563076923076,130.88798205057782L162.80104615384616,131.84521134694415L163.01815384615384,125.11292807261148L163.01858461538464,130.9137709935506L163.23612307692306,128.50994141896567L163.51999999999998,134.9373524983724L163.66473846153846,128.03722540537515L163.78707692307694,129.78819147745767L164.06147692307692,120.30980777740479L164.3488,125.61938540140788L164.48276923076924,125.15252113342285L164.4944,135.697966893514L164.55944615384615,134.49599583943686L164.61544615384616,129.12463728586832L164.81403076923075,137.7774747212728L165.04492307692308,135.00837993621826L165.07421538461537,130.09703985850015L165.2628923076923,131.46374130249023L165.5545230769231,126.72701581319173L165.5571076923077,122.09794743855795L165.56959999999998,133.25458176930746L166.06369230769232,131.3311767578125L166.38935384615382,126.60861174265543L166.39323076923077,129.1381600697835L166.53581538461538,123.7534850438436L167.38873846153845,126.91352144877115L167.40079999999998,132.76612981160483L167.46713846153847,137.17759577433267L168.70172307692306,127.23146629333496L168.72153846153847,126.67551294962564L168.72713846153846,132.7422914505005L169.26215384615384,138.9069554011027L169.29833846153846,128.55499235788983L169.88073846153844,133.17577075958252L169.89366153846154,130.7899465560913L169.9742153846154,124.34537410736084L170.21415384615383,128.63884862263996L170.26283076923076,131.79168287913004L171.00203076923077,129.51422850290933L171.46338461538463,129.28996785481772L171.61673846153846,132.8708798090617L171.78172307692307,136.38948567708331L171.96652307692307,137.02528158823648L173.3449846153846,123.67767492930095L173.37427692307693,134.27141634623212L173.37643076923078,136.15828545888266L173.6224,127.87467066446939L175.12233846153848,133.7807699839274L175.6513230769231,132.82068983713785L175.7198153846154,117.8131192525228L175.7534153846154,141.77588621775308L175.76806153846155,140.76702276865643L175.9343384615385,130.2682409286499L176.0308307692308,131.0580015182495L176.2780923076923,126.35666783650716L176.45341538461537,138.07034333546957L176.68689230769232,137.45260906219482L176.73686153846154,142.33142693837482L176.87686153846153,136.59422175089517L177.0259076923077,131.1643269856771L177.33735384615383,135.41642665863037L177.3731076923077,135.05288696289062L177.5579076923077,130.99959659576416L177.8598769230769,125.94841480255127L178.40738461538464,141.50948174794516L178.59476923076923,136.95524819691977L178.60683076923078,138.31966145833334L178.85150769230768,128.35841496785483L179.49679999999998,135.19025293986002L180.1196923076923,138.93178780873615L180.29372307692307,128.9491974512736L180.71673846153848,139.20019912719727L180.84424615384617,134.34039942423502L181.20350769230768,137.08214855194092L181.32756923076923,138.06561692555746L181.38184615384614,134.75812403361002L181.4089846153846,132.43738174438477L181.58603076923077,139.66657574971515L182.48935384615385,135.43501345316568L182.72972307692308,127.94813632965088L182.9313230769231,142.15030415852863L183.01532307692307,133.94443130493164L183.10406153846154,136.86087004343668L183.22941538461538,131.4950631459554L183.83852307692305,137.04572518666586L183.90098461538463,130.90653133392334L183.97464615384615,139.59262243906656L184.0129846153846,126.18679841359457L184.25119999999998,132.99219099680582L184.38258461538462,139.35830879211426L185.02916923076924,137.79420471191406L185.06923076923078,133.62016582489014L185.30701538461537,134.0873301823934L185.4216,138.53184350331625L185.85366153846152,137.54122924804688L186.09273846153846,133.071977297465L186.27624615384616,133.32200813293457L186.39513846153847,132.46005725860596L186.48473846153846,140.7166077295939L186.788,141.01619084676108L186.79273846153845,136.307354927063L187.26012307692307,146.43644523620605L187.51126153846155,140.32499090830484L187.6172307692308,134.482923189799L187.77446153846154,130.07490825653076L187.83993846153848,131.41492048899332L187.9192,133.88683287302652L188.43095384615384,143.4306173324585L188.4580923076923,135.62877750396729L188.57526153846155,145.31574217478433L188.62436923076922,131.40015983581543L188.7940923076923,135.65044021606445L188.94356923076924,135.61476707458496L189.08787692307692,143.52568944295246L189.2774153846154,135.2399552663167L189.96793846153847,141.0156094233195L190.40732307692306,136.0150114695231L190.9078769230769,136.48894659678143L191.3171076923077,139.84057140350342L191.55575384615386,137.1996898651123L191.8534153846154,129.35647519429526L192.03993846153844,140.92597643534342L192.39230769230767,145.07822132110596L192.67230769230767,135.52097034454346L192.78387692307692,144.38206990559897L192.85495384615385,129.18501154581705L192.96695384615384,138.2477149963379L192.97126153846153,140.2860542933146L193.43390769230768,132.5253642400106L193.82806153846155,137.01611010233563L193.9585846153846,136.59495321909588L195.0798769230769,142.42254161834717L195.15784615384615,137.7144371668498L195.20824615384615,138.46589883168537L195.2414153846154,132.76731141408285L195.54898461538463,131.22335084279376L195.7971076923077,144.7094300587972L196.21883076923078,138.77780437469482L196.25673846153848,139.47303676605225L196.97483076923078,134.6946175893148L197.1604923076923,144.73748842875162L197.41895384615384,134.8133405049642L198.02935384615387,133.9283390045166L198.55015384615385,134.4293384552002L198.5828923076923,144.32587814331055L198.93526153846153,134.8295078277588L199.19587692307692,139.3568083445231L199.3948923076923,141.3233887354533L199.59476923076923,140.13756624857587L200.19913846153847,148.84888362884521L200.25083076923076,148.15342617034912L200.46578461538462,145.44750022888184L200.6673846153846,135.7274881998698L201.12184615384615,141.4036626815796L201.2950153846154,135.8790521621704L201.39624615384614,133.45040893554688L201.3996923076923,138.28608894348145L201.61593846153846,134.7783988316854L201.99286153846154,138.61695639292398L202.28535384615387,143.61616643269855L202.5675076923077,139.4381513595581L202.98578461538463,140.68404801686606L203.00043076923077,131.68968995412192L203.30886153846154,143.81585725148517L203.42000000000002,149.13599427541098L203.8331076923077,143.82365957895917L203.95544615384614,145.39706643422446L204.50553846153844,143.55014673868814L204.5076923076923,145.42795689900717L204.75796923076922,150.83313179016113L205.13618461538462,136.821670850118L205.16935384615385,147.8994754155477L205.37612307692308,145.82377497355142L205.5609230769231,139.8268985748291L205.856,143.54733339945477L205.89347692307692,138.35357157389322L206.02873846153844,131.23586082458496L206.67489230769232,142.68253167470294L206.69815384615384,139.2920265197754L206.72572307692306,144.8775177001953L206.85193846153845,138.6555554072062L206.95618461538461,147.73954645792642L207.4476923076923,136.91342322031656L207.53298461538463,141.04023551940918L207.61784615384616,137.8923527399699L208.19464615384618,141.55166308085123L208.64953846153847,146.8537197113037L208.75335384615386,133.2562697728475L209.01612307692307,139.98223241170246L209.06221538461537,140.69704564412436L209.0803076923077,146.986865679423L209.31206153846156,142.1687971750895L210.2140923076923,139.54246997833252L210.43636923076923,146.90706062316895L211.4056,143.63516585032144L211.75409230769233,156.39628505706787L211.90916923076924,137.30383968353271L211.92596923076923,138.57186794281006L212.03236923076923,140.83013534545898L212.07501538461537,134.78668880462646L212.08276923076923,142.65777428944907L212.25507692307693,134.20907274881998L212.56910769230768,146.70907656351724L212.59236923076924,143.24947579701742L213.0377846153846,152.2593822479248L213.2424,138.9217160542806L213.27169230769232,137.932152112325L213.52067692307693,144.4325787226359L214.1676923076923,133.6319818496704L214.55107692307692,143.6143658955892L214.65661538461538,132.585794766744L214.8104,150.18889586130777L214.90646153846154,151.10304355621338L214.99692307692308,150.0830955505371L215.42726153846155,151.84790325164795L215.44147692307692,141.8868818283081L216.06953846153846,139.7420482635498L216.20996923076925,139.93313026428223L216.33704615384616,139.87686347961426L216.56276923076922,145.60622882843018L216.63212307692305,146.14147599538168L216.78203076923077,144.72996743520102L216.9694153846154,148.66826725006104L217.13267692307693,149.14747269948325L217.68147692307693,144.1172596613566L218.43015384615384,149.15925121307373L218.6632,145.3952096303304L218.87427692307693,152.20092105865479L218.8971076923077,138.9023790359497L219.32701538461538,151.58429336547852L219.53292307692308,141.59292538960773L219.69876923076922,145.36703872680664L219.97273846153846,142.09806982676187L220.1092923076923,145.01516501108804L220.2561846153846,145.92119153340658L220.6033846153846,150.32532405853271L220.96652307692307,141.00129890441895L220.97427692307693,145.98197841644287L221.48603076923075,151.94539483388266L222.2372923076923,153.62441444396973L222.50178461538462,148.19603888193765L222.53366153846153,150.23670387268066L222.57716923076924,151.44750881195068L222.92953846153847,144.7688102722168L223.22978461538463,143.78839906056723L223.2388307692308,148.79698689778647L223.41975384615387,155.3898410797119L223.57999999999998,137.77483018239337L223.8121846153846,154.99231624603271L224.0852923076923,139.9159688949585L224.67243076923077,146.46080875396729L224.76978461538462,160.70360120137533L224.91236923076926,140.5520273844401L224.97956923076921,143.80188433329266L225.02523076923075,138.30645751953125L225.07261538461537,143.4355125427246L226.19778461538462,147.90725898742676L226.5604923076923,148.75116697947183L226.6096,147.66328620910645L226.70566153846153,150.78299808502197L226.80646153846155,144.24354108174643L226.9033846153846,149.45982837677002L226.90769230769232,144.02076212565103L227.0812923076923,146.72543144226074L227.49052307692307,144.89325364430746L227.59778461538463,139.77545197804767L227.60855384615385,143.68747520446777L227.72744615384616,146.64812088012695L227.78043076923078,154.72216065724692L228.05267692307692,148.82318846384683L228.31544615384615,149.9092311859131L228.49938461538463,145.28811518351236L228.63292307692308,140.63323911031088L228.69667692307692,146.8578084309896L228.70270769230768,143.7559518814087L228.7363076923077,148.32308928171793L230.2646769230769,154.84386571248373L230.27716923076923,156.03186384836832L230.32455384615386,150.16700808207193L230.9465846153846,144.70369084676108L231.1076923076923,147.03966267903647L231.76676923076923,149.2915719350179L231.9408,145.61157417297363L232.55679999999998,144.71779505411786L232.63950769230772,159.21986484527588L232.6619076923077,156.87271467844644L232.92510769230768,139.50889746348062L233.49846153846153,145.65212376912436L234.248,155.07129605611166L234.28246153846152,146.33330821990967L234.4844923076923,148.18079058329263L235.2099076923077,147.41503715515137L235.72984615384615,146.26451269785562L236.16621538461538,150.09761238098145L236.25926153846154,148.38477643330893L236.3609230769231,142.28954569498697L237.03206153846153,158.71068795522055L237.31421538461538,143.78391647338867L237.33704615384616,147.06764602661133L237.4512,148.65630118052164L237.8612923076923,148.96319897969565L237.99483076923076,152.58441670735678L238.26276923076924,142.8943198521932L238.5113230769231,144.23671404520672L239.35175384615383,144.84632714589438L240.17323076923077,149.28590774536133L240.19993846153847,151.4356927871704L240.4945846153846,150.06576538085938L240.7091076923077,148.52443059285483L240.93956923076922,151.4598124821981L240.94,150.80942471822104L241.2256,149.91140683492026L241.25230769230768,157.1858580907186L241.41255384615386,134.62857913970947L241.55126153846152,145.35796101888022L241.81704615384615,160.91975943247476L242.27064615384614,153.55830097198486L242.87630769230768,152.75452995300293L242.95772307692306,156.81494744618735L243.4065846153846,150.88926728566489L243.4164923076923,159.18481063842773L243.48326153846153,142.59274864196777L243.8464,155.26455370585123L243.88818461538463,156.5928249359131L244.02301538461538,146.32875061035156L244.65495384615386,158.80551624298096L244.8251076923077,154.26621214548746L244.84061538461538,155.72972997029623L244.85784615384614,153.11443106333414L244.91255384615383,145.97096888224283L244.94184615384614,148.01988633473715L245.66683076923076,153.61642456054688L246.8001846153846,146.73293368021646L246.86436923076923,154.0049091974894L246.86738461538462,151.13365268707275L247.0315076923077,161.2536652882894L247.52990769230772,154.10369491577148L247.5772923076923,155.9288206100464L247.77889230769233,139.53159173329672L248.78603076923076,142.9087053934733L249.15132307692306,152.6441157658895L249.20732307692307,146.21458530426025L249.33612307692306,145.8774159749349L249.38695384615383,142.3365847269694L249.45156923076922,152.90101114908853L249.47956923076921,156.5063991546631L249.81384615384616,158.25592104593912L249.8676923076923,150.2071450551351L250.23772307692306,145.76118755340576L250.42338461538463,155.57901000976562L250.78609230769231,148.4009812672933L250.8468307692308,156.64136441548666L250.88904615384615,153.95235602060953L251.0100923076923,151.82408364613852L251.11433846153847,161.72731908162436L251.3852923076923,151.7213404973348L251.4684307692308,150.26746304829916L251.65753846153845,157.35681533813477L252.31833846153845,146.93354352315268L252.42043076923076,149.2513599395752L252.4945230769231,153.29373455047607L252.63279999999997,152.7953421274821L252.80467692307693,157.42756144205728L252.8339692307692,151.3733867009481L253.49218461538462,159.65281899770102L253.8566153846154,158.13277180989584L253.90486153846155,149.5989948908488L253.9108923076923,152.73132928212485L254.05347692307691,158.82275263468424L254.3222769230769,160.74411328633627L254.64707692307692,161.62256908416748L255.02313846153845,149.24269485473633L255.24886153846154,153.7189426422119L255.56332307692307,149.66861565907797L256.14873846153847,154.35633277893066L256.46104615384615,153.83288288116455L256.8974153846154,150.2160914738973L257.05464615384614,162.15834140777588L257.1782769230769,161.5136178334554L257.56898461538464,150.74985694885254L258.00793846153846,162.44768397013345L258.1216615384615,161.21178404490152L258.46153846153845,148.41756121317545" style="fill: none;" fill="none"></path></g></g></g></g></g></g><g transform="translate(50, 177)" clip-path="url(#clip_1)"><clipPath id="clip_1"><rect width="280" height="23"></rect></clipPath><g><g><line x1="0" y1="0" x2="0" y2="5" style="visibility: inherit;" fill="rgb(0, 0, 0)" stroke="rgb(204, 204, 204)" stroke-width="1px"></line><line x1="21.53846153846154" y1="0" x2="21.53846153846154" y2="5" style="visibility: inherit;" fill="rgb(0, 0, 0)" stroke="rgb(204, 204, 204)" stroke-width="1px"></line><line x1="43.07692307692308" y1="0" x2="43.07692307692308" y2="5" style="visibility: inherit;" fill="rgb(0, 0, 0)" stroke="rgb(204, 204, 204)" stroke-width="1px"></line><line x1="64.61538461538461" y1="0" x2="64.61538461538461" y2="5" style="visibility: inherit;" fill="rgb(0, 0, 0)" stroke="rgb(204, 204, 204)" stroke-width="1px"></line><line x1="86.15384615384616" y1="0" x2="86.15384615384616" y2="5" style="visibility: inherit;" fill="rgb(0, 0, 0)" stroke="rgb(204, 204, 204)" stroke-width="1px"></line><line x1="107.6923076923077" y1="0" x2="107.6923076923077" y2="5" style="visibility: inherit;" fill="rgb(0, 0, 0)" stroke="rgb(204, 204, 204)" stroke-width="1px"></line><line x1="129.23076923076923" y1="0" x2="129.23076923076923" y2="5" style="visibility: inherit;" fill="rgb(0, 0, 0)" stroke="rgb(204, 204, 204)" stroke-width="1px"></line><line x1="150.76923076923077" y1="0" x2="150.76923076923077" y2="5" style="visibility: inherit;" fill="rgb(0, 0, 0)" stroke="rgb(204, 204, 204)" stroke-width="1px"></line><line x1="172.30769230769232" y1="0" x2="172.30769230769232" y2="5" style="visibility: inherit;" fill="rgb(0, 0, 0)" stroke="rgb(204, 204, 204)" stroke-width="1px"></line><line x1="193.84615384615384" y1="0" x2="193.84615384615384" y2="5" style="visibility: inherit;" fill="rgb(0, 0, 0)" stroke="rgb(204, 204, 204)" stroke-width="1px"></line><line x1="215.3846153846154" y1="0" x2="215.3846153846154" y2="5" style="visibility: inherit;" fill="rgb(0, 0, 0)" stroke="rgb(204, 204, 204)" stroke-width="1px"></line><line x1="236.92307692307693" y1="0" x2="236.92307692307693" y2="5" style="visibility: inherit;" fill="rgb(0, 0, 0)" stroke="rgb(204, 204, 204)" stroke-width="1px"></line><line x1="258.46153846153845" y1="0" x2="258.46153846153845" y2="5" style="visibility: inherit;" fill="rgb(0, 0, 0)" stroke="rgb(204, 204, 204)" stroke-width="1px"></line><line x1="280" y1="0" x2="280" y2="5" style="visibility: inherit;" fill="rgb(0, 0, 0)" stroke="rgb(204, 204, 204)" stroke-width="1px"></line></g><g transform="translate(0, 8)"><text x="0" y="0" dx="0em" dy="0.95em" style="text-anchor: middle; visibility: hidden; font-family: &quot;Helvetica Neue&quot;, sans-serif; font-size: 12px; font-weight: 200;" fill="rgb(50, 49, 63)" stroke="none" stroke-width="1px">-50k</text><text x="21.53846153846154" y="0" dx="0em" dy="0.95em" style="text-anchor: middle; visibility: inherit; font-family: &quot;Helvetica Neue&quot;, sans-serif; font-size: 12px; font-weight: 200;" fill="rgb(50, 49, 63)" stroke="none" stroke-width="1px">0</text><text x="43.07692307692308" y="0" dx="0em" dy="0.95em" style="text-anchor: middle; visibility: hidden; font-family: &quot;Helvetica Neue&quot;, sans-serif; font-size: 12px; font-weight: 200;" fill="rgb(50, 49, 63)" stroke="none" stroke-width="1px">50k</text><text x="64.61538461538461" y="0" dx="0em" dy="0.95em" style="text-anchor: middle; visibility: inherit; font-family: &quot;Helvetica Neue&quot;, sans-serif; font-size: 12px; font-weight: 200;" fill="rgb(50, 49, 63)" stroke="none" stroke-width="1px">100k</text><text x="86.15384615384616" y="0" dx="0em" dy="0.95em" style="text-anchor: middle; visibility: hidden; font-family: &quot;Helvetica Neue&quot;, sans-serif; font-size: 12px; font-weight: 200;" fill="rgb(50, 49, 63)" stroke="none" stroke-width="1px">150k</text><text x="107.6923076923077" y="0" dx="0em" dy="0.95em" style="text-anchor: middle; visibility: inherit; font-family: &quot;Helvetica Neue&quot;, sans-serif; font-size: 12px; font-weight: 200;" fill="rgb(50, 49, 63)" stroke="none" stroke-width="1px">200k</text><text x="129.23076923076923" y="0" dx="0em" dy="0.95em" style="text-anchor: middle; visibility: hidden; font-family: &quot;Helvetica Neue&quot;, sans-serif; font-size: 12px; font-weight: 200;" fill="rgb(50, 49, 63)" stroke="none" stroke-width="1px">250k</text><text x="150.76923076923077" y="0" dx="0em" dy="0.95em" style="text-anchor: middle; visibility: inherit; font-family: &quot;Helvetica Neue&quot;, sans-serif; font-size: 12px; font-weight: 200;" fill="rgb(50, 49, 63)" stroke="none" stroke-width="1px">300k</text><text x="172.30769230769232" y="0" dx="0em" dy="0.95em" style="text-anchor: middle; visibility: hidden; font-family: &quot;Helvetica Neue&quot;, sans-serif; font-size: 12px; font-weight: 200;" fill="rgb(50, 49, 63)" stroke="none" stroke-width="1px">350k</text><text x="193.84615384615384" y="0" dx="0em" dy="0.95em" style="text-anchor: middle; visibility: inherit; font-family: &quot;Helvetica Neue&quot;, sans-serif; font-size: 12px; font-weight: 200;" fill="rgb(50, 49, 63)" stroke="none" stroke-width="1px">400k</text><text x="215.3846153846154" y="0" dx="0em" dy="0.95em" style="text-anchor: middle; visibility: hidden; font-family: &quot;Helvetica Neue&quot;, sans-serif; font-size: 12px; font-weight: 200;" fill="rgb(50, 49, 63)" stroke="none" stroke-width="1px">450k</text><text x="236.92307692307693" y="0" dx="0em" dy="0.95em" style="text-anchor: middle; visibility: inherit; font-family: &quot;Helvetica Neue&quot;, sans-serif; font-size: 12px; font-weight: 200;" fill="rgb(50, 49, 63)" stroke="none" stroke-width="1px">500k</text><text x="258.46153846153845" y="0" dx="0em" dy="0.95em" style="text-anchor: middle; visibility: hidden; font-family: &quot;Helvetica Neue&quot;, sans-serif; font-size: 12px; font-weight: 200;" fill="rgb(50, 49, 63)" stroke="none" stroke-width="1px">550k</text><text x="280" y="0" dx="0em" dy="0.95em" style="text-anchor: middle; visibility: hidden; font-family: &quot;Helvetica Neue&quot;, sans-serif; font-size: 12px; font-weight: 200;" fill="rgb(50, 49, 63)" stroke="none" stroke-width="1px">600k</text></g><line x1="0" y1="0" x2="280" y2="0" fill="rgb(0, 0, 0)" stroke="rgb(204, 204, 204)" stroke-width="1px"></line></g></g></g></g></svg>