<svg viewBox="0 0 1498 400" xmlns="http://www.w3.org/2000/svg"><g><g><g><g><g><line x1="50" y1="377" x2="45" y2="377" style="visibility: inherit;" fill="rgb(0, 0, 0)" stroke="rgb(204, 204, 204)" stroke-width="1px"></line><line x1="50" y1="351.8666666666667" x2="45" y2="351.8666666666667" style="visibility: inherit;" fill="rgb(0, 0, 0)" stroke="rgb(204, 204, 204)" stroke-width="1px"></line><line x1="50" y1="326.7333333333333" x2="45" y2="326.7333333333333" style="visibility: inherit;" fill="rgb(0, 0, 0)" stroke="rgb(204, 204, 204)" stroke-width="1px"></line><line x1="50" y1="301.5999999999999" x2="45" y2="301.5999999999999" style="visibility: inherit;" fill="rgb(0, 0, 0)" stroke="rgb(204, 204, 204)" stroke-width="1px"></line><line x1="50" y1="276.4666666666667" x2="45" y2="276.4666666666667" style="visibility: inherit;" fill="rgb(0, 0, 0)" stroke="rgb(204, 204, 204)" stroke-width="1px"></line><line x1="50" y1="251.33333333333337" x2="45" y2="251.33333333333337" style="visibility: inherit;" fill="rgb(0, 0, 0)" stroke="rgb(204, 204, 204)" stroke-width="1px"></line><line x1="50" y1="226.20000000000005" x2="45" y2="226.20000000000005" style="visibility: inherit;" fill="rgb(0, 0, 0)" stroke="rgb(204, 204, 204)" stroke-width="1px"></line><line x1="50" y1="201.0666666666667" x2="45" y2="201.0666666666667" style="visibility: inherit;" fill="rgb(0, 0, 0)" stroke="rgb(204, 204, 204)" stroke-width="1px"></line><line x1="50" y1="175.93333333333334" x2="45" y2="175.93333333333334" style="visibility: inherit;" fill="rgb(0, 0, 0)" stroke="rgb(204, 204, 204)" stroke-width="1px"></line><line x1="50" y1="150.79999999999995" x2="45" y2="150.79999999999995" style="visibility: inherit;" fill="rgb(0, 0, 0)" stroke="rgb(204, 204, 204)" stroke-width="1px"></line><line x1="50" y1="125.66666666666677" x2="45" y2="125.66666666666677" style="visibility: inherit;" fill="rgb(0, 0, 0)" stroke="rgb(204, 204, 204)" stroke-width="1px"></line><line x1="50" y1="100.53333333333342" x2="45" y2="100.53333333333342" style="visibility: inherit;" fill="rgb(0, 0, 0)" stroke="rgb(204, 204, 204)" stroke-width="1px"></line><line x1="50" y1="75.40000000000009" x2="45" y2="75.40000000000009" style="visibility: inherit;" fill="rgb(0, 0, 0)" stroke="rgb(204, 204, 204)" stroke-width="1px"></line><line x1="50" y1="50.26666666666671" x2="45" y2="50.26666666666671" style="visibility: inherit;" fill="rgb(0, 0, 0)" stroke="rgb(204, 204, 204)" stroke-width="1px"></line><line x1="50" y1="25.133333333333383" x2="45" y2="25.133333333333383" style="visibility: inherit;" fill="rgb(0, 0, 0)" stroke="rgb(204, 204, 204)" stroke-width="1px"></line><line x1="50" y1="0" x2="45" y2="0" style="visibility: inherit;" fill="rgb(0, 0, 0)" stroke="rgb(204, 204, 204)" stroke-width="1px"></line></g><g transform="translate(40, 0)"><text x="0" y="377" dx="0em" dy="0.3em" style="text-anchor: end; visibility: hidden; font-family: &quot;Helvetica Neue&quot;, sans-serif; font-size: 12px; font-weight: 200;" fill="rgb(50, 49, 63)" stroke="none" stroke-width="1px">0.5</text><text x="0" y="351.8666666666667" dx="0em" dy="0.3em" style="text-anchor: end; visibility: inherit; font-family: &quot;Helvetica Neue&quot;, sans-serif; font-size: 12px; font-weight: 200;" fill="rgb(50, 49, 63)" stroke="none" stroke-width="1px">0.52</text><text x="0" y="326.7333333333333" dx="0em" dy="0.3em" style="text-anchor: end; visibility: inherit; font-family: &quot;Helvetica Neue&quot;, sans-serif; font-size: 12px; font-weight: 200;" fill="rgb(50, 49, 63)" stroke="none" stroke-width="1px">0.54</text><text x="0" y="301.5999999999999" dx="0em" dy="0.3em" style="text-anchor: end; visibility: inherit; font-family: &quot;Helvetica Neue&quot;, sans-serif; font-size: 12px; font-weight: 200;" fill="rgb(50, 49, 63)" stroke="none" stroke-width="1px">0.56</text><text x="0" y="276.4666666666667" dx="0em" dy="0.3em" style="text-anchor: end; visibility: inherit; font-family: &quot;Helvetica Neue&quot;, sans-serif; font-size: 12px; font-weight: 200;" fill="rgb(50, 49, 63)" stroke="none" stroke-width="1px">0.58</text><text x="0" y="251.33333333333337" dx="0em" dy="0.3em" style="text-anchor: end; visibility: inherit; font-family: &quot;Helvetica Neue&quot;, sans-serif; font-size: 12px; font-weight: 200;" fill="rgb(50, 49, 63)" stroke="none" stroke-width="1px">0.6</text><text x="0" y="226.20000000000005" dx="0em" dy="0.3em" style="text-anchor: end; visibility: inherit; font-family: &quot;Helvetica Neue&quot;, sans-serif; font-size: 12px; font-weight: 200;" fill="rgb(50, 49, 63)" stroke="none" stroke-width="1px">0.62</text><text x="0" y="201.0666666666667" dx="0em" dy="0.3em" style="text-anchor: end; visibility: inherit; font-family: &quot;Helvetica Neue&quot;, sans-serif; font-size: 12px; font-weight: 200;" fill="rgb(50, 49, 63)" stroke="none" stroke-width="1px">0.64</text><text x="0" y="175.93333333333334" dx="0em" dy="0.3em" style="text-anchor: end; visibility: inherit; font-family: &quot;Helvetica Neue&quot;, sans-serif; font-size: 12px; font-weight: 200;" fill="rgb(50, 49, 63)" stroke="none" stroke-width="1px">0.66</text><text x="0" y="150.79999999999995" dx="0em" dy="0.3em" style="text-anchor: end; visibility: inherit; font-family: &quot;Helvetica Neue&quot;, sans-serif; font-size: 12px; font-weight: 200;" fill="rgb(50, 49, 63)" stroke="none" stroke-width="1px">0.68</text><text x="0" y="125.66666666666677" dx="0em" dy="0.3em" style="text-anchor: end; visibility: inherit; font-family: &quot;Helvetica Neue&quot;, sans-serif; font-size: 12px; font-weight: 200;" fill="rgb(50, 49, 63)" stroke="none" stroke-width="1px">0.7</text><text x="0" y="100.53333333333342" dx="0em" dy="0.3em" style="text-anchor: end; visibility: inherit; font-family: &quot;Helvetica Neue&quot;, sans-serif; font-size: 12px; font-weight: 200;" fill="rgb(50, 49, 63)" stroke="none" stroke-width="1px">0.72</text><text x="0" y="75.40000000000009" dx="0em" dy="0.3em" style="text-anchor: end; visibility: inherit; font-family: &quot;Helvetica Neue&quot;, sans-serif; font-size: 12px; font-weight: 200;" fill="rgb(50, 49, 63)" stroke="none" stroke-width="1px">0.74</text><text x="0" y="50.26666666666671" dx="0em" dy="0.3em" style="text-anchor: end; visibility: inherit; font-family: &quot;Helvetica Neue&quot;, sans-serif; font-size: 12px; font-weight: 200;" fill="rgb(50, 49, 63)" stroke="none" stroke-width="1px">0.76</text><text x="0" y="25.133333333333383" dx="0em" dy="0.3em" style="text-anchor: end; visibility: inherit; font-family: &quot;Helvetica Neue&quot;, sans-serif; font-size: 12px; font-weight: 200;" fill="rgb(50, 49, 63)" stroke="none" stroke-width="1px">0.78</text><text x="0" y="0" dx="0em" dy="0.3em" style="text-anchor: end; visibility: hidden; font-family: &quot;Helvetica Neue&quot;, sans-serif; font-size: 12px; font-weight: 200;" fill="rgb(50, 49, 63)" stroke="none" stroke-width="1px">0.8</text></g><line x1="50" y1="0" x2="50" y2="377" fill="rgb(0, 0, 0)" stroke="rgb(204, 204, 204)" stroke-width="1px"></line></g></g><g transform="translate(50, 0)" clip-path="url(#clip_0)"><clipPath id="clip_0"><rect width="1448" height="377"></rect></clipPath><g><g><g><line x1="0" y1="0" x2="0" y2="377" fill="rgb(0, 0, 0)" stroke="rgb(60, 60, 60)" stroke-width="1px" opacity="0.25"></line><line x1="111.38461538461539" y1="0" x2="111.38461538461539" y2="377" fill="rgb(0, 0, 0)" stroke="rgb(60, 60, 60)" stroke-width="1px" opacity="0.25"></line><line x1="222.76923076923077" y1="0" x2="222.76923076923077" y2="377" fill="rgb(0, 0, 0)" stroke="rgb(60, 60, 60)" stroke-width="1px" opacity="0.25"></line><line x1="334.1538461538462" y1="0" x2="334.1538461538462" y2="377" fill="rgb(0, 0, 0)" stroke="rgb(60, 60, 60)" stroke-width="1px" opacity="0.25"></line><line x1="445.53846153846155" y1="0" x2="445.53846153846155" y2="377" fill="rgb(0, 0, 0)" stroke="rgb(60, 60, 60)" stroke-width="1px" opacity="0.25"></line><line x1="556.9230769230769" y1="0" x2="556.9230769230769" y2="377" fill="rgb(0, 0, 0)" stroke="rgb(60, 60, 60)" stroke-width="1px" opacity="0.25"></line><line x1="668.3076923076924" y1="0" x2="668.3076923076924" y2="377" fill="rgb(0, 0, 0)" stroke="rgb(60, 60, 60)" stroke-width="1px" opacity="0.25"></line><line x1="779.6923076923076" y1="0" x2="779.6923076923076" y2="377" fill="rgb(0, 0, 0)" stroke="rgb(60, 60, 60)" stroke-width="1px" opacity="0.25"></line><line x1="891.0769230769231" y1="0" x2="891.0769230769231" y2="377" fill="rgb(0, 0, 0)" stroke="rgb(60, 60, 60)" stroke-width="1px" opacity="0.25"></line><line x1="1002.4615384615385" y1="0" x2="1002.4615384615385" y2="377" fill="rgb(0, 0, 0)" stroke="rgb(60, 60, 60)" stroke-width="1px" opacity="0.25"></line><line x1="1113.8461538461538" y1="0" x2="1113.8461538461538" y2="377" fill="rgb(0, 0, 0)" stroke="rgb(60, 60, 60)" stroke-width="1px" opacity="0.25"></line><line x1="1225.2307692307693" y1="0" x2="1225.2307692307693" y2="377" fill="rgb(0, 0, 0)" stroke="rgb(60, 60, 60)" stroke-width="1px" opacity="0.25"></line><line x1="1336.6153846153848" y1="0" x2="1336.6153846153848" y2="377" fill="rgb(0, 0, 0)" stroke="rgb(60, 60, 60)" stroke-width="1px" opacity="0.25"></line><line x1="1448" y1="0" x2="1448" y2="377" fill="rgb(0, 0, 0)" stroke="rgb(60, 60, 60)" stroke-width="1px" opacity="0.25"></line></g><g><line x1="0" y1="377" x2="1448" y2="377" fill="rgb(0, 0, 0)" stroke="rgb(60, 60, 60)" stroke-width="1px" opacity="0.25"></line><line x1="0" y1="351.8666666666667" x2="1448" y2="351.8666666666667" fill="rgb(0, 0, 0)" stroke="rgb(60, 60, 60)" stroke-width="1px" opacity="0.25"></line><line x1="0" y1="326.7333333333333" x2="1448" y2="326.7333333333333" fill="rgb(0, 0, 0)" stroke="rgb(60, 60, 60)" stroke-width="1px" opacity="0.25"></line><line x1="0" y1="301.5999999999999" x2="1448" y2="301.5999999999999" fill="rgb(0, 0, 0)" stroke="rgb(60, 60, 60)" stroke-width="1px" opacity="0.25"></line><line x1="0" y1="276.4666666666667" x2="1448" y2="276.4666666666667" fill="rgb(0, 0, 0)" stroke="rgb(60, 60, 60)" stroke-width="1px" opacity="0.25"></line><line x1="0" y1="251.33333333333337" x2="1448" y2="251.33333333333337" fill="rgb(0, 0, 0)" stroke="rgb(60, 60, 60)" stroke-width="1px" opacity="0.25"></line><line x1="0" y1="226.20000000000005" x2="1448" y2="226.20000000000005" fill="rgb(0, 0, 0)" stroke="rgb(60, 60, 60)" stroke-width="1px" opacity="0.25"></line><line x1="0" y1="201.0666666666667" x2="1448" y2="201.0666666666667" fill="rgb(0, 0, 0)" stroke="rgb(60, 60, 60)" stroke-width="1px" opacity="0.25"></line><line x1="0" y1="175.93333333333334" x2="1448" y2="175.93333333333334" fill="rgb(0, 0, 0)" stroke="rgb(60, 60, 60)" stroke-width="1px" opacity="0.25"></line><line x1="0" y1="150.79999999999995" x2="1448" y2="150.79999999999995" fill="rgb(0, 0, 0)" stroke="rgb(60, 60, 60)" stroke-width="1px" opacity="0.25"></line><line x1="0" y1="125.66666666666677" x2="1448" y2="125.66666666666677" fill="rgb(0, 0, 0)" stroke="rgb(60, 60, 60)" stroke-width="1px" opacity="0.25"></line><line x1="0" y1="100.53333333333342" x2="1448" y2="100.53333333333342" fill="rgb(0, 0, 0)" stroke="rgb(60, 60, 60)" stroke-width="1px" opacity="0.25"></line><line x1="0" y1="75.40000000000009" x2="1448" y2="75.40000000000009" fill="rgb(0, 0, 0)" stroke="rgb(60, 60, 60)" stroke-width="1px" opacity="0.25"></line><line x1="0" y1="50.26666666666671" x2="1448" y2="50.26666666666671" fill="rgb(0, 0, 0)" stroke="rgb(60, 60, 60)" stroke-width="1px" opacity="0.25"></line><line x1="0" y1="25.133333333333383" x2="1448" y2="25.133333333333383" fill="rgb(0, 0, 0)" stroke="rgb(60, 60, 60)" stroke-width="1px" opacity="0.25"></line><line x1="0" y1="0" x2="1448" y2="0" fill="rgb(0, 0, 0)" stroke="rgb(60, 60, 60)" stroke-width="1px" opacity="0.25"></line></g></g></g><g><g><line x1="0" y1="1005.3333333333333" x2="1448" y2="1005.3333333333333" fill="rgb(0, 0, 0)" stroke="rgb(153, 153, 153)" stroke-width="1.5px"></line></g></g><g><g><line x1="111.38461538461539" y1="0" x2="111.38461538461539" y2="377" fill="rgb(0, 0, 0)" stroke="rgb(153, 153, 153)" stroke-width="1.5px"></line></g></g><g><g><g><g><g><path stroke="rgb(0, 119, 187)" stroke-width="2px" d="M135.63304615384615,-12.944148373819871L135.7689353846154,0.5808426138347045L137.02758153846153,4.289641070655307L137.99885538461538,31.78160892464291L140.01937230769232,42.17323810954173L140.36689230769232,2.292379938330157L143.16932923076925,27.324162741740565L144.00025846153846,34.16203388886157L144.24753230769232,11.451935653379394L147.22150153846152,30.011651824748412L148.86776615384613,26.21334636703517L149.89027692307693,28.599692221748228L150.39373538461538,57.67035036444315L155.05629538461537,48.53644093479335L155.99415384615384,59.554267657614275L157.05676307692306,79.51995926347064L157.14141538461539,58.400921586217464L157.75848615384615,51.65463938354492L158.25971692307692,77.98346128561951L158.40006153846153,62.04835589961351L158.7899076923077,68.13884940393672L161.03764923076923,72.58529147342114L161.1000246153846,107.05979924914851L163.16286769230769,106.25805014081351L163.32994461538462,66.99046127931064L163.4769723076923,76.60326370174187L164.01830153846154,77.98410616264556L164.08736000000002,50.85865861131981L165.07868307692308,67.43505168336037L165.46852923076924,41.953156091987694L166.36851692307692,44.00823730919154L166.82742153846155,60.76862335222063L167.53805538461538,59.95116175025919L170.97092923076923,93.02344712900009L175.80279384615383,96.70043715608301L175.86071384615386,104.33171798848497L177.71192615384615,68.68134199418483L179.45398153846153,65.18416547877291L179.66338461538462,52.419887813544335L181.30073846153846,74.1838857209384L182.3967630769231,72.99579136425456L183.50838153846155,66.18476804606638L185.1657846153846,87.73292516378075L186.40215384615385,80.70899309341627L186.42888615384618,91.0689032254092L186.50908307692308,118.38108752036919L186.62937846153847,151.49127989132103L186.71180307692308,141.4428068625068L186.79422769230771,130.38283663355125L187.79223384615383,112.97997318921176L188.1553476923077,122.30340408017858L188.32019692307694,92.00970586973801L190.28502153846154,109.2034530530675L191.32980923076923,97.91885546984105L191.51693538461538,104.63027807161313L192.83350153846155,111.5942047839469L192.9003323076923,119.68334521483018L193.32359384615387,140.7508191285371L194.74486153846152,136.8847120772504L195.35747692307692,109.8709706726097L195.60475076923078,107.30963403358584L197.48269538461537,107.77454437240681L197.75001846153847,113.28143224770656L198.76361846153847,97.93278801632817L199.66583384615384,94.76436239198591L202.09179076923076,99.98719773520486L203.1544,112.2507564812667L205.07467076923078,105.78497235316632L205.81649230769233,117.26619461579276L208.42066461538462,128.11724575799587L208.58105846153848,115.09396855299804L209.20704,109.0693790451594L209.66817230769232,89.396314434364L209.7817846153846,95.31432606308925L209.8998523076923,112.6214897564804L211.03820307692308,138.0183307765973L211.36567384615387,135.78539076878945L212.2745723076923,168.47563508014474L212.5730830769231,164.75091257210934L212.9094646153846,142.8084257832152L214.4131569230769,117.57001076485625L214.58914461538464,97.42939227230897L217.54752000000002,90.90879870300012L218.05097846153848,109.0873649170668L218.51879384615387,109.59357026720073L220.94475076923078,119.81597128413534L222.68903384615385,138.41132198315316L224.3865353846154,133.56666852558521L225.08603076923077,152.70927248909985L225.29320615384614,138.7711408923959L226.56299076923077,131.82426142638298L229.02681846153848,139.45029705332948L229.43894153846153,124.40841860115864L230.27655384615383,125.31560171369915L231.15203692307693,123.28057597115168L236.65443692307693,137.9111986043127L237.0643323076923,145.91273642472845L237.72818461538463,126.81604233320013L241.9518892307692,134.00768686295828L242.0120369230769,156.35069817480212L242.0499076923077,171.49353944168544L245.1976369230769,151.84438068214692L245.21100307692305,146.26094265705524L245.85703384615383,154.9630396282246L249.55723076923076,144.52477138333944L252.96337230769228,144.31614380534552L254.85245538461538,147.56370720936496L257.34747076923077,145.97795414332737L259.8914953846154,145.6766018990926L260.4127753846154,138.9882630422265L261.3439507692308,136.256882932656L265.22459076923076,119.24873328221236L265.82384,149.75779126492574L266.41195076923077,154.24137400631562L266.84635076923075,148.81882120198676L268.0626707692308,148.1261090657711L268.3255384615385,153.5817817661126L268.4948430769231,144.58625582533836L269.25003076923076,139.70550248430825L270.21016615384616,148.19630843842026L271.2750030769231,150.43029986089854L271.3863876923077,167.97704424619522L271.4353969230769,156.29306507603235L271.5089107692308,163.10560822782458L273.0905723076923,168.46636816837906L273.72769230769234,157.60986669646815L279.2367753846154,137.52099461428597L280.86299076923075,148.74158443056913L282.3911876923077,159.38864764994418L285.2871876923077,157.03068207954982L286.87107692307694,159.63134185029446L286.9891446153846,181.84071411820284L287.05820307692306,179.07165359337355L290.13910153846155,172.08151586182464L290.63364923076927,183.34579969641095L291.48685538461535,180.45022022642615L291.52918153846156,172.24800987989462L296.5370338461538,171.26871767809442L299.0743753846154,203.84506029588258L299.5020923076923,184.12003253322217L300.5869784615385,183.49790061963415L302.64536615384617,176.89240805379248L304.3473230769231,162.2644290928346L304.5366769230769,157.08596005465395L304.8552369230769,170.87961051320517L305.7106707692308,158.83702751868265L307.3658461538461,167.3999574474889L308.5598892307692,165.70061394526942L310.05467076923077,173.63544215930128L310.09031384615383,173.14206146104706L311.4469784615385,175.6376442367051L312.03508923076924,189.3319864583541L314.39867076923076,194.30741176878587L315.1182153846154,180.65999853933965L315.1694523076923,177.53431580260465L316.22092307692304,168.70657366392066L318.6736123076923,164.6925103458387L319.22607999999997,173.4483599221282L320.18176,181.2201442135715L322.1443569230769,178.39637326876388L322.7525169230769,197.1360251248682L323.46315076923077,174.40221018040998L323.6926030769231,174.681896415024L325.5170830769231,161.994616345566L329.26406153846153,188.1636080559104L330.34894769230766,190.0637344250685L331.6410092307692,169.45471599874537L333.48553846153845,169.93340096778255L335.6508553846154,155.25450911068862L336.1275815384615,159.1624665296711L336.7112369230769,177.84473098337472L338.0188923076923,184.7626473408132L338.06344615384614,181.80493649052713L340.14633846153845,186.32472299063477L340.2153969230769,172.10095813189514L340.33792,185.28181738643593L340.4158892307692,177.13399947676322L340.43816615384617,179.93735497589867L342.51883076923076,163.89676884847464L343.25174153846154,169.48600008510104L343.3809476923077,158.9342746084287L344.6306830769231,161.46491355172918L344.6930584615385,191.99200642787696L345.82695384615386,192.0178068122265L346.58214153846154,165.55555565601568L347.6781661538462,173.9005120085437L348.34424615384614,162.3378858737206L351.16896,160.7713169200454L352.8352738461538,157.98950659095655L356.47755076923073,169.97442941780528L356.9074953846154,160.13623723734796L357.4042707692308,184.10988953123123L358.92132923076923,176.0040744607227L359.75448615384613,178.24104642458232L362.43217230769227,176.7417029356209L363.3655753846154,183.9886555243679L364.29675076923075,188.4694056889901L367.3108184615385,184.42187360812164L368.22194461538464,181.54588282042113L368.2486769230769,200.27733286976832L369.04841846153846,172.3526009445986L370.8172061538462,170.4823999400299L370.90185846153844,186.55502114268313L371.06225230769235,171.4125056360494L371.6481353846154,181.42065334882327L372.95579076923076,198.49922666887042L373.3790523076923,178.51868695779405L374.1899323076923,179.31687359867746L380.86409846153845,170.04932514543285L380.8663261538462,176.65723554123406L381.17597538461536,167.55991752840447L381.33414153846155,149.91834630905007L382.2942769230769,153.85545046133842L383.11852307692305,165.70560764672177L384.0452430769231,190.79105464260869L384.07197538461537,197.81953415656739L387.5471753846154,184.42559820046824L389.9775876923077,176.13237867532652L394.98544000000004,187.00149355994742L398.9329107692308,205.9936512311324L399.12894769230763,201.11035968462767L399.3428061538462,215.17028137207123L400.60813538461537,197.12874268786163L404.1858092307693,210.44484160321588L404.622436923077,209.78498246259085L409.0332676923077,192.34985411556514L410.18052923076925,208.7027038836L410.20948923076924,206.33378004055325L410.3988430769231,195.0954664330945L411.29437538461536,193.27047062205853L412.9361846153846,189.10393381290183L414.25720615384614,199.50329640809215L415.28862769230767,186.44210474075973L415.2997661538461,198.00827700524792L416.13737846153845,194.59297660964288L417.27127384615386,198.40841499156298L420.3276676923077,201.4361333957506L421.03607384615384,192.3099505649721L421.35908923076926,195.40993479172678L421.461563076923,208.90499430068508L422.63110153846156,200.72578083575678L422.7202092307692,195.27157945891764L422.8093169230769,175.75867310043503L422.9763938461538,184.5299653781037L424.35310769230773,177.1088775817105L424.8855261538462,179.18996852379325L425.4023507692308,196.53899961555769L426.88599384615384,194.80041238771742L428.8040369230769,193.1238788432292L429.1159138461539,190.7933710535215L432.0832,187.03294996340162L432.21463384615384,202.97241512091406L432.4797292307693,194.22754226814575L436.7212553846154,186.01909701043883L437.57446153846155,193.60672429411323L439.34324923076923,199.7439221732341L441.8182153846154,194.0066279367123L441.97192615384614,188.93714480770714L441.98083692307694,198.64768970711884L444.21744,205.1237866682043L444.6674338461538,201.55711870604142L446.60775384615386,194.26398954319978L446.8416615384615,180.52449669159273L447.23819076923075,186.7650667054464L447.3495753846154,205.93916217623206L447.44091076923075,212.77613326790765L447.65031384615384,208.3445977343092L447.7594707692308,196.16473444141764L448.35203692307687,194.11400033536242L450.5329476923077,207.24114935499045L451.0720492307692,205.4657757812835L456.46083692307695,203.34169046088635L457.33854769230766,206.07830403648575L457.6415138461539,216.78379547438684L457.67492923076924,207.14871950849894L459.71326769230774,217.6397584830026L460.7758769230769,217.7495971374294L461.44418461538464,215.00944780424723L461.8719015384615,200.00556883284733L465.8416492307692,206.35239910127288L466.6658953846154,230.958321247746L467.60598153846155,219.29339947357744L467.71736615384617,219.78760975632053L468.1005292307692,210.09241254746706L469.73565538461537,215.92741115661335L469.79803076923076,217.6072146402114L470.1901046153846,200.25093666948754L471.4933046153846,192.84414267681774L472.0635938461538,203.63797774399964L472.9012061538461,207.20611825676158L473.36011076923074,194.70966472084174L474.48732307692313,198.06304483724546L477.43456000000003,179.27548120685174L479.3058215384616,185.797509421514L479.60210461538463,183.58367698367832L480.0543261538461,190.88434258089293L483.2421538461538,193.46832422605647L483.60304,215.57001588458706L484.1555076923077,221.7069304330044L485.02876307692304,205.0787250087397L487.88912000000005,203.7384368987324L488.40148923076924,207.83050450552153L489.1121230769231,219.20509474000522L489.31038769230764,205.70184754046508L489.8116184615385,206.0940385741752L490.49329230769234,214.42156213617886L492.9949907692308,193.75172598816903L493.0818707692308,193.27354012921225L493.10414769230766,196.95571764505772L496.00237538461545,213.55772824404752L496.27192615384615,219.09775999775397L496.45014153846154,215.2294567957969L497.30112,222.64178231569844L497.7199261538462,213.07042012540137L499.7270769230769,238.99411649263487L504.0309784615385,223.147816769818L506.6863876923077,218.87513935121265L507.6086523076923,233.9459563149157L508.65121230769233,218.34452448207992L508.74032,210.81792417716295L509.84080000000006,202.522739518988L511.5538953846154,214.3681317345149L512.3291323076922,210.23419888272974L513.9620307692308,211.59882863037836L514.0934646153846,210.85174072388642L515.2674584615385,209.33351117335062L516.2699200000001,209.37438300825536L517.9340061538461,201.89285941666793L518.1745969230769,206.7066793188241L518.1857353846154,217.05352934269828L518.9030523076923,210.80404369077323L519.62928,214.7064901354386L522.1799876923077,221.96699900006098L522.8750276923078,223.7053486341726L524.9824246153846,212.71878942456792L525.4858830769231,227.43782452309296L527.3950153846154,202.66930130857725L527.5064,197.03245287580398L528.69376,189.86617573167743L529.2907815384616,192.00436689098203L529.3932553846154,208.35303560280516L532.2179692307693,227.50056487351884L532.3583138461538,218.50105796275673L533.7149784615384,218.50609693140657L534.6171938461539,214.4784309141489L534.8466461538462,219.29403200582587L538.7896615384615,222.6921649545586L544.1405784615384,216.4729102792436L545.6442707692308,228.44981065246023L545.8714953846154,209.481681340054L546.35936,212.4726847607585L548.82096,213.2501017609453L548.9323446153846,205.5627726133198L552.1001230769231,218.92437955233646L553.5458953846154,213.87059069768517L553.5548061538461,216.0564617222305L554.5149415384616,226.5982420865151L555.3480984615385,233.16075335483472L556.5688738461539,237.7823957117839L559.2153723076923,248.82876585597458L560.0708061538462,239.58005205000248L560.3693169230769,236.09641351225858L569.6877538461539,233.80306303057804L571.7773292307692,221.93299874198675L573.0203815384616,225.04566943167995L575.5532676923077,214.9881478360454L575.9653907692308,238.53948829637923L578.3089230769231,229.1018003189582L578.7611446153846,222.65665913208423L581.0957661538462,224.76585868547812L582.1071384615384,218.75849031339357L585.2281353846154,214.56524048803414L585.39744,223.73097929889866L586.9345476923077,225.37281943282426L587.4981538461539,222.81017979535022L590.1869784615385,233.53568312656415L591.5726030769231,242.22107636013536L591.7285415384615,239.6771077021693L591.7931446153846,243.46993020205107L595.8297230769231,241.29616565919966L596.6138707692307,224.58549329887052L596.6651076923077,218.82845074286197L599.4920492307692,218.62643097847777L600.1046646153846,229.5168839872484L600.2628307692307,222.58817981365956L601.1605907692308,217.37790861934613L602.4326030769231,216.5471984975151L603.3949661538462,232.6369783182509L605.1169723076923,233.2233081082245L608.4362338461539,240.41214751917573L611.3456,222.08572826217681L612.1431138461538,223.2319502597912L614.4621415384615,218.93769383624368L614.6804553846154,230.1176465046118L614.7071876923077,222.4920875206616L617.0507200000001,225.4897922183093L618.2826338461539,217.65751521021232L618.2870892307692,213.36064868110483L618.7415384615385,224.6418923195486L619.65712,232.36406597631878L619.663803076923,241.55076385222503L620.5816123076922,234.88652321904468L621.2298707692307,235.5756888859047L621.5707076923077,250.69648569062787L621.85808,243.2039778624103L623.3484061538462,244.19749732777234L625.0815507692307,234.49262541908863L627.38944,230.41165040162505L627.6411692307692,239.374473497633L627.6812676923078,237.90481914204187L628.2225969230769,237.67887868755156L630.5238030769231,241.19103888436018L630.5572184615385,243.8707749908995L630.8846892307693,245.6064014633L631.2767630769231,245.572347589304L631.5619076923076,246.4722954598884L632.7203076923076,236.67706482615986L633.7405907692308,232.36950739824925L634.0569230769231,240.3424549456685L634.404443076923,225.51261861063534L634.6138461538461,224.66186400415995L638.1647876923076,222.85459767279528L640.6999015384615,220.63671321768072L641.9630030769231,221.1283167546898L642.4063138461538,240.18508488809525L643.5713969230769,248.5059602829344L645.2533046153846,254.9600860619065L648.4478153846154,264.0361147290578L648.6661292307692,249.4519350905882L649.6329476923078,243.327682263434L650.2500184615385,241.4488292098722L652.9833969230768,252.47917078896455L655.9395446153846,245.5495194850212L657.7484307692308,247.58061812666122L658.4969353846154,241.44654242801906L660.4728984615384,245.74583135013725L661.736,252.2108119128045L662.1525784615384,241.4506647307414L663.4825107692308,247.81026916416914L664.9661538461538,237.66159410106602L666.5589538461538,234.54188030656667L667.3319630769231,240.46474557934098L667.8176,242.23816619208193L669.2121353846153,253.56584044629767L670.2123692307692,241.78741753300685L671.0477538461539,248.11203194578874L671.2727507692308,250.38959193778277L671.3017107692308,246.58550216686064L671.8742276923077,252.51992608267864L672.48016,244.7604043870695L673.0281723076923,244.74695017275388L674.3937476923077,262.0983465016117L674.9261661538461,252.71518264016885L676.8263876923077,250.63788176656595L677.1115323076923,243.5673303350657L677.5102892307692,241.96542611190782L677.7085538461539,234.30509383560684L679.4238769230769,242.11492679366344L680.6090092307692,239.58911937385133L682.2441353846153,245.8240157559077L682.7230892307692,235.58295855887093L685.2047384615385,236.15450202207182L685.5277538461538,243.57496873605507L685.8463138461539,242.06270931602472L686.3319507692307,237.0054483797607L687.2007507692307,249.62513533352558L687.53936,247.9222871568923L687.5638646153847,252.5068408553079L688.9272123076923,258.853254821158L689.5932923076923,255.40544282570875L689.9853661538461,256.35885885859767L690.696,253.92339638574066L691.6338584615385,256.43755972208464L694.685796923077,255.35749404324233L695.1001476923077,263.62655721123895L695.2917292307693,266.1318602364215L695.8597907692308,259.31848313416754L698.2924307692307,275.99652191403936L698.8805415384616,270.51600616218707L700.5446276923077,270.5745800875151L701.23744,267.3331302012517L701.9703507692308,261.51816326810007L702.1752984615384,249.44219378491096L706.8712738461538,254.5924276264103L706.8757292307693,248.03246293176767L707.0739938461538,256.5686709187998L708.8316430769231,248.4652522784019L708.8962461538462,244.3934894630241L710.1326153846154,251.43616925650412L712.5095630769231,246.9693241455569L714.1803323076923,177.25750112961228L714.7773538461538,159.06784045158136L715.2006153846154,101.25456250980477L715.4968984615385,133.08621369962884L716.3233723076924,120.39234406450385L717.4728615384615,134.98496207415457L718.0743384615384,156.80954814445622L718.9787815384616,156.55574589068686L719.39536,161.70271402852737L724.8732553846154,164.90351931804616L724.8799384615385,202.27642201118192L725.1494892307692,189.34865365862356L727.9096000000001,209.12412098113407L729.4043815384615,234.63478155372766L732.31152,198.13889437181695L732.6055753846155,216.31449823337564L732.9820553846155,189.20728063240313L733.9243692307691,197.97178449424902L733.9444184615385,208.90458172674656L733.9889723076923,207.91150375673584L734.8533169230768,192.04323013108618L736.10528,190.63799449293796L736.4728492307693,203.06868360334025L737.1077415384616,208.92785446182913L737.9386707692307,217.23793886702867L738.5134153846153,177.80560058713922L738.8832123076924,193.41520331518439L740.0549784615386,195.73548287282352L740.9906092307693,198.22357387222826L743.338596923077,204.81883243050962L744.6663015384615,198.0271129806446L745.9628184615385,206.1182736833656L747.4108184615385,203.9596963890253L750.0038523076923,191.06115009990492L750.9639876923077,197.85090037946205L750.9818092307692,192.38520262696932L751.5209107692308,211.07119857902475L754.5773046153846,213.8415384350329L754.9693784615384,204.63493280757123L755.6711015384616,197.0041529803395L755.920603076923,195.7897961896013L757.2995446153845,192.4052055812687L759.1485292307693,228.47601610045493L764.0427692307692,210.74822762978596L765.840516923077,216.7995015027474L766.230363076923,217.38077799731602L769.3580430769231,223.88976038448476L769.7256123076924,220.5878169672835L772.6349784615385,237.53474196615701L775.903003076923,271.17829955909383L776.04112,227.69781799292798L777.7208,230.50552427277714L778.4247507692307,222.12313199543416L781.1581292307693,221.1931770990499L781.4209969230769,203.78438775242606L781.7774276923077,220.05428858102107L781.8553969230769,246.79887506664247L783.6375507692308,243.41256869614395L784.9741661538462,240.6546435800012L785.1145107692308,232.4716877249966L786.386523076923,247.49059177089273L788.516196923077,243.446820962321L789.0842584615385,239.4943015185344L791.3631876923077,233.7534654860108L794.0364184615385,221.61567196395453L795.7361476923077,229.54502077786003L798.2712615384614,235.77867193949947L799.260356923077,224.69354779680205L799.6011938461539,242.23200273012904L801.2430030769232,230.89212862350024L801.2808738461538,245.61498579798632L801.6194830769231,241.01529589544825L801.6818584615385,212.9730853195058L802.459323076923,203.848913444384L805.448886153846,249.43434350488826L807.5585107692308,242.0891048161085L807.9305353846154,243.65686765002582L810.1136738461538,246.97549127750023L810.4901538461539,241.56740072098822L811.3478153846154,260.6556756341106L813.2992738461538,268.66776870749277L814.232676923077,266.8541835252159L815.5826584615385,247.40034433029368L818.9197415384615,238.61067434046035L819.6080984615385,243.42546050484995L820.5036307692307,253.84725415350613L821.4348061538461,230.24311771973936L822.065243076923,226.66313552251438L822.7847876923076,240.07457203502057L823.9097723076924,229.72317795853567L824.0701661538462,225.25680638691236L824.6671876923076,237.6370148579704L824.9100061538461,251.54282602789567L825.6941538461538,239.3464253015672L825.9481107692309,231.6925093214127L826.1018215384615,225.85428032162264L826.1641969230768,223.97800008981903L827.1154215384615,220.09717350321694L829.3520246153846,231.24501625568283L830.7287384615386,233.6159136764443L830.8200738461538,218.59876424107358L833.6113723076922,216.4736638746663L834.4668061538462,241.48371404898194L835.2977353846154,245.5065125296038L838.8865476923077,246.30725671069953L841.9139815384615,251.33914941877407L843.0367384615384,242.5865627268768L843.0389661538462,246.0442719701817L844.1639507692307,251.681172449026L845.632,244.45792266446358L846.3805046153846,250.36904865533913L847.0131692307692,256.7527866881935L848.4322092307692,243.56493933927106L849.91808,228.87888704894635L850.6108923076923,229.54490361506927L850.67104,243.33836888807127L851.0074215384615,247.22068800650302L851.2970215384616,241.30890311075606L852.3239876923076,240.13024045590564L853.5180307692308,245.5536576205333L853.6695138461538,247.50142659110867L854.6452430769231,249.9777774812561L856.1533907692308,246.42808756838934L856.166756923077,228.31393708553335L856.2313599999999,241.74049980103817L858.7865230769231,249.1050811687698L860.4706584615384,244.75078119116571L860.4907076923078,248.6974418636813L861.2280738461538,230.50128221174012L865.6389046153845,219.47716399625904L865.7012799999999,237.3155520713089L866.0443446153846,257.9760326041237L872.4289107692307,251.41160205364952L872.5313846153847,250.91938839372432L872.5603446153846,250.12172957668568L875.3271384615384,270.7171712025595L875.5142646153846,263.34853648173373L878.5261046153846,266.1251308542146L878.5929353846154,254.00719635615673L879.0095138461539,239.03324382064704L880.2503384615384,245.07654554381747L880.5020676923077,257.2117064877437L884.3247876923076,247.57756991887612L886.7106461538461,245.44655020060858L887.5037046153845,247.56803295824554L888.3569107692307,260.8079324750918L889.3125907692307,263.5470306509028L896.4412061538461,253.34620104829216L896.5926892307693,262.68293123205353L896.6038276923077,268.70490647609944L897.8758399999999,258.05077544007247L905.6326646153847,262.37499300134317L908.3682707692308,255.93934713696711L908.7224738461539,225.64271330969697L908.8962338461539,253.7056059527626L908.9719753846155,264.9450186702547L909.8318646153847,257.29587232746303L910.3308676923077,251.58766073193715L911.6095630769231,235.33967056000168L912.5162338461538,260.29267632637783L913.723643076923,264.3267293672226L913.9820553846155,268.89580357276174L914.7060553846154,270.9869387718206L915.4768369230769,259.1962740285495L917.0874584615384,263.7634757119397L917.272356923077,263.65855485745146L918.228036923077,267.6878022266301L919.7896492307692,254.31735030290724L922.6210461538462,273.6666450469328L923.5900923076923,265.70779862216915L923.6524676923077,267.27199548609144L924.9177969230769,255.71534650798884L928.25488,260.1846457239563L931.476123076923,269.0171537508513L932.3761107692306,243.88158296604632L934.5637046153846,258.32485308086694L935.2231015384616,253.93120772343366L937.0809969230769,267.4613717478603L937.7225723076923,273.17070405177816L938.0032615384615,275.34709832167164L938.1436061538461,273.27567078130767L939.0591876923078,289.5603358673492L943.7306584615385,272.21226235592985L944.9737107692307,259.7592208486674L946.0162707692308,274.14527955662476L946.4506707692308,265.85047613190375L946.9095753846154,267.34573732976173L947.5578338461538,255.14409728346703L950.7077907692307,248.8522528539008L951.0308061538462,245.0132388112887L951.4117415384616,255.81300149587463L951.6100061538461,251.3663741244534L952.84192,257.9920534944728L953.5213661538461,270.29759248830055L956.8651323076924,272.71411662541135L957.0723076923077,258.63252917871256L958.3019938461538,264.99004591273484L958.8945600000001,267.09286870619L961.1289353846154,263.6719757123411L962.3653046153846,261.2720989348662L963.3143015384616,261.522677498788L963.9291446153846,256.10415369534314L964.3925046153846,264.7443671123017L965.9608000000001,267.11660018935777L965.9853046153846,267.3414293887713L968.4023507692307,292.49233790809916L969.7010953846154,289.86172173365946L970.2491076923077,273.9123398976226L971.0622153846153,259.93459930320785L971.4008246153846,256.10506382564824L971.81072,267.2678916552472L974.4572184615384,275.1614923695013L974.597563076923,267.68229398445004L975.2034953846154,294.71846326976447L975.4574523076923,277.3571187225348L976.335163076923,272.7298776368717L977.1081723076924,265.90181077681495L977.8544492307692,277.1339643786104L978.8346338461539,266.34240922866775L982.4056246153846,269.4436666898241L984.6778707692307,264.03806461884426L987.2664492307691,262.78221405740896L989.382756923077,276.65016209202804L990.6168984615385,275.1915430413751L992.1562338461539,254.16106702012237L993.1208246153845,264.1982639379646L994.9430769230769,275.7785471288767L996.3910769230769,273.07163847337597L996.9680492307692,279.893005495372L997.3356184615385,261.35802738970665L997.9148184615384,273.53288524015437L997.9370953846153,268.73150015272904L1000.3296369230769,270.6909419242435L1002.3679753846154,264.57451371017453L1003.0429661538461,266.4188783705037L1008.8416492307692,283.43082583783877L1009.2448615384616,277.4496215472945L1009.5055015384614,280.3907176667647L1009.6770338461539,280.417531904431L1011.2676061538461,262.9157763263693L1012.550756923077,284.6429505154159L1014.7316676923077,280.4853821002245L1014.9277046153846,283.03856569545275L1018.6412676923078,278.3806576292722L1019.601403076923,293.09255139595325L1020.9380184615384,277.9401268039111L1024.0946584615385,269.0779656335093L1026.7879384615385,262.7184062976268L1026.957243076923,273.2073485798812L1028.7794953846153,260.1814186223652L1030.1272492307692,263.3299769827708L1031.156443076923,267.6001639367531L1032.1900923076923,270.4724950791235L1035.3155446153846,289.7211083571613L1035.5828676923077,300.74436618490023L1036.6944861538461,298.02940067610933L1037.737046153846,289.71669164277193L1040.0872615384615,288.35306136793156L1040.9827938461538,275.05499635330597L1041.5063015384615,270.66791416520925L1041.5241230769232,266.7357952355249L1042.6424246153845,257.73659752362397L1044.5916553846155,260.0552513672119L1046.1042584615386,272.8460770014846L1047.5633969230769,276.8579571622963L1049.7264861538463,280.7154802865796L1049.8022276923077,275.68843483052717L1051.3972553846154,271.99115797155343L1051.972,289.1032028135056L1054.1083569230768,284.3757737916545L1054.7410215384616,293.1945792461536L1057.5857846153845,287.8446687315962L1057.596923076923,289.1432640863495L1058.8912123076923,298.93105554857084L1060.8471261538461,282.3234314299319L1061.0186584615385,298.0092978105958L1062.087950769231,296.01827806786787L1063.0436307692307,272.9395665003226L1064.5696,276.42900789221324L1064.7634092307692,277.1848421838295L1065.4629046153846,264.74283319789635L1068.804443076923,273.6061593894867L1068.9247384615385,270.6150565428361L1069.0673107692307,285.4340678065712L1069.7200246153845,276.55790327447824L1070.2591261538462,287.9841787405303L1072.800923076923,277.00451045756483L1073.2420061538462,286.44880428428417L1073.6808615384616,276.63010888803984L1076.6637415384616,281.1661619832654L1079.0161846153846,295.88877978069826L1079.5530584615385,277.0500033903713L1080.9119507692308,273.1762631699598L1081.150313846154,271.9347593445673L1081.243876923077,281.3906501566824L1082.4423753846154,280.64375454001373L1087.1071630769231,281.6061337499584L1088.2566523076923,295.9853991970677L1093.26896,289.57599722774376L1095.071163076923,310.24481541771627L1095.8731323076922,287.11036452566935L1095.9600123076923,277.15435046105796L1096.5102523076923,277.8034406472199L1096.7307938461538,272.6312145214649L1096.7708923076923,283.47586783298084L1097.6619692307693,269.540745738317L1099.2859569230768,283.90050053785404L1099.4062523076923,288.19710704598924L1101.7096861538462,295.5983856970912L1102.76784,290.51389649241247L1102.919323076923,288.96899638213165L1104.2069292307692,295.50444944086144L1107.552923076923,281.82991793582323L1109.5355692307692,280.4873780737091L1110.081353846154,264.9362362899245L1110.87664,284.9920723206517L1111.3734153846156,297.2323965728313L1111.8412307692308,311.6678839822628L1114.0666953846155,325.61110830505794L1114.1402092307692,309.03737321019247L1117.3881846153845,302.85243238520667L1118.1144123076924,291.18753020075184L1118.7715815384615,281.77155346934336L1119.9388923076922,283.1506711995463L1120.2975507692306,286.21867542798475L1121.0727876923079,296.85991136234094L1122.0418338461538,304.5309201240605L1122.8861292307693,306.50505329132477L1125.7242092307692,298.38242478943107L1129.5959384615385,302.9636951035832L1130.8011199999999,299.9045553533182L1131.8926892307693,307.79626684554097L1132.010756923077,297.6869235346774L1134.233993846154,308.3746999130682L1135.2988307692308,299.09602044578605L1136.1564923076924,293.56767253015175L1137.5733046153846,286.51143759846934L1138.279483076923,293.1513898672278L1139.0391261538462,294.4689282120238L1140.834646153846,299.5594924176317L1142.7125907692307,288.3595479101687L1142.7526892307692,290.02720825100437L1145.3991876923076,302.2493779672653L1149.284283076923,310.8432701913597L1150.652086153846,313.59835969337314L1150.8169353846154,311.1075602864931L1151.0419323076924,303.8635432538813L1152.8641846153846,304.49435881480133L1154.4168861538462,299.54888061506284L1154.4636676923078,307.22048046483246L1155.3992984615386,318.0892703351994L1156.228,287.4128509094886L1157.4287261538461,298.84614523235405L1158.841083076923,289.6604845363902L1161.8774276923077,290.56079949373054L1162.3808861538462,305.9798141326549L1163.1182523076923,293.17439648346357L1163.4657723076923,298.06523097059875L1163.7019076923077,286.0193372994766L1163.9469538461537,280.1781089721187L1169.7656861538462,286.64514114964385L1171.641403076923,293.5610960633062L1171.89536,297.8802497889897L1172.3921353846154,304.36916370230733L1172.9134153846155,299.7579162142941L1173.4146461538462,307.32133358452325L1173.436923076923,295.7705126070993L1174.334683076923,300.38883050267015L1176.4509907692307,295.2359347024606L1177.0056861538462,274.8162775802043L1177.0613784615384,277.5659704030013L1177.6762215384615,281.8959713351999L1177.9502276923076,297.25162966086106L1179.3581292307692,303.1079844099301L1180.7170215384615,312.894428427737L1181.6682461538462,303.73331844948984L1182.3588307692307,293.40788476552524L1182.6885292307693,294.4083024713554L1182.719716923077,284.6097759278511L1182.8934769230768,287.34083934656155L1190.7973292307693,316.8259293955448L1190.8619323076923,317.21006663174734L1191.1069784615386,308.42421467819594L1194.323766153846,302.42098941635356L1195.156923076923,302.08390368361034L1198.5652923076923,301.7421226183897L1199.46528,305.48687791508394L1202.65088,302.67944493104187L1203.078596923077,320.8558903110574L1203.1944369230769,319.48359990751055L1204.555556923077,302.6834992923457L1207.5206153846152,290.9772311741979L1211.3968,297.54890504846196L1211.5750153846154,296.279008257603L1212.619803076923,296.0916374215774L1216.371236923077,300.1949750715073L1219.0600615384615,295.7214833974982L1221.3167138461538,303.7493207343506L1221.7978953846155,305.8275033089372L1222.323630769231,293.0754897109382L1225.7943753846155,314.4540837950536L1227.2535138461537,302.9512823629595L1227.3715815384614,304.3538463398744L1227.96192,303.5826895088909L1230.082683076923,310.6272105922873L1230.7732676923076,317.77523676657137L1232.1588923076922,296.5593432273673L1233.4442707692308,287.2682820768878L1237.7904984615384,294.9152833508486L1242.0387076923078,301.7831171604217L1242.1768246153847,304.29154168678645L1243.7005661538462,302.1422205315827L1244.809956923077,296.42641973973105L1246.0017723076924,307.4246680765199L1246.0040000000001,313.08786675307243L1247.4809599999999,305.76882012470423L1247.6190769230768,315.3416800645025L1248.4477784615385,289.93059084497077L1249.1650953846154,297.1538397491904L1250.5395815384616,310.30302335546L1252.8853415384615,308.85597319042034L1256.0174769230769,317.9709874310216L1256.4385107692308,324.1898066710306L1258.7597661538462,316.04469122752784L1258.811003076923,318.1497729833836L1259.1562953846153,300.185178229168L1261.03424,312.66808028357536L1261.2503261538461,313.82664602997284L1261.9475938461537,303.9590003291908L1265.2156184615385,316.455694297958L1266.095556923077,322.19444493850597L1266.1757538461538,332.2082913025252L1266.2648615384614,329.0615741155961L1266.5477784615384,315.1602437819492L1266.6992615384615,310.2611563717594L1270.4484676923078,311.3954177050949L1276.309526153846,307.4474379628397L1276.6414523076924,313.4348777538238L1276.657046153846,314.22428522938674L1277.505796923077,317.34596651256595L1280.083236923077,313.5767891176175L1280.328283076923,314.081127184687L1281.3708430769232,271.423645904496L1286.5791876923076,274.0327174887069L1288.4682707692307,288.6302334601685L1288.7578707692307,283.59712191432743L1289.4239507692307,279.77654009666065L1289.6868184615385,274.1057883755724L1290.0209723076923,295.40691223877826L1290.1657723076924,305.75826701604234L1291.8944615384617,317.46358695675667L1292.172923076923,317.9255308571443L1294.0865107692307,301.4908411500643L1295.0466461538463,309.5064479031835L1296.9223630769231,307.8774949740574L1297.2364676923078,313.7765338598414L1297.4547815384615,314.9074307707185L1298.0807630769232,308.59660429322133L1298.6198646153846,328.3514557514394L1300.021083076923,325.0023787240469L1300.4510276923077,323.1030102066369L1301.4289846153845,328.3186534419956L1304.8462646153846,310.6202241684179L1305.3742276923076,307.37436503401483L1305.7573907692308,306.9198195431496L1306.47248,312.23232204281476L1307.3613292307691,308.1613468084526L1307.5128123076922,311.49619299692665L1310.9167261538462,316.4802842528984L1312.801353846154,321.2360868846196L1313.0508553846155,310.1902665373574L1313.082043076923,310.1355574812625L1313.8194092307692,318.7464380514304L1315.2094892307691,320.1044397980976L1316.8891692307693,332.82611844327096L1318.8339446153846,315.1942263765298L1320.0012553846154,321.5535142932235L1321.6274707692307,307.24275952859114L1324.6549046153846,312.9088519470894L1326.2699815384615,321.94973480246483L1328.5266338461538,307.84991426989654L1329.3397415384616,321.5981827481104L1329.9790892307692,330.9088213704137L1331.9996061538461,329.6462983446584L1334.2696246153846,338.16733984295126L1334.8577353846154,338.67485791133L1336.6153846153848,325.63066505006634" style="fill: none;" fill="none"></path></g></g></g></g><g opacity="0.2"><g><g><g><path stroke="rgb(0, 119, 187)" stroke-width="2px" d="M130.28212923076924,-83.85486312707258L131.9751753846154,44.18034664789843L132.4385353846154,0.049121499061641316L134.50806153846153,-17.018689393997136L135.63304615384615,-3.604055921236636L135.7689353846154,20.868232965469417L137.02758153846153,9.852822939554926L137.99885538461538,73.01949036121374L140.01937230769232,57.76066593329119L140.36689230769232,-57.52887058258051L143.16932923076925,64.87182311216998L144.00025846153846,44.41883834203094L144.24753230769232,-22.613207181294683L147.22150153846152,57.85122386614489L148.86776615384613,20.515888452529964L149.89027692307693,32.17921090126043L150.39373538461538,101.27633682886767L155.05629538461537,34.835576931635615L155.99415384615384,76.08100763956713L157.05676307692306,109.46849656105047L157.14141538461539,26.722365140914974L157.75848615384615,41.53521609306341L158.25971692307692,117.47669410705572L158.40006153846153,38.1456978321076L158.7899076923077,77.27458965778357L161.03764923076923,79.25495457649237L161.1000246153846,158.77156090736392L163.16286769230769,105.05542647838598L163.32994461538462,8.089077989260431L163.4769723076923,91.02246733506524L164.01830153846154,80.05536985397345L164.08736000000002,10.170487284660396L165.07868307692308,92.29964129130053L165.46852923076924,3.730312705040035L166.36851692307692,47.09085913499206L166.82742153846155,85.90920241673791L167.53805538461538,58.72496934731805L170.97092923076923,142.6318751970927L175.80279384615383,102.21592219670617L175.86071384615386,115.77863923708605L177.71192615384615,15.20577800273901L179.45398153846153,59.938400705655454L179.66338461538462,33.2734713157019L181.30073846153846,106.82988258202874L182.3967630769231,71.21364982922876L183.50838153846155,55.968233068784116L185.1657846153846,120.05516084035241L186.40215384615385,70.17309498786932L186.42888615384618,106.60876842339837L186.50908307692308,159.34936396280926L186.62937846153847,201.15656844774887L186.71180307692308,126.37009731928512L186.79422769230771,113.79288129011798L187.79223384615383,86.87567802270257L188.1553476923077,136.28855041662857L188.32019692307694,46.569158554077205L190.28502153846154,134.99407382806146L191.32980923076923,80.99195909500128L191.51693538461538,114.69741197427118L192.83350153846155,122.04009485244754L192.9003323076923,131.81705586115524L193.32359384615387,172.35202999909723L194.74486153846152,131.08555150032046L195.35747692307692,69.35035856564843L195.60475076923078,103.46762907505041L197.48269538461537,108.47190988063818L197.75001846153847,121.54176406065628L198.76361846153847,74.90982166926074L199.66583384615384,90.01172395547235L202.09179076923076,107.82145075003314L203.1544,130.64609460035965L205.07467076923078,96.08629616101587L205.81649230769233,134.4880280097326L208.42066461538462,144.39382247130078L208.58105846153848,95.55905274550128L209.20704,100.03249478340155L209.66817230769232,59.88671751817071L209.7817846153846,104.1913435061773L209.8998523076923,138.58223529656732L211.03820307692308,176.1135923067729L211.36567384615387,132.43598075707757L212.2745723076923,217.51100154717767L212.5730830769231,159.1638288100561L212.9094646153846,109.8946955998739L214.4131569230769,79.71238823731744L214.58914461538464,67.21846453348803L217.54752000000002,81.12790834903723L218.05097846153848,136.35521423816684L218.51879384615387,110.35287829240167L220.94475076923078,135.1495728095373L222.68903384615385,166.3043480316798L224.3865353846154,126.29968833923343L225.08603076923077,181.42317843437198L225.29320615384614,117.86394349733996L226.56299076923077,121.40394222736361L229.02681846153848,150.88935049374902L229.43894153846153,101.84560092290246L230.27655384615383,126.67637638250991L231.15203692307693,120.22803735733038L236.65443692307693,159.8571325540543L237.0643323076923,157.9150431553523L237.72818461538463,98.17100119590765L241.9518892307692,144.79515365759534L242.0120369230769,189.865215142568L242.0499076923077,194.20780134201053L245.1976369230769,122.37064254283908L245.21100307692305,137.88578561941787L245.85703384615383,168.01618508497876L249.55723076923076,128.8673690160116L252.96337230769228,144.00320243835452L254.85245538461538,152.4350523153941L257.34747076923077,143.59932454427087L259.8914953846154,145.2245735327403L260.4127753846154,128.95575475692752L261.3439507692308,132.1598127683004L265.22459076923076,93.73650880654657L265.82384,195.5213782389959L266.41195076923077,160.9667481184006L266.84635076923075,140.68499199549362L268.0626707692308,147.0870408614477L268.3255384615385,161.765290816625L268.4948430769231,131.09296691417697L269.25003076923076,132.3843724727631L270.21016615384616,160.93251736958825L271.2750030769231,153.7812869946162L271.3863876923077,194.29716082413995L271.4353969230769,138.7670963207881L271.5089107692308,173.32442295551303L273.0905723076923,176.50750807921094L273.72769230769234,141.3251144886017L279.2367753846154,107.38768649101263L280.86299076923075,165.5724691549937L282.3911876923077,175.35924247900647L285.2871876923077,153.49373372395837L286.87107692307694,163.53233150641125L286.9891446153846,215.15477252006534L287.05820307692306,174.91806280612948L290.13910153846155,161.59630926450097L290.63364923076927,200.24222544829055L291.48685538461535,176.1068510214488L291.52918153846156,159.9446943600973L296.5370338461538,169.79977937539422L299.0743753846154,252.7095742225647L299.5020923076923,154.53249088923138L300.5869784615385,182.56470274925235L302.64536615384617,166.98416920502984L304.3473230769231,140.32246065139773L304.5366769230769,149.31825649738315L304.8552369230769,191.57008620103204L305.7106707692308,140.77315302689874L307.3658461538461,180.24435234069827L308.5598892307692,163.15159869194034L310.05467076923077,185.53768448034924L310.09031384615383,172.4019904136658L311.4469784615385,179.3810184001923L312.03508923076924,209.87349979082748L314.39867076923076,201.77054973443353L315.1182153846154,160.1888786951701L315.1694523076923,172.84579169750216L316.22092307692304,155.4649604558945L318.6736123076923,158.67141536871594L319.22607999999997,186.58213428656262L320.18176,192.87782065073654L322.1443569230769,174.16071685155237L322.7525169230769,225.2455029090246L323.46315076923077,140.30148776372278L323.6926030769231,175.1014257669449L325.5170830769231,142.9636962413788L329.26406153846153,227.41709562142694L330.34894769230766,192.91392397880557L331.6410092307692,138.5411883592606L333.48553846153845,170.65142842133844L335.6508553846154,133.23617132504785L336.1275815384615,165.02440265814465L336.7112369230769,205.8681276639303L338.0188923076923,195.13952187697097L338.06344615384614,177.36837021509808L340.14633846153845,193.10440274079644L340.2153969230769,150.76531084378564L340.33792,205.053106268247L340.4158892307692,164.91227261225384L340.43816615384617,184.14238822460177L342.51883076923076,139.8358896573385L343.25174153846154,177.86984694004062L343.3809476923077,143.10668639341992L344.6306830769231,165.26087196667993L344.6930584615385,237.7826457420985L345.82695384615386,192.05650738875076L346.58214153846154,125.86217892169955L347.6781661538462,186.41794653733575L348.34424615384614,144.99394667148593L351.16896,158.4214634895325L352.8352738461538,153.81679109732312L356.47755076923073,187.95181365807855L356.9074953846154,145.3789489666621L357.4042707692308,220.0703679720561L358.92132923076923,163.84535185496014L359.75448615384613,181.59650437037152L362.43217230769227,174.49268770217898L363.3655753846154,194.85908440748855L364.29675076923075,195.1905309359233L367.3108184615385,178.35057548681897L368.22194461538464,177.23189663887027L368.2486769230769,228.37450794378918L369.04841846153846,130.4655030568441L370.8172061538462,167.6770984331767L370.90185846153844,210.66395294666293L371.06225230769235,148.69873237609866L371.6481353846154,196.43287491798404L372.95579076923076,224.11708664894107L373.3790523076923,148.54787739117944L374.1899323076923,180.51415356000268L380.86409846153845,156.14800246556604L380.8663261538462,186.56910113493603L381.17597538461536,153.9139405091604L381.33414153846155,123.45598948001864L382.2942769230769,159.76110668977105L383.11852307692305,183.4808434247971L384.0452430769231,228.41922513643902L384.07197538461537,208.36225342750552L387.5471753846154,164.3346942663193L389.9775876923077,163.69254938761395L394.98544000000004,203.305165886879L398.9329107692308,234.48188773790997L399.12894769230763,193.78542236487075L399.3428061538462,236.26016390323642L400.60813538461537,170.06643466154736L404.1858092307693,230.4189899762472L404.622436923077,208.79519375165307L409.0332676923077,166.19716159502667L410.18052923076925,233.2319785356522L410.20948923076924,202.7803942759832L410.3988430769231,178.23799602190655L411.29437538461536,190.5329769055049L412.9361846153846,182.8541285991669L414.25720615384614,215.10234030087793L415.28862769230767,166.85031723976138L415.2997661538461,215.3575354019801L416.13737846153845,189.47002601623538L417.27127384615386,204.131572564443L420.3276676923077,205.977711002032L421.03607384615384,178.62067631880444L421.35908923076926,200.05991113185885L421.461563076923,229.14758356412256L422.63110153846156,188.4569606383642L422.7202092307692,187.090277393659L422.8093169230769,146.48931356271112L422.9763938461538,197.68690379460656L424.35310769230773,165.9772458871206L424.8855261538462,182.31160493691766L425.4023507692308,222.56254625320437L426.88599384615384,192.19253154595697L428.8040369230769,190.60907852649692L429.1159138461539,187.29760936896008L432.0832,181.39231832822168L432.21463384615384,226.88161285718286L432.4797292307693,181.11023298899335L436.7212553846154,173.7064291238785L437.57446153846155,204.98816521962488L439.34324923076923,208.94971899191543L441.8182153846154,185.40068658192956L441.97192615384614,181.33292011419934L441.98083692307694,213.2135070562363L444.21744,214.8379321098328L444.6674338461538,196.20711676279709L446.60775384615386,183.3242957989375L446.8416615384615,159.91525741418207L447.23819076923075,196.12592172622684L447.3495753846154,234.7003053824107L447.44091076923075,223.03158990542096L447.65031384615384,201.69729443391168L447.7594707692308,177.89493950208032L448.35203692307687,191.03789917627975L450.5329476923077,226.9318728844325L451.0720492307692,202.802715420723L456.46083692307695,200.15556248029077L457.33854769230766,210.18322439988458L457.6415138461539,232.84203263123834L457.67492923076924,192.696105559667L459.71326769230774,233.37631694475812L460.7758769230769,217.91435511906946L461.44418461538464,210.8992238044739L461.8719015384615,177.4997503757477L465.8416492307692,215.87264450391137L466.6658953846154,267.86720446745557L467.60598153846155,201.79601681232455L467.71736615384617,220.5289251804352L468.1005292307692,195.54961673418686L469.73565538461537,224.67990907033288L469.79803076923076,220.12691986560824L470.1901046153846,174.21651971340182L471.4933046153846,181.73395168781283L472.0635938461538,219.82873034477237L472.9012061538461,212.55832902590436L473.36011076923074,175.9649844169617L474.48732307692313,203.09311501185104L477.43456000000003,151.09413576126101L479.3058215384616,195.5805517435074L479.60210461538463,180.26292832692468L480.0543261538461,201.83534097671512L483.2421538461538,197.3442966938019L483.60304,248.72255337238315L484.1555076923077,230.91230225563052L485.02876307692304,180.13641687234247L487.88912000000005,201.72800473372146L488.40148923076924,213.96860591570538L489.1121230769231,236.26698009173077L489.31038769230764,185.44697674115503L489.8116184615385,206.68232512474063L490.49329230769234,226.9128474791845L492.9949907692308,162.746971766154L493.0818707692308,192.55626134077713L493.10414769230766,202.47898391882583L496.00237538461545,238.46074414253238L496.27192615384615,227.40780762831372L496.45014153846154,209.42700199286148L497.30112,233.76027059555057L497.7199261538462,198.71337683995569L499.7270769230769,277.87966104348504L504.0309784615385,199.37836718559268L506.6863876923077,212.46612322330478L507.6086523076923,256.5521817604701L508.65121230769233,194.94237673282626L508.74032,199.52802371978763L509.84080000000006,190.0799625317256L511.5538953846154,232.13622005780542L512.3291323076922,204.03329960505172L513.9620307692308,213.64577325185144L514.0934646153846,209.7311088641485L515.2674584615385,207.05616684754693L516.2699200000001,209.43569076061252L517.9340061538461,190.67057402928674L518.1745969230769,213.92740917205813L518.1857353846154,232.57380437850955L518.9030523076923,201.4298152128856L519.62928,220.56015980243686L522.1799876923077,232.85776229699457L522.8750276923078,226.3128730853399L524.9824246153846,196.23895061016086L525.4858830769231,249.51637717088067L527.3950153846154,165.5165164868037L527.5064,188.57718022664392L528.69376,179.1167600154877L529.2907815384616,195.2116536299388L529.3932553846154,232.87603867053988L532.2179692307693,256.22185877958935L532.3583138461538,205.0017975966136L533.7149784615384,218.51365538438165L534.6171938461539,208.43693188826248L534.8466461538462,226.5174336433411L538.7896615384615,227.7893643776576L544.1405784615384,207.144028266271L545.6442707692308,246.4151612122854L545.8714953846154,181.02948737144473L546.35936,216.9591898918152L548.82096,214.4162272612254L548.9323446153846,194.03177889188134L552.1001230769231,238.96678996086123L553.5458953846154,206.28990741570794L553.5548061538461,219.3352682590485L554.5149415384616,242.41091263294223L555.3480984615385,243.00452025731408L556.5688738461539,244.71485924720767L559.2153723076923,265.39832107226056L560.0708061538462,225.70698134104413L560.3693169230769,230.87095570564273L569.6877538461539,230.3630373080572L571.7773292307692,204.12790230909988L573.0203815384616,229.7146754662196L575.5532676923077,199.90186544259393L575.9653907692308,273.86649898688L578.3089230769231,214.94526835282647L578.7611446153846,212.98894735177362L581.0957661538462,227.9296580155691L582.1071384615384,209.74743775526687L585.2281353846154,208.27536574999496L585.39744,237.47958751519525L586.9345476923077,227.8355796337128L587.4981538461539,218.96622033913934L590.1869784615385,249.62393812338513L591.5726030769231,255.2491662104925L591.7285415384615,235.86115471522015L591.7931446153846,249.15916395187378L595.8297230769231,238.03551884492242L596.6138707692307,199.5194847583771L596.6651076923077,210.19288690884912L599.4920492307692,218.32340133190158L600.1046646153846,245.8525635004044L600.2628307692307,212.1951235532761L601.1605907692308,209.56250182787582L602.4326030769231,215.3011333147685L603.3949661538462,256.77164804935455L605.1169723076923,234.10280279318494L608.4362338461539,251.19540663560235L611.3456,194.5960993766785L612.1431138461538,224.9512832562129L614.4621415384615,212.49630920092267L614.6804553846154,246.88757550716403L614.7071876923077,211.05374904473626L617.0507200000001,229.9863492647807L618.2826338461539,205.90909969806674L618.2870892307692,206.91534888744357L618.7415384615385,241.56375777721408L619.65712,243.94732646147412L619.663803076923,255.3308106660843L620.5816123076922,224.8901622692744L621.2298707692307,236.60943738619488L621.5707076923077,273.3776808977127L621.85808,231.96521612008416L623.3484061538462,245.68777652581537L625.0815507692307,219.93531755606335L627.38944,224.2901878754298L627.6411692307692,252.81870814164483L627.6812676923078,235.70033760865533L628.2225969230769,237.33996800581616L630.5238030769231,246.4592791795731L630.5572184615385,247.89037915070855L630.8846892307693,248.20984117190045L631.2767630769231,245.52126677831018L631.5619076923076,247.8222172657649L632.7203076923076,221.98421887556714L633.7405907692308,225.9081712563833L634.0569230769231,252.30187626679742L634.404443076923,203.26786410808566L634.6138461538461,223.38573209444684L638.1647876923076,220.14369817574823L640.6999015384615,217.3098865350088L641.9630030769231,221.86572206020358L642.4063138461538,268.77023708820343L643.5713969230769,260.9872733751933L645.2533046153846,264.6412747303645L648.4478153846154,277.65015772978467L648.6661292307692,227.57566563288373L649.6329476923078,234.14130302270257L650.2500184615385,238.63054962952936L652.9833969230768,269.02468315760296L655.9395446153846,235.15504252910617L657.7484307692308,250.62726608912152L658.4969353846154,232.24542888005578L660.4728984615384,252.1947647333145L661.736,261.9082827568054L662.1525784615384,225.31044395764673L663.4825107692308,257.34967581431073L664.9661538461538,222.43858150641125L666.5589538461538,229.86230961481732L667.3319630769231,249.3490434885025L667.8176,244.89829711119336L669.2121353846153,270.55735182762146L670.2123692307692,224.1197831630707L671.0477538461539,257.5989535649618L671.2727507692308,253.80593192577362L671.3017107692308,240.87936751047772L671.8742276923077,261.42156195640564L672.48016,233.12112184365594L673.0281723076923,244.72676885128024L674.3937476923077,288.1254409948985L674.9261661538461,238.6404368480047L676.8263876923077,247.52193045616153L677.1115323076923,232.96150318781537L677.5102892307692,239.56256977717084L677.7085538461539,222.81459542115533L679.4238769230769,253.82967623074853L680.6090092307692,235.80040824413302L682.2441353846153,255.17636032899225L682.7230892307692,220.22137276331586L685.2047384615385,237.0118172168732L685.5277538461538,254.70566880702972L685.8463138461539,239.79432018597925L686.3319507692307,229.4195569753647L687.2007507692307,268.5546657641729L687.53936,245.36801489194238L687.5638646153847,259.3836714029312L688.9272123076923,268.3728757699331L689.5932923076923,250.2337248325348L689.9853661538461,257.78898290793103L690.696,250.2702026764552L691.6338584615385,260.20880472660065L694.685796923077,253.73739552497864L695.1001476923077,276.03015196323395L695.2917292307693,269.8898147741954L695.8597907692308,249.09841748078668L698.2924307692307,301.01358008384705L698.8805415384616,262.29523253440857L700.5446276923077,270.66244097550714L701.23744,262.4709553718567L701.9703507692308,252.79571286837262L702.1752984615384,231.3282395601273L706.8712738461538,262.3177783886592L706.8757292307693,238.1925158898036L707.0739938461538,269.37298289934796L708.8316430769231,236.310124317805L708.8962461538462,238.2858452399572L710.1326153846154,262.00018894672394L712.5095630769231,240.26905647913617L714.1803323076923,72.68976660569513L714.7773538461538,131.78334943453476L715.2006153846154,14.53464559714007L715.4968984615385,180.83369048436487L716.3233723076924,101.35153961181646L717.4728615384615,156.8738890886307L718.0743384615384,189.54642724990848L718.9787815384616,156.17504251003268L719.39536,169.42316623528802L724.8732553846154,169.70472725232446L724.8799384615385,258.33577605088556L725.1494892307692,169.9570011297862L727.9096000000001,238.78732196489972L729.4043815384615,272.90077241261804L732.31152,143.39506359895074L732.6055753846155,243.57790402571362L732.9820553846155,148.54645423094433L733.9243692307691,211.11854028701785L733.9444184615385,225.3037775754929L733.9889723076923,206.4218868017197L734.8533169230768,168.24081969261172L736.10528,188.5301410357158L736.4728492307693,221.71471726894382L737.1077415384616,217.71661074956262L737.9386707692307,229.70306547482812L738.5134153846153,118.65709316730505L738.8832123076924,216.829607407252L740.0549784615386,199.21590220928195L740.9906092307693,201.95571037133539L743.338596923077,214.71172026793164L744.6663015384615,187.8395338058472L745.9628184615385,218.25501473744714L747.4108184615385,200.7218304475149L750.0038523076923,171.71333066622418L750.9639876923077,208.03552579879764L750.9818092307692,184.18665599823L751.5209107692308,239.1001925071081L754.5773046153846,217.99704821904504L754.9693784615384,190.8250243663788L755.6711015384616,185.55798323949182L755.920603076923,193.9682610034943L757.2995446153845,187.32831966876986L759.1485292307693,282.5822318792343L764.0427692307692,184.15654492378238L765.840516923077,225.87641231218976L766.230363076923,218.25269273916882L769.3580430769231,233.65323396523797L769.7256123076924,215.63490184148156L772.6349784615385,262.9551294644674L775.903003076923,321.6436359484991L776.04112,162.47709564367932L777.7208,234.7170836925507L778.4247507692307,209.5495435794195L781.1581292307693,219.7982447544734L781.4209969230769,177.67120373249057L781.7774276923077,244.4591398239136L781.8553969230769,286.91575479507446L783.6375507692308,238.33310914039615L784.9741661538462,236.51775590578717L785.1145107692308,220.19725394248965L786.386523076923,270.01894783973694L788.516196923077,237.38116474946344L789.0842584615385,233.56552235285443L791.3631876923077,225.14221143722537L794.0364184615385,203.40898168087008L795.7361476923077,241.4390439987183L798.2712615384614,245.12914868195855L799.260356923077,208.06586158275607L799.6011938461539,268.5396851301193L801.2430030769232,213.88231746355694L801.2808738461538,267.69927155971527L801.6194830769231,234.11576104164126L801.6818584615385,170.90976945559186L802.459323076923,190.1626556317012L805.448886153846,317.81248859564465L807.5585107692308,231.07124678293866L807.9305353846154,246.00851190090182L810.1136738461538,251.95342671871185L810.4901538461539,233.45526488622033L811.3478153846154,289.28808800379437L813.2992738461538,280.6859083175659L814.232676923077,264.13380575180054L815.5826584615385,218.2195855379105L818.9197415384615,225.42616935571039L819.6080984615385,250.64763975143433L820.5036307692307,269.4799446264903L821.4348061538461,194.8369130690893L822.065243076923,221.29316222667697L822.7847876923076,260.1917268037796L823.9097723076924,214.19608684380853L824.0701661538462,218.55724902947748L824.6671876923076,256.20732756455743L824.9100061538461,272.4015427827835L825.6941538461538,221.0518242120743L825.9481107692309,220.21163535118106L826.1018215384615,217.0969368219376L826.1641969230768,221.16357974211377L827.1154215384615,214.27593362331393L829.3520246153846,247.96678038438165L830.7287384615386,237.1722598075867L830.8200738461538,196.07304008801782L833.6113723076922,213.28601332505548L834.4668061538462,278.9987893104553L835.2977353846154,251.54071025053662L838.8865476923077,247.50837298234308L841.9139815384615,258.88698848088586L843.0367384615384,229.457682689031L843.0389661538462,251.23083583513898L844.1639507692307,260.1365231672923L845.632,233.62304798762005L846.3805046153846,259.23573764165246L847.0131692307692,266.3283937374751L848.4322092307692,223.78316831588748L849.91808,206.84980861345932L850.6108923076923,230.54392846425378L850.67104,264.0285667975744L851.0074215384615,253.0441666841507L851.2970215384616,232.44122576713565L852.3239876923076,238.3622464736303L853.5180307692308,253.6887833674749L853.6695138461538,250.42308004697168L854.6452430769231,253.69230381647748L856.1533907692308,241.10355269908908L856.166756923077,201.14271136124933L856.2313599999999,261.8803438742956L858.7865230769231,260.15195322036743L860.4706584615384,238.21933122475946L860.4907076923078,254.61743287245434L861.2280738461538,203.20704273382827L865.6389046153845,202.94098667303726L865.7012799999999,264.07313418388367L866.0443446153846,288.96675340334576L872.4289107692307,241.56495622793835L872.5313846153847,250.1810679038366L872.5603446153846,248.92524135112765L875.3271384615384,301.6103336413702L875.5142646153846,252.29558440049493L878.5261046153846,270.2900224129359L878.5929353846154,235.83029460906985L879.0095138461539,216.57231501738232L880.2503384615384,254.14149812857312L880.5020676923077,275.4144479036331L884.3247876923076,233.12636506557467L886.7106461538461,242.25002062320712L887.5037046153845,250.75025709470117L888.3569107692307,280.66778175036114L889.3125907692307,267.65567791461945L896.4412061538461,238.04495664437616L896.5926892307693,276.68802650769555L896.6038276923077,277.7378693421682L897.8758399999999,242.06957888603213L905.6326646153847,268.861319343249L908.3682707692308,246.28587834040326L908.7224738461539,180.19776256879175L908.8962338461539,295.79994491736096L908.9719753846155,281.80413774649304L909.8318646153847,245.8221528132757L910.3308676923077,243.0253433386485L911.6095630769231,210.96768530209863L912.5162338461538,297.722184975942L913.723643076923,270.3778089284897L913.9820553846155,275.7494148810705L914.7060553846154,274.1236415704092L915.4768369230769,241.5102769136429L917.0874584615384,270.61427823702496L917.272356923077,263.50117357571924L918.228036923077,273.73167328039807L919.7896492307692,234.2616724173228L922.6210461538462,302.6905871629715L923.5900923076923,253.7695289850235L923.6524676923077,269.6182907819748L924.9177969230769,238.38037304083508L928.25488,266.88859454790753L931.476123076923,282.26591579119366L932.3761107692306,206.17822678883874L934.5637046153846,279.98975825309753L935.2231015384616,247.34073968728387L937.0809969230769,287.7566177845001L937.7225723076923,281.73470250765484L938.0032615384615,278.61168972651166L938.1436061538461,270.16852947076165L939.0591876923078,313.9873334964117L943.7306584615385,246.19015208880109L944.9737107692307,241.07965858777368L946.0162707692308,295.7243676185608L946.4506707692308,253.4082709948222L946.9095753846154,269.58862912654877L947.5578338461538,236.8416372140249L950.7077907692307,239.4144862095515L951.0308061538462,239.25471774737042L951.4117415384616,272.0126455227534L951.6100061538461,244.6964330673218L952.84192,267.9305725495021L953.5213661538461,288.75590097904205L956.8651323076924,276.3389028310776L957.0723076923077,237.5101480086645L958.3019938461538,274.52632101376855L958.8945600000001,270.2471028963725L961.1289353846154,258.5406362215678L962.3653046153846,257.67228376865387L963.3143015384616,261.89854534467065L963.9291446153846,247.9763679901759L964.3925046153846,277.70468723773956L965.9608000000001,270.67494980494183L965.9853046153846,267.67867318789166L968.4023507692307,330.2187006870906L969.7010953846154,285.9157974720001L970.2491076923077,249.98826714356744L971.0622153846153,238.9679884115855L971.4008246153846,250.3607606093089L971.81072,284.0121333996455L974.4572184615384,287.0018934408824L974.597563076923,256.4634964068731L975.2034953846154,335.27271719773614L975.4574523076923,251.31510190169018L976.335163076923,265.7890160083771L977.1081723076924,255.65971048672998L977.8544492307692,293.9821947813034L978.8346338461539,250.15507650375366L982.4056246153846,274.0955528815588L984.6778707692307,255.92966151237488L987.2664492307691,260.89843821525574L989.382756923077,297.45208414395654L990.6168984615385,273.00361446539563L992.1562338461539,222.61535298824313L993.1208246153845,279.2540593147278L994.9430769230769,293.14897191524506L996.3910769230769,269.01127549012506L996.9680492307692,290.1250560283661L997.3356184615385,233.55556023120883L997.9148184615384,291.7951720158259L997.9370953846153,261.5294225215912L1000.3296369230769,273.630104581515L1002.3679753846154,255.39987138907117L1003.0429661538461,269.18542536099756L1008.8416492307692,308.94874703884125L1009.2448615384616,268.4778151114782L1009.5055015384614,284.80236184597015L1009.6770338461539,280.4577532609304L1011.2676061538461,236.66314295927685L1012.550756923077,317.23371179898584L1014.7316676923077,274.2490294774374L1014.9277046153846,286.868341088295L1018.6412676923078,271.39379553000134L1019.601403076923,315.16039204597473L1020.9380184615384,255.21148991584778L1024.0946584615385,255.7847238779068L1026.7879384615385,253.17906729380292L1026.957243076923,288.9407620032629L1028.7794953846153,240.64252368609112L1030.1272492307692,268.052814523379L1031.156443076923,274.0054443677267L1032.1900923076923,274.78099179267883L1035.3155446153846,318.59402827421826L1035.5828676923077,317.2792529265086L1036.6944861538461,293.9569524129232L1037.737046153846,277.2476280927658L1040.0872615384615,286.3076159556707L1040.9827938461538,255.1078988313675L1041.5063015384615,264.08729088306427L1041.5241230769232,260.83761684099835L1042.6424246153845,244.23780095577243L1044.5916553846155,263.5332321325938L1046.1042584615386,292.0323154528936L1047.5633969230769,282.8757774035136L1049.7264861538463,286.5017649730047L1049.8022276923077,268.1478666464488L1051.3972553846154,266.4452426830928L1051.972,314.77127007643384L1054.1083569230768,277.2846302588781L1054.7410215384616,306.4227874279022L1057.5857846153845,279.81980295976007L1057.596923076923,291.09115711847943L1058.8912123076923,313.6127427419027L1060.8471261538461,257.4119952519735L1061.0186584615385,321.5380973815918L1062.087950769231,293.03174845377606L1063.0436307692307,238.32149914900464L1064.5696,281.66316998004913L1064.7634092307692,278.31859362125397L1065.4629046153846,246.0798197189967L1068.804443076923,286.90114867687225L1068.9247384615385,266.1284022728602L1069.0673107692307,307.6625847021739L1069.7200246153845,263.24365647633874L1070.2591261538462,305.1235919396083L1072.800923076923,260.5350080331167L1073.2420061538462,300.6152450243632L1073.6808615384616,261.9020657936732L1076.6637415384616,287.97024162610376L1079.0161846153846,317.97270647684735L1079.5530584615385,248.7918388048808L1080.9119507692308,267.3656528393428L1081.150313846154,270.0725036064784L1081.243876923077,295.57448637485504L1082.4423753846154,279.5234111150106L1087.1071630769231,283.0497025648753L1088.2566523076923,317.55429736773175L1093.26896,279.96189427375793L1095.071163076923,341.24804270267487L1095.8731323076922,252.40868818759918L1095.9600123076923,262.22032936414087L1096.5102523076923,278.7770759264628L1096.7307938461538,264.87287533283234L1096.7708923076923,299.7428478002548L1097.6619692307693,248.63806259632113L1099.2859569230768,305.44013273715973L1099.4062523076923,294.64201680819195L1101.7096861538462,306.7003036737442L1102.76784,282.8871626853943L1102.919323076923,286.65164621671045L1104.2069292307692,305.3076290289561L1107.552923076923,261.3181206782659L1109.5355692307692,278.47356828053796L1110.081353846154,241.60952361424768L1110.87664,315.0758263667425L1111.3734153846156,315.5928829511007L1111.8412307692308,333.32111509641015L1114.0666953846155,346.5259447892507L1114.1402092307692,284.176770567894L1117.3881846153845,293.57502114772797L1118.1144123076924,273.69017692406976L1118.7715815384615,267.64758837223053L1119.9388923076922,285.2193477948507L1120.2975507692306,290.82068177064264L1121.0727876923079,312.82176526387536L1122.0418338461538,316.0374332666397L1122.8861292307693,309.46625304222107L1125.7242092307692,286.1984820365906L1129.5959384615385,309.83560057481134L1130.8011199999999,295.31584572792053L1131.8926892307693,319.63383408387506L1132.010756923077,282.52290856838226L1134.233993846154,324.4063644806544L1135.2988307692308,285.1780012448629L1136.1564923076924,285.27515065670013L1137.5733046153846,275.92708520094556L1138.279483076923,303.1113182703654L1139.0391261538462,296.44523572921753L1140.834646153846,307.1953387260437L1142.7125907692307,271.5596311489741L1142.7526892307692,292.52869876225793L1145.3991876923076,320.5826325416565L1149.284283076923,323.73410852750146L1150.652086153846,317.73099394639337L1150.8169353846154,307.3713611761729L1151.0419323076924,292.9975177049637L1152.8641846153846,305.44058215618134L1154.4168861538462,292.13066331545514L1154.4636676923078,318.7278802394867L1155.3992984615386,334.39245514074963L1156.228,241.39822177092236L1157.4287261538461,315.9960867166519L1158.841083076923,275.8819934924444L1161.8774276923077,291.9112719297409L1162.3808861538462,329.10833609104156L1163.1182523076923,273.96627000967663L1163.4657723076923,305.4014827013016L1163.7019076923077,267.9504967927933L1163.9469538461537,271.41626648108166L1169.7656861538462,296.3456894159317L1171.641403076923,303.93502843379974L1171.89536,304.3589803775152L1172.3921353846154,314.10253457228345L1172.9134153846155,292.8410449822744L1173.4146461538462,318.6664596398672L1173.436923076923,278.44428114096326L1174.334683076923,307.3163073460261L1176.4509907692307,287.5065910021464L1177.0056861538462,244.1867918968201L1177.0613784615384,281.6905096371969L1177.6762215384615,288.3909727334976L1177.9502276923076,320.285117149353L1179.3581292307692,311.89251653353375L1180.7170215384615,327.57409445444745L1181.6682461538462,289.99165348211926L1182.3588307692307,277.91973423957825L1182.6885292307693,295.9089290301005L1182.719716923077,269.9119861125946L1182.8934769230768,291.4374344746272L1190.7973292307693,361.0535644690196L1190.8619323076923,317.78627248605096L1191.1069784615386,295.2454367478689L1194.323766153846,293.4161515235901L1195.156923076923,301.57827508449554L1198.5652923076923,301.2294510205587L1199.46528,311.10401086012524L1202.65088,298.46829545497894L1203.078596923077,348.1205583810806L1203.1944369230769,317.4251643021902L1204.555556923077,277.4833483695984L1207.5206153846152,273.41782899697625L1211.3968,307.4064158598582L1211.5750153846154,294.3741630713145L1212.619803076923,295.810581167539L1216.371236923077,306.349981546402L1219.0600615384615,289.0112458864848L1221.3167138461538,315.79107673962915L1221.7978953846155,308.9447771708171L1222.323630769231,273.94746931393945L1225.7943753846155,346.5219749212265L1227.2535138461537,285.69708021481836L1227.3715815384614,306.457692305247L1227.96192,302.4259542624156L1230.082683076923,321.19399221738183L1230.7732676923076,328.4972760279974L1232.1588923076922,264.73550291856134L1233.4442707692308,273.33169035116833L1237.7904984615384,306.38578526179L1242.0387076923078,312.0848678747813L1242.1768246153847,308.0541784763336L1243.7005661538462,298.9182387987773L1244.809956923077,287.85271855195367L1246.0017723076924,323.9220405817032L1246.0040000000001,321.5826647679011L1247.4809599999999,294.7902501821518L1247.6190769230768,329.70096997419995L1248.4477784615385,251.81395701567334L1249.1650953846154,307.98871310551965L1250.5395815384616,330.0267987648646L1252.8853415384615,306.68539794286096L1256.0174769230769,331.6435087919235L1256.4385107692308,333.518035531044L1258.7597661538462,303.8270180622737L1258.811003076923,321.3073956171672L1259.1562953846153,273.2382860978445L1261.03424,331.3924333651861L1261.2503261538461,315.5644946495692L1261.9475938461537,289.1575317780177L1265.2156184615385,335.2007352511088L1266.095556923077,330.80257089932763L1266.1757538461538,347.22906084855396L1266.2648615384614,324.3414983352026L1266.5477784615384,294.3082482814789L1266.6992615384615,302.91252525647485L1270.4484676923078,313.0968097050985L1276.309526153846,301.5254683494568L1276.6414523076924,322.4160374403L1276.657046153846,315.40839644273126L1277.505796923077,322.0284884373347L1280.083236923077,307.9230230251948L1280.328283076923,314.8376342852911L1281.3708430769232,207.43742398420974L1286.5791876923076,277.9463248650233L1288.4682707692307,310.52650741736096L1288.7578707692307,276.0474545955658L1289.4239507692307,274.04566737016046L1289.6868184615385,265.59966079394025L1290.0209723076923,327.35859803358716L1290.1657723076924,321.28529918193817L1291.8944615384617,335.02156686782837L1292.172923076923,318.6184467077255L1294.0865107692307,276.8388065894445L1295.0466461538463,321.52985803286236L1296.9223630769231,305.43406558036804L1297.2364676923078,322.62509218851727L1297.4547815384615,316.6037761370341L1298.0807630769232,299.1303645769755L1298.6198646153846,357.9837329387665L1300.021083076923,319.978763182958L1300.4510276923077,320.25395743052167L1301.4289846153845,336.1421182950338L1304.8462646153846,284.0725802580516L1305.3742276923076,302.5055763324102L1305.7573907692308,306.23800130685174L1306.47248,320.2010757923126L1307.3613292307691,302.0548839569092L1307.5128123076922,316.4984622796377L1310.9167261538462,323.9564211368561L1312.801353846154,328.36979083220166L1313.0508553846155,293.62153601646423L1313.082043076923,310.0534938971202L1313.8194092307692,331.66275890668237L1315.2094892307691,322.14144241809845L1316.8891692307693,351.90863641103107L1318.8339446153846,288.7463882764181L1320.0012553846154,331.0924461682638L1321.6274707692307,285.7766273816427L1324.6549046153846,321.40799057483673L1326.2699815384615,335.5110590855281L1328.5266338461538,286.70018347104394L1329.3397415384616,342.2205854654312L1329.9790892307692,344.87477930386865L1331.9996061538461,327.7525138060252L1334.2696246153846,350.9489020903905L1334.8577353846154,339.43613501389825L1336.6153846153848,306.0643757581711" style="fill: none;" fill="none"></path></g></g></g></g></g></g><g transform="translate(50, 377)" clip-path="url(#clip_1)"><clipPath id="clip_1"><rect width="1448" height="23"></rect></clipPath><g><g><line x1="0" y1="0" x2="0" y2="5" style="visibility: inherit;" fill="rgb(0, 0, 0)" stroke="rgb(204, 204, 204)" stroke-width="1px"></line><line x1="111.38461538461539" y1="0" x2="111.38461538461539" y2="5" style="visibility: inherit;" fill="rgb(0, 0, 0)" stroke="rgb(204, 204, 204)" stroke-width="1px"></line><line x1="222.76923076923077" y1="0" x2="222.76923076923077" y2="5" style="visibility: inherit;" fill="rgb(0, 0, 0)" stroke="rgb(204, 204, 204)" stroke-width="1px"></line><line x1="334.1538461538462" y1="0" x2="334.1538461538462" y2="5" style="visibility: inherit;" fill="rgb(0, 0, 0)" stroke="rgb(204, 204, 204)" stroke-width="1px"></line><line x1="445.53846153846155" y1="0" x2="445.53846153846155" y2="5" style="visibility: inherit;" fill="rgb(0, 0, 0)" stroke="rgb(204, 204, 204)" stroke-width="1px"></line><line x1="556.9230769230769" y1="0" x2="556.9230769230769" y2="5" style="visibility: inherit;" fill="rgb(0, 0, 0)" stroke="rgb(204, 204, 204)" stroke-width="1px"></line><line x1="668.3076923076924" y1="0" x2="668.3076923076924" y2="5" style="visibility: inherit;" fill="rgb(0, 0, 0)" stroke="rgb(204, 204, 204)" stroke-width="1px"></line><line x1="779.6923076923076" y1="0" x2="779.6923076923076" y2="5" style="visibility: inherit;" fill="rgb(0, 0, 0)" stroke="rgb(204, 204, 204)" stroke-width="1px"></line><line x1="891.0769230769231" y1="0" x2="891.0769230769231" y2="5" style="visibility: inherit;" fill="rgb(0, 0, 0)" stroke="rgb(204, 204, 204)" stroke-width="1px"></line><line x1="1002.4615384615385" y1="0" x2="1002.4615384615385" y2="5" style="visibility: inherit;" fill="rgb(0, 0, 0)" stroke="rgb(204, 204, 204)" stroke-width="1px"></line><line x1="1113.8461538461538" y1="0" x2="1113.8461538461538" y2="5" style="visibility: inherit;" fill="rgb(0, 0, 0)" stroke="rgb(204, 204, 204)" stroke-width="1px"></line><line x1="1225.2307692307693" y1="0" x2="1225.2307692307693" y2="5" style="visibility: inherit;" fill="rgb(0, 0, 0)" stroke="rgb(204, 204, 204)" stroke-width="1px"></line><line x1="1336.6153846153848" y1="0" x2="1336.6153846153848" y2="5" style="visibility: inherit;" fill="rgb(0, 0, 0)" stroke="rgb(204, 204, 204)" stroke-width="1px"></line><line x1="1448" y1="0" x2="1448" y2="5" style="visibility: inherit;" fill="rgb(0, 0, 0)" stroke="rgb(204, 204, 204)" stroke-width="1px"></line></g><g transform="translate(0, 8)"><text x="0" y="0" dx="0em" dy="0.95em" style="text-anchor: middle; visibility: hidden; font-family: &quot;Helvetica Neue&quot;, sans-serif; font-size: 12px; font-weight: 200;" fill="rgb(50, 49, 63)" stroke="none" stroke-width="1px">-50k</text><text x="111.38461538461539" y="0" dx="0em" dy="0.95em" style="text-anchor: middle; visibility: inherit; font-family: &quot;Helvetica Neue&quot;, sans-serif; font-size: 12px; font-weight: 200;" fill="rgb(50, 49, 63)" stroke="none" stroke-width="1px">0</text><text x="222.76923076923077" y="0" dx="0em" dy="0.95em" style="text-anchor: middle; visibility: inherit; font-family: &quot;Helvetica Neue&quot;, sans-serif; font-size: 12px; font-weight: 200;" fill="rgb(50, 49, 63)" stroke="none" stroke-width="1px">50k</text><text x="334.1538461538462" y="0" dx="0em" dy="0.95em" style="text-anchor: middle; visibility: inherit; font-family: &quot;Helvetica Neue&quot;, sans-serif; font-size: 12px; font-weight: 200;" fill="rgb(50, 49, 63)" stroke="none" stroke-width="1px">100k</text><text x="445.53846153846155" y="0" dx="0em" dy="0.95em" style="text-anchor: middle; visibility: inherit; font-family: &quot;Helvetica Neue&quot;, sans-serif; font-size: 12px; font-weight: 200;" fill="rgb(50, 49, 63)" stroke="none" stroke-width="1px">150k</text><text x="556.9230769230769" y="0" dx="0em" dy="0.95em" style="text-anchor: middle; visibility: inherit; font-family: &quot;Helvetica Neue&quot;, sans-serif; font-size: 12px; font-weight: 200;" fill="rgb(50, 49, 63)" stroke="none" stroke-width="1px">200k</text><text x="668.3076923076924" y="0" dx="0em" dy="0.95em" style="text-anchor: middle; visibility: inherit; font-family: &quot;Helvetica Neue&quot;, sans-serif; font-size: 12px; font-weight: 200;" fill="rgb(50, 49, 63)" stroke="none" stroke-width="1px">250k</text><text x="779.6923076923076" y="0" dx="0em" dy="0.95em" style="text-anchor: middle; visibility: inherit; font-family: &quot;Helvetica Neue&quot;, sans-serif; font-size: 12px; font-weight: 200;" fill="rgb(50, 49, 63)" stroke="none" stroke-width="1px">300k</text><text x="891.0769230769231" y="0" dx="0em" dy="0.95em" style="text-anchor: middle; visibility: inherit; font-family: &quot;Helvetica Neue&quot;, sans-serif; font-size: 12px; font-weight: 200;" fill="rgb(50, 49, 63)" stroke="none" stroke-width="1px">350k</text><text x="1002.4615384615385" y="0" dx="0em" dy="0.95em" style="text-anchor: middle; visibility: inherit; font-family: &quot;Helvetica Neue&quot;, sans-serif; font-size: 12px; font-weight: 200;" fill="rgb(50, 49, 63)" stroke="none" stroke-width="1px">400k</text><text x="1113.8461538461538" y="0" dx="0em" dy="0.95em" style="text-anchor: middle; visibility: inherit; font-family: &quot;Helvetica Neue&quot;, sans-serif; font-size: 12px; font-weight: 200;" fill="rgb(50, 49, 63)" stroke="none" stroke-width="1px">450k</text><text x="1225.2307692307693" y="0" dx="0em" dy="0.95em" style="text-anchor: middle; visibility: inherit; font-family: &quot;Helvetica Neue&quot;, sans-serif; font-size: 12px; font-weight: 200;" fill="rgb(50, 49, 63)" stroke="none" stroke-width="1px">500k</text><text x="1336.6153846153848" y="0" dx="0em" dy="0.95em" style="text-anchor: middle; visibility: inherit; font-family: &quot;Helvetica Neue&quot;, sans-serif; font-size: 12px; font-weight: 200;" fill="rgb(50, 49, 63)" stroke="none" stroke-width="1px">550k</text><text x="1448" y="0" dx="0em" dy="0.95em" style="text-anchor: middle; visibility: hidden; font-family: &quot;Helvetica Neue&quot;, sans-serif; font-size: 12px; font-weight: 200;" fill="rgb(50, 49, 63)" stroke="none" stroke-width="1px">600k</text></g><line x1="0" y1="0" x2="1448" y2="0" fill="rgb(0, 0, 0)" stroke="rgb(204, 204, 204)" stroke-width="1px"></line></g></g></g></g></svg>